<svg xmlns="http://www.w3.org/2000/svg">
<defs>
<font id="ALSAlumna" horiz-adv-x="560" >
  <font-face 
    font-family="ALS Alumna"
    font-weight="400"
    font-stretch="normal"
    units-per-em="1000"
    panose-1="2 0 0 0 0 0 0 0 0 0"
    ascent="750"
    descent="-250"
    x-height="466"
    cap-height="634"
    bbox="-127.005 -812.005 4303 964"
    underline-thickness="50"
    underline-position="-75"
    unicode-range="U+000D-U+FB02"
  />
<missing-glyph horiz-adv-x="1205" 
d="M978 713c0 4.66699 1.66699 8.83398 5 12.501s7.33301 5.5 12 5.5c4 0 6.83301 -1.16699 8.5 -3.5s2.5 -4.83301 2.5 -7.5c0 -4.66699 -1.5 -8.83398 -4.5 -12.501s-6.83301 -5.5 -11.5 -5.5c-4 0 -7 1.16699 -9 3.5s-3 4.83301 -3 7.5zM925 723
c6 0 11.333 -1.49805 16 -4.49805s7 -6.83301 7 -11.5s-1.66699 -8.33398 -5 -11.001s-7.33301 -4 -12 -4c-5.33301 0 -10.5 1.66699 -15.5 5s-7.5 7.66602 -7.5 12.999c0 4.66699 1.66699 8 5 10s7.33301 3 12 3zM964 680.002c0 3.33301 1.66602 6.00098 4.99902 8.00098
s6.33301 3 9 3s4.83398 -0.833008 6.50098 -2.5s2.5 -3.83398 2.5 -6.50098s-1.33301 -5 -4 -7s-5.66699 -3 -9 -3c-2.66699 0 -5 0.666992 -7 2s-3 3.33301 -3 6zM950.999 648.003c16.667 0 28.6709 3.16895 36.0039 9.50195s13.333 13.833 18 22.5
c10 24.667 10.333 47.167 1 67.5s-27.666 30.5 -54.999 30.5c-24.667 0 -46.334 -6.16699 -65.001 -18.5s-37.334 -26.833 -56.001 -43.5c-9.33301 2.66699 -18.333 4.83398 -27 6.50098s-17.334 2.5 -26.001 2.5c-5.33301 0 -10.666 -0.333008 -15.999 -1
s-10.333 -1.33398 -15 -2.00098c-15.333 11.333 -37.5 20.666 -66.5 27.999s-58.833 11 -89.5 11c-41.333 0 -79 -8 -113 -24s-51 -42.667 -51 -80c0 -24.667 -2.83301 -45.167 -8.5 -61.5s-23.834 -34.833 -54.501 -55.5c-8 -14.667 -14.167 -31 -18.5 -49
s-6.5 -31.667 -6.5 -41c0 -5.33301 1 -9 3 -11s4.33301 -3 7 -3s5 1.16699 7 3.5s3 4.16602 3 5.49902c0 2.66699 -0.5 5.16699 -1.5 7.5s-1.83301 4.16602 -2.5 5.49902c0 2 2.16699 8.83301 6.5 20.5s12.833 24.667 25.5 39s30.5 28.333 53.5 42s53.167 23.5 90.5 29.5

<glyph glyph-name=".notdef" horiz-adv-x="1205" 
d="M978 713c0 4.66699 1.66699 8.83398 5 12.501s7.33301 5.5 12 5.5c4 0 6.83301 -1.16699 8.5 -3.5s2.5 -4.83301 2.5 -7.5c0 -4.66699 -1.5 -8.83398 -4.5 -12.501s-6.83301 -5.5 -11.5 -5.5c-4 0 -7 1.16699 -9 3.5s-3 4.83301 -3 7.5zM925 723
c6 0 11.333 -1.49805 16 -4.49805s7 -6.83301 7 -11.5s-1.66699 -8.33398 -5 -11.001s-7.33301 -4 -12 -4c-5.33301 0 -10.5 1.66699 -15.5 5s-7.5 7.66602 -7.5 12.999c0 4.66699 1.66699 8 5 10s7.33301 3 12 3zM964 680.002c0 3.33301 1.66602 6.00098 4.99902 8.00098
s6.33301 3 9 3s4.83398 -0.833008 6.50098 -2.5s2.5 -3.83398 2.5 -6.50098s-1.33301 -5 -4 -7s-5.66699 -3 -9 -3c-2.66699 0 -5 0.666992 -7 2s-3 3.33301 -3 6zM950.999 648.003c16.667 0 28.6709 3.16895 36.0039 9.50195s13.333 13.833 18 22.5
c10 24.667 10.333 47.167 1 67.5s-27.666 30.5 -54.999 30.5c-24.667 0 -46.334 -6.16699 -65.001 -18.5s-37.334 -26.833 -56.001 -43.5c-9.33301 2.66699 -18.333 4.83398 -27 6.50098s-17.334 2.5 -26.001 2.5c-5.33301 0 -10.666 -0.333008 -15.999 -1
s-10.333 -1.33398 -15 -2.00098c-15.333 11.333 -37.5 20.666 -66.5 27.999s-58.833 11 -89.5 11c-41.333 0 -79 -8 -113 -24s-51 -42.667 -51 -80c0 -24.667 -2.83301 -45.167 -8.5 -61.5s-23.834 -34.833 -54.501 -55.5c-8 -14.667 -14.167 -31 -18.5 -49
s-6.5 -31.667 -6.5 -41c0 -5.33301 1 -9 3 -11s4.33301 -3 7 -3s5 1.16699 7 3.5s3 4.16602 3 5.49902c0 2.66699 -0.5 5.16699 -1.5 7.5s-1.83301 4.16602 -2.5 5.49902c0 2 2.16699 8.83301 6.5 20.5s12.833 24.667 25.5 39s30.5 28.333 53.5 42s53.167 23.5 90.5 29.5
c20.667 -4.66699 42.167 -8.83398 64.5 -12.501s44.833 -5.5 67.5 -5.5c12.667 0 30 0.666992 52 2s39.333 3.66602 52 6.99902c24 -4.66699 48 -15.167 72 -31.5s58.333 -53.166 103 -110.499c6.66699 0.666992 10.167 3.5 10.5 8.5s0.166016 8.16699 -0.500977 9.5
c-11.333 24.667 -24.333 48.334 -39 71.001s-30.334 44.334 -47.001 65.001c-0.666992 12 3 24.167 11 36.5s18.333 20.833 31 25.5c8 -2 16 -3.5 24 -4.5s14.667 -1.5 20 -1.5zM680.003 470.005c-2 -0.666992 -4.16992 -0.168945 -6.50293 1.49805
s-3.83301 5.16699 -4.5 10.5c0 12 4.83301 21.5 14.5 28.5s20.834 12.833 33.501 17.5l2 12.5c0.666992 4.33301 0.333984 8.16602 -0.999023 11.499c-7.33301 -1.33301 -18 -2.16602 -32 -2.49902s-24.667 -0.5 -32 -0.5c-14.667 0 -29.667 0.833008 -45 2.5
s-31.333 4.16699 -48 7.5c0 -16.667 3 -33.167 9 -49.5s15.333 -29.833 28 -40.5c8.66699 0 15.334 -1.83301 20.001 -5.5s7 -9.16699 7 -16.5c0 -5.33301 -1.5 -9.66602 -4.5 -12.999s-7.83301 -5.33301 -14.5 -6h20c-3.33301 -17.333 -5.5 -46.5 -6.5 -87.5
s-1.5 -84.5 -1.5 -130.5v-136c0.666992 -18.667 5.16699 -30.167 13.5 -34.5s21.833 -6.5 40.5 -6.5h255c25.333 0 46.5 5.5 63.5 16.5s25.5 29.833 25.5 56.5c0 25.333 -9.33301 44.666 -28 57.999s-43.334 26.333 -74.001 39
c-31.333 12.667 -57.166 26.834 -77.499 42.501s-30.5 38.834 -30.5 69.501c0 32.667 10.5 58.834 31.5 78.501s47.5 32.167 79.5 37.5c-29.333 38.667 -54.166 67 -74.499 85s-40.5 29.667 -60.5 35c-1.33301 -6.66699 -3.5 -13.5 -6.5 -20.5s-5.83301 -12.833 -8.5 -17.5
c-2 -3.33301 -3.83301 -5.83301 -5.5 -7.5s-3.83398 -2.83398 -6.50098 -3.50098c-14 -4.66699 -26.833 -9.66699 -38.5 -15zM390 172.003l-76 175l-77 -175h153zM176 0.00292969l-56.002 0.00683594c11.333 20.667 23.166 44.667 35.499 72l40.5 92l97 212
c-2 8 -4.5 15.5 -7.5 22.5s-5.83301 12.833 -8.5 17.5c6.66699 2 13.167 4.16699 19.5 6.5l19.5 7.5c-0.666992 2.66699 -1.33398 5.83398 -2.00098 9.50098s-1 7.16699 -1 10.5c0 15.333 3.16699 33 9.5 53s11.833 36.333 16.5 49c20.667 17.333 35.834 31.333 45.501 42
s14.5 26 14.5 46v10.5c0 4.33301 -0.333008 8.83301 -1 13.5c-8.66699 -2.66699 -18.167 -4.5 -28.5 -5.5s-20.5 -1.5 -30.5 -1.5c-26.667 0 -53.834 3.5 -81.501 10.5s-52.5 16 -74.5 27s-40 23.333 -54 37s-21 26.834 -21 39.501c0 3.33301 0.833008 7 2.5 11
s3.83398 7.33301 6.50098 10c34 -24.667 67.833 -44.334 101.5 -59.001s68.5 -22 104.5 -22c16.667 0 33.334 1.5 50.001 4.5s34 7.83301 52 14.5c24.667 22.667 51.167 38.167 79.5 46.5s57.833 12.5 88.5 12.5c26 0 52.167 -3.83301 78.5 -11.5
s51.833 -17.834 76.5 -30.501c2.66699 0.666992 5.5 1 8.5 1h9.5c8.66699 0 17.5 -0.5 26.5 -1.5s18.5 -1.83301 28.5 -2.5l18 15.5c6 5 12 9.16699 18 12.5c-0.666992 14.667 0.166016 28.667 2.49902 42s6.5 25 12.5 35c8.66699 -2.66699 18.167 -9 28.5 -19
s17.833 -19.333 22.5 -28c4.66699 0.666992 9.33398 1.16699 14.001 1.5s9.33398 0.5 14.001 0.5c6.66699 8.66699 13.334 16.167 20.001 22.5s16 13.166 28 20.499c4.66699 -7.33301 7.66699 -17.333 9 -30s1.66602 -23.334 0.999023 -32.001
c8.66699 -7.33301 14.834 -16.333 18.501 -27s5.5 -22.334 5.5 -35.001c0 -32.667 -7.66699 -56.834 -23 -72.501s-34.333 -23.5 -57 -23.5c-7.33301 0 -14.666 0.5 -21.999 1.5s-14.333 2.83301 -21 5.5c-6.66699 -2.66699 -12 -7.83398 -16 -15.501s-6 -13.5 -6 -17.5
c6.66699 -12.667 17.334 -30.834 32.001 -54.501s29.667 -49.834 45 -78.501c4 -7.33301 6.16699 -13.833 6.5 -19.5s-0.833984 -10.834 -3.50098 -15.501c14.667 -0.666992 29.834 -3.33398 45.501 -8.00098s29.834 -11.334 42.501 -20.001
c-4.66699 -7.33301 -9 -15.666 -13 -24.999s-7.33301 -19 -10 -29c-12 18 -25.833 32.5 -41.5 43.5s-31.834 16.5 -48.501 16.5c-22.667 0 -41.834 -7 -57.501 -21s-23.5 -33.333 -23.5 -58c0 -26.667 9.66699 -46.334 29 -59.001s44.333 -24.334 75 -35.001
c32.667 -12.667 58.667 -27.667 78 -45s29 -39 29 -65c0 -46 -16.333 -78.833 -49 -98.5s-70.334 -29.5 -113.001 -29.5h-354c4 15.333 7 40.5 9 75.5s3 72.167 3 111.5c0 48 -0.5 95 -1.5 141s-3.83301 79.333 -8.5 100h32c-12.667 0.666992 -24.5 5.83398 -35.5 15.501
s-20.833 20.834 -29.5 33.501s-15.834 26.334 -21.501 41.001s-9.5 27.334 -11.5 38.001c-38.667 -12.667 -66.667 -29.667 -84 -51s-27.333 -37.333 -30 -48c2 -6 2.66699 -11.833 2 -17.5s-2.66699 -10.834 -6 -15.501
c-2.66699 -3.33301 -6.33398 -6.16602 -11.001 -8.49902s-10 -3.5 -16 -3.5c2.66699 -9.33301 5.83398 -19.833 9.50098 -31.5s8.83398 -24.167 15.501 -37.5l98 -223l28.5 -60.5l29.5 -59.5h-78c-4.66699 24.667 -11.667 49.5 -21 74.5s-18.333 47.5 -27 67.5h-179
c-10 -24.667 -19.5 -49.5 -28.5 -74.5s-15.5 -47.5 -19.5 -67.5z" />
    <glyph glyph-name="NULL" horiz-adv-x="0" 
 />
    <glyph glyph-name="NULL" horiz-adv-x="0" 
 />
    <glyph glyph-name="CR" unicode="&#xd;" horiz-adv-x="324" 
 />
    <glyph glyph-name="space" unicode=" " horiz-adv-x="324" 
 />
    <glyph glyph-name="exclam" unicode="!" horiz-adv-x="194" 
d="M119 185h-15l-37 514c13.333 -3.33301 28.333 -5 45 -5s31.667 1.66699 45 5zM60 36c0 14.667 6 28 18 40s23.333 22.333 34 31c10.667 -8.66699 22 -19 34 -31s18 -25.333 18 -40c0 -13.333 -4.83301 -24.666 -14.5 -33.999s-22.167 -14 -37.5 -14
s-27.833 4.66699 -37.5 14s-14.5 20.666 -14.5 33.999z" />
    <glyph glyph-name="quotedbl" unicode="&#x22;" horiz-adv-x="245" 
d="M178 515c-2 42 -6.16699 81.833 -12.5 119.5s-14.833 69.834 -25.5 96.501c6.66699 -2 13.667 -3.33301 21 -4s15 -1 23 -1c7.33301 0 15 0.333008 23 1s15.667 2 23 4c-10.667 -26.667 -19.167 -58.834 -25.5 -96.501s-10.5 -77.5 -12.5 -119.5h-14zM68 515
c-2 42 -6.16699 81.833 -12.5 119.5s-14.833 69.834 -25.5 96.501c6.66699 -2 13.667 -3.33301 21 -4s15 -1 23 -1c7.33301 0 15 0.333008 23 1s15.667 2 23 4c-10.667 -26.667 -19.167 -58.834 -25.5 -96.501s-10.5 -77.5 -12.5 -119.5h-14z" />
    <glyph glyph-name="numbersign" unicode="#" horiz-adv-x="596" 
d="M355 221l40 118h-157l-43 -118h160zM280 559h38l-67 -189h158l68 189h40l-69 -189h127l-12 -31h-128l-43 -118h139l-13 -34h-136l-68 -187h-40l69 187h-158l-71 -187h-39l68 187h-131l13 34h130l44 118h-142l10 31h143z" />
    <glyph glyph-name="dollar" unicode="$" horiz-adv-x="421" 
d="M189 555c-30 -3.33301 -55.501 -14.167 -76.501 -32.5s-31.5 -42.833 -31.5 -73.5c0 -34 11.333 -59 34 -75s47.334 -27.667 74.001 -35v216zM222.999 16.999c40.667 4 70.667 17.833 90 41.5s29 51.167 29 82.5c0 38 -11.833 65.5 -35.5 82.5s-51.5 30.5 -83.5 40.5
v-247zM222.999 -9.00098l-0.00292969 -0.999023c0 -10.667 0.333008 -23.834 1 -39.501s2.33398 -27.834 5.00098 -36.501c-4 0.666992 -8 1.16699 -12 1.5s-8.33301 0.5 -13 0.5c-3.33301 0 -6.83301 -0.166992 -10.5 -0.5s-7.16699 -0.833008 -10.5 -1.5
c2.66699 8.66699 4.33398 20.667 5.00098 36s1 28.333 1 39c-36 0.666992 -69.333 5.66699 -100 15s-55 20.666 -73 33.999c8 8.66699 15 18.334 21 29.001s11.333 21.334 16 32.001c12.667 -24 28.834 -43.667 48.501 -59s48.834 -23.333 87.501 -24v258
c-40.667 11.333 -78.5 26.333 -113.5 45s-52.5 53.667 -52.5 105c0 42 14.5 76.5 43.5 103.5s69.833 43.5 122.5 49.5v2c0 10.667 -0.333008 21.667 -1 33s-2.33398 21.333 -5.00098 30c4 -0.666992 8 -1.16699 12 -1.5s8 -0.5 12 -0.5c3.33301 0 7 0.166992 11 0.5
s7.66699 0.833008 11 1.5c-2.66699 -8.66699 -4.33398 -18.667 -5.00098 -30s-1 -22.333 -1 -33c26 -0.666992 50.833 -3.5 74.5 -8.5s48.834 -15.833 75.501 -32.5c-6.66699 -7.33301 -13 -15.666 -19 -24.999s-11 -19.333 -15 -30c-10 19.333 -23.333 36 -40 50
s-42 21.667 -76 23v-226c66 -20 112.833 -41.667 140.5 -65s41.5 -56 41.5 -98c0 -43.333 -16 -82.333 -48 -117s-76.667 -54.334 -134 -59.001z" />
    <glyph glyph-name="percent" unicode="%" horiz-adv-x="742" 
d="M164 303c-50 0 -87.666 15.3359 -112.999 46.0029s-38 64.667 -38 102c0 36.667 12.167 71 36.5 103s62.5 48 114.5 48c20.667 0 39.5 -3 56.5 -9s31.5 -14 43.5 -24c25.333 -14.667 50.166 -25.334 74.499 -32.001s47.166 -10 68.499 -10
c44.667 0 83.334 12.5 116.001 37.5s49 55.167 49 90.5c0 6.66699 -1 13.5 -3 20.5s-4.33301 13.5 -7 19.5h37c4.66699 -6.66699 8.16699 -13.667 10.5 -21s3.5 -15 3.5 -23c0 -22.667 -7.83301 -45.667 -23.5 -69s-31.167 -45 -46.5 -65l-365 -517h-52l366 517
c-12.667 -4.66699 -25.5 -8 -38.5 -10s-26.5 -3 -40.5 -3c-19.333 0 -38.833 2 -58.5 6s-38.5 9.66699 -56.5 17c6 -10.667 10.5 -22.334 13.5 -35.001s4.5 -25.334 4.5 -38.001c0 -36 -12.167 -70.167 -36.5 -102.5s-62.833 -48.5 -115.5 -48.5zM164.001 321.003
c32 0 56.333 13.501 73 40.501s25 56.833 25 89.5c0 32 -8.5 62.333 -25.5 91s-41.167 43 -72.5 43s-55.333 -13.833 -72 -41.5s-25 -57.834 -25 -90.501c0 -32 8.5 -62 25.5 -90s40.833 -42 71.5 -42zM561.001 -8.99609c-50 0 -87.667 15.5 -113 46.5s-38 64.833 -38 101.5
s12.167 71 36.5 103s62.5 48 114.5 48c50 0 87.833 -15.333 113.5 -46s38.5 -64.667 38.5 -102c0 -36 -12.167 -70.167 -36.5 -102.5s-62.833 -48.5 -115.5 -48.5zM561.001 9.00391c32 0 56.168 13.5 72.501 40.5s24.5 56.833 24.5 89.5c0 32 -8.33301 62.333 -25 91
s-40.667 43 -72 43c-32 0 -56 -13.833 -72 -41.5s-24 -57.834 -24 -90.501c0 -31.333 8.16699 -61.166 24.5 -89.499s40.166 -42.5 71.499 -42.5z" />
    <glyph glyph-name="ampersand" unicode="&#x26;" horiz-adv-x="780" 
d="M388 397c-46 0 -82.334 -18.333 -109.001 -55s-45.667 -77 -57 -121l24.5 -1.5c5.66699 -0.333008 11.834 -0.5 18.501 -0.5c56 0 101.333 8.33301 136 25s52 44 52 82c0 22.667 -6.16699 40.167 -18.5 52.5s-27.833 18.5 -46.5 18.5zM45.999 387
c0 -14.667 2.83301 -27.8281 8.5 -39.4951s15.834 -20.834 30.501 -27.501v-13c-28 0 -51.333 7.16699 -70 21.5s-28 34.833 -28 61.5c0 34.667 9.33301 62.667 28 84s42.5 37.666 71.5 48.999s61 18.833 96 22.5s68.833 5.5 101.5 5.5c20 0 44.833 -0.666992 74.5 -2
s60.5 -2 92.5 -2c30.667 0 60.834 1.16699 90.501 3.5s56 6.66602 79 12.999s41.5 15.5 55.5 27.5s21 27.667 21 47c0 12 -3.16699 22.167 -9.5 30.5s-15.833 14.166 -28.5 17.499l3 12c22 -2 43.167 -9 63.5 -21s30.5 -29.333 30.5 -52c0 -21.333 -8 -39 -24 -53
s-36.667 -24.833 -62 -32.5s-54 -12.834 -86 -15.501s-63.667 -4 -95 -4h-23c60 -24.667 106.667 -58.5 140 -101.5s50 -89.5 50 -139.5c0 -35.333 -8.5 -70.5 -25.5 -105.5s-40 -66.167 -69 -93.5s-63.5 -49.5 -103.5 -66.5s-83 -25.5 -129 -25.5
c-54.667 0 -100.5 13.167 -137.5 39.5s-55.5 65.166 -55.5 116.499c0 27.333 5.5 57 16.5 89s27.333 61.667 49 89s48.5 50.166 80.5 68.499s68.667 27.5 110 27.5c42.667 0 74.667 -10 96 -30s32 -42 32 -66c0 -27.333 -9.33301 -49.333 -28 -66
s-41.334 -29.5 -68.001 -38.5s-55.667 -15 -87 -18s-59.333 -4.5 -84 -4.5h-21.5c-6.33301 0 -12.166 0.333008 -17.499 1c-2 -10 -3.66699 -19.667 -5 -29s-2 -18.666 -2 -27.999c0 -34 9.33301 -62.833 28 -86.5s52 -35.5 100 -35.5c75.333 0 137.666 24.5 186.999 73.5
s74 113.833 74 194.5c0 42.667 -8.83301 79.5 -26.5 110.5s-40.834 56.167 -69.501 75.5s-61.667 33.666 -99 42.999s-75.333 14 -114 14c-28.667 0 -57.5 -1.83301 -86.5 -5.5s-54.833 -10.667 -77.5 -21s-41.167 -24.666 -55.5 -42.999s-21.5 -42.166 -21.5 -71.499z" />
    <glyph glyph-name="quotesingle" unicode="'" horiz-adv-x="135" 
d="M68 515c-2 42 -6.16699 81.833 -12.5 119.5s-14.833 69.834 -25.5 96.501c6.66699 -2 13.667 -3.33301 21 -4s15 -1 23 -1c7.33301 0 15 0.333008 23 1s15.667 2 23 4c-10.667 -26.667 -19.167 -58.834 -25.5 -96.501s-10.5 -77.5 -12.5 -119.5h-14z" />
    <glyph glyph-name="parenleft" unicode="(" horiz-adv-x="250" 
d="M235 -113l-12 -8c-59.333 56 -110.5 122.833 -153.5 200.5s-64.5 158.167 -64.5 241.5s21.5 163.833 64.5 241.5s94.167 144.5 153.5 200.5l12 -8c-47.333 -60.667 -86 -126.167 -116 -196.5s-45 -149.5 -45 -237.5s15 -167.167 45 -237.5s68.667 -135.833 116 -196.5z
" />
    <glyph glyph-name="parenright" unicode=")" horiz-adv-x="250" 
d="M15 755l12 8c59.333 -56 110.5 -122.833 153.5 -200.5s64.5 -158.167 64.5 -241.5s-21.5 -163.833 -64.5 -241.5s-94.167 -144.5 -153.5 -200.5l-12 8c47.333 60.667 86 126.167 116 196.5s45 149.5 45 237.5s-15 167.167 -45 237.5s-68.667 135.833 -116 196.5z" />
    <glyph glyph-name="asterisk" unicode="*" horiz-adv-x="276" 
d="M138 516l-60 -46l52 125l-125 -52l46 60l-46 60l125 -52l-52 125l60 -46l60 46l-52 -125l125 52l-46 -60l46 -60l-125 52l52 -125z" />
    <glyph glyph-name="plus" unicode="+" horiz-adv-x="514" 
d="M267 501v-203h204v-39h-204v-204h-39v204h-203v39h203v203h39z" />
    <glyph glyph-name="comma" unicode="," horiz-adv-x="130" 
d="M17 35c11.333 8.66699 21.8359 18.832 31.5029 30.499s18.167 25.167 25.5 40.5c14 -10 24.333 -22.667 31 -38s10 -31.333 10 -48c0 -31.333 -10.333 -62.5 -31 -93.5s-44.334 -54.833 -71.001 -71.5l-5 10c15.333 13.333 27.166 28.166 35.499 44.499
s12.5 32.833 12.5 49.5c0 14.667 -3.33301 28.834 -10 42.501s-16.334 24.834 -29.001 33.501z" />
    <glyph glyph-name="hyphen" unicode="-" horiz-adv-x="413" 
d="M371 222h-346v39h346v-39z" />
    <glyph glyph-name="period" unicode="." horiz-adv-x="146" 
d="M126 38c0 -14 -4.5 -25.833 -13.5 -35.5s-22.167 -14.5 -39.5 -14.5s-30.5 4.83301 -39.5 14.5s-13.5 21.5 -13.5 35.5c0 14.667 5.66699 27.834 17 39.501s23.333 24.834 36 39.501c12.667 -14.667 24.667 -27.834 36 -39.501s17 -24.834 17 -39.501z" />
    <glyph glyph-name="slash" unicode="/" horiz-adv-x="342" 
d="M51 -11h-48l288 718h49z" />
    <glyph glyph-name="zero" unicode="0" horiz-adv-x="534" 
d="M505 295c0 -40 -4.99902 -78.333 -14.999 -115s-24.833 -69 -44.5 -97s-44.5 -50.5 -74.5 -67.5s-64.667 -25.833 -104 -26.5c-40 0 -75 8.33301 -105 25s-54.833 38.5 -74.5 65.5s-34.334 58 -44.001 93s-14.5 71.167 -14.5 108.5c0 40 5 78.333 15 115s25 69 45 97
s44.833 50.5 74.5 67.5s64.167 25.833 103.5 26.5c40.667 0 76 -8.33301 106 -25s54.833 -38.5 74.5 -65.5s34.167 -58.167 43.5 -93.5s14 -71.333 14 -108zM264.001 13c36 0 65.333 10.5 88 31.5s40.334 46.5 53.001 76.5s21.167 61.667 25.5 95s6.5 62.333 6.5 87
c0 35.333 -2.83301 68.833 -8.5 100.5s-15 59.334 -28 83.001s-30.333 42.334 -52 56.001s-48.167 20.5 -79.5 20.5c-30 0 -55.833 -8.16699 -77.5 -24.5s-39.334 -38 -53.001 -65s-23.667 -58 -30 -93s-9.5 -70.833 -9.5 -107.5c0 -35.333 2.83301 -68.833 8.5 -100.5
s15 -59.334 28 -83.001s30 -42.334 51 -56.001s46.833 -20.5 77.5 -20.5z" />
    <glyph glyph-name="one" unicode="1" horiz-adv-x="302" 
d="M222 0h-86.998c0.666992 6.66699 1.66699 13.667 3 21s2.66602 19.166 3.99902 35.499s2.33301 38.833 3 67.5s1 67.667 1 117v279c-14.667 -8.66699 -30.167 -18.5 -46.5 -29.5s-31.833 -20.833 -46.5 -29.5l-13 24l171 113v-357c0 -49.333 0.333008 -88.333 1 -117
s1.66699 -51.167 3 -67.5s2.66602 -28.166 3.99902 -35.499s2.33301 -14.333 3 -21z" />
    <glyph glyph-name="two" unicode="2" horiz-adv-x="485" 
d="M407 424c0 -40 -10.165 -78.6719 -30.498 -116.005s-45.833 -72.166 -76.5 -104.499s-64.334 -62.166 -101.001 -89.499s-71.667 -51.666 -105 -72.999c32.667 9.33301 66.5 14 101.5 14s69 0.666992 102 2s64 6.33301 93 15s53.5 26.334 73.5 53.001l10 -7
c-14 -38 -37 -67.833 -69 -89.5s-64.667 -32.5 -98 -32.5c-40.667 0 -81.167 2.16699 -121.5 6.5s-85.166 6.5 -134.499 6.5h-24v16c43.333 26.667 84 54.667 122 84s71.167 60.5 99.5 93.5s50.833 68.333 67.5 106s25 77.5 25 119.5c0 36 -8.5 67.333 -25.5 94
s-46.167 40 -87.5 40c-34 0 -62.667 -13 -86 -39s-38.666 -55.333 -45.999 -88c-6.66699 6 -14.334 10.833 -23.001 14.5s-18.334 6.83398 -29.001 9.50098c15.333 42 40.666 73.833 75.999 95.5s73 32.5 113 32.5c50 0 91.5 -15.167 124.5 -45.5s49.5 -69.5 49.5 -117.5z
" />
    <glyph glyph-name="three" unicode="3" horiz-adv-x="467" 
d="M395 452c0 -30.667 -10.667 -58.665 -32 -83.998s-49 -41.333 -83 -48c50 -12.667 85.333 -33.334 106 -62.001s31 -60 31 -94c0 -52.667 -17.833 -95 -53.5 -127s-85.167 -48 -148.5 -48c-40 0 -78.333 9.33301 -115 28s-62.334 46 -77.001 82
c9.33301 3.33301 18.333 7.66602 27 12.999s16.334 10.333 23.001 15c12.667 -40 31.667 -69 57 -87s53.333 -27 84 -27c46 0 79.833 15.667 101.5 47s32.5 66.333 32.5 105s-10.167 71.834 -30.5 99.501s-54.5 41.5 -102.5 41.5c-8 0 -18.667 -0.666992 -32 -2
s-23.333 -3.33301 -30 -6v41c4 -2.66699 13.833 -4.83398 29.5 -6.50098s26.834 -2.5 33.501 -2.5c38 0 66.333 12.333 85 37s28 53 28 85c0 36 -9.83301 63.5 -29.5 82.5s-44.834 28.5 -75.501 28.5c-29.333 0 -54.833 -8.5 -76.5 -25.5s-39.167 -39.5 -52.5 -67.5
c-6.66699 8 -14.167 15.167 -22.5 21.5l-22.5 16.5c20.667 26.667 47 46.5 79 59.5s63.333 19.5 94 19.5c56.667 0 99.5 -13.5 128.5 -40.5s43.5 -58.5 43.5 -94.5z" />
    <glyph glyph-name="four" unicode="4" horiz-adv-x="480" 
d="M360 0h-82.0029c2.66699 12.667 4.83398 30.334 6.50098 53.001s2.5 43.334 2.5 62.001v49h-285l349 435v-395c20.667 0.666992 40.167 3.16699 58.5 7.5s34.5 9.5 48.5 15.5l8 -12c-22.667 -18.667 -43.167 -31 -61.5 -37s-36.166 -10.667 -53.499 -14v-49
c0 -18.667 0.833008 -39.334 2.5 -62.001s3.83398 -40.334 6.50098 -53.001zM286.997 473l-217 -269h217v269z" />
    <glyph glyph-name="five" unicode="5" horiz-adv-x="445" 
d="M252 529l-140.999 0.000976562l-24 -188c20.667 11.333 42.167 20 64.5 26s44.166 9 65.499 9c51.333 0 96.5 -16.833 135.5 -50.5s58.5 -79.834 58.5 -138.501c0 -52 -17.667 -98 -53 -138s-85.666 -60 -150.999 -60c-40 0 -76.167 9.66699 -108.5 29
s-56.833 46.333 -73.5 81c10 4 18.833 8 26.5 12s15.5 9.33301 23.5 16c11.333 -40 29.166 -69 53.499 -87s49.833 -27 76.5 -27c24.667 0 45.667 5.66699 63 17s31.5 25.5 42.5 42.5s19 36.167 24 57.5s7.5 42 7.5 62c0 42.667 -10.667 79.5 -32 110.5
s-56.333 46.5 -105 46.5c-27.333 0 -54.833 -7 -82.5 -21s-50.5 -28.333 -68.5 -43l37 295h286l11 -79c-16 10.667 -36.833 18 -62.5 22s-50.167 6 -73.5 6z" />
    <glyph glyph-name="six" unicode="6" horiz-adv-x="511" 
d="M450 521c-9.33301 -6 -17.1699 -12.333 -23.5029 -19s-12.166 -13.334 -17.499 -20.001c-18 28.667 -36.5 49.334 -55.5 62.001s-39.833 19 -62.5 19c-32.667 0 -59.834 -10 -81.501 -30s-38.667 -44.167 -51 -72.5s-21 -58.666 -26 -90.999s-7.5 -60.833 -7.5 -85.5
c18.667 36 43 62.167 73 78.5s61.333 24.5 94 24.5c58 0 103.333 -19 136 -57s49 -84.333 49 -139c0 -52.667 -16.667 -99.5 -50 -140.5s-83.666 -61.5 -150.999 -61.5c-72 0 -126 25.833 -162 77.5s-54 116.5 -54 194.5c0 99.333 22.167 178.5 66.5 237.5
s100.833 88.5 169.5 88.5c26.667 0 53.834 -5.33301 81.501 -16s51.834 -27.334 72.501 -50.001zM283.996 359c-44 0 -80.5 -16.166 -109.5 -48.499s-44.167 -67.5 -45.5 -105.5c4.66699 -60.667 20.167 -107.834 46.5 -141.501s59.5 -50.5 99.5 -50.5
c48 0 82.5 18.667 103.5 56s31.5 78.333 31.5 123c0 48 -10.5 87.833 -31.5 119.5s-52.5 47.5 -94.5 47.5z" />
    <glyph glyph-name="seven" unicode="7" horiz-adv-x="365" 
d="M338 529l-171.994 0.000976562c-28 0 -54.833 -2.83301 -80.5 -8.5s-46.834 -13.167 -63.501 -22.5l13 82h366c-50.667 -72.667 -91.334 -135.834 -122.001 -189.501s-54.334 -102 -71.001 -145s-28.334 -83.833 -35.001 -122.5s-11.334 -79.667 -14.001 -123h-68
c4 50 12.167 96 24.5 138s28.666 83.167 48.999 123.5s45 82 74 125z" />
    <glyph glyph-name="eight" unicode="8" horiz-adv-x="476" 
d="M240 587c42.667 0 80.501 -12.167 113.501 -36.5s49.5 -56.833 49.5 -97.5c0 -31.333 -11.333 -57.833 -34 -79.5s-49.334 -38.834 -80.001 -51.501c38 -19.333 72.667 -42 104 -68s47 -61.333 47 -106c0 -50 -20.333 -89 -61 -117s-88.667 -42 -144 -42
c-52 0 -98.167 14.167 -138.5 42.5s-60.5 70.5 -60.5 126.5c0 38 13.667 70.333 41 97s59.666 46.334 96.999 59.001c-29.333 16.667 -54.666 35.5 -75.999 56.5s-32 48.5 -32 82.5c0 42 18 74.833 54 98.5s76 35.5 120 35.5zM346.001 461
c0 33.333 -10.167 59.168 -30.5 77.501s-45.833 27.5 -76.5 27.5c-35.333 0 -63.5 -9.16699 -84.5 -27.5s-31.5 -40.5 -31.5 -66.5c0 -34 15.667 -61.833 47 -83.5s64.333 -40.834 99 -57.501c26.667 14 46.167 33 58.5 57s18.5 48.333 18.5 73zM195.001 304.002
c-30.667 -14 -54 -34.834 -70 -62.501s-24 -56.5 -24 -86.5c0 -42 12.333 -76.5 37 -103.5s57.667 -40.5 99 -40.5c47.333 0 83 12.833 107 38.5s36 51.834 36 78.501c0 42 -16 74.5 -48 97.5s-67 43.833 -105 62.5z" />
    <glyph glyph-name="nine" unicode="9" horiz-adv-x="496" 
d="M220 218c37.333 0 70.666 14.833 99.999 44.5s46 65.5 50 107.5c-5.33301 68 -20.666 117.167 -45.999 147.5s-57.666 45.5 -96.999 45.5c-45.333 0 -78.333 -18.5 -99 -55.5s-31 -77.833 -31 -122.5s10.167 -83.667 30.5 -117s51.166 -50 92.499 -50zM51 65
c8.66699 4.66699 16.334 10.166 23.001 16.499s12.334 13.5 17.001 21.5c16 -29.333 35.833 -51.666 59.5 -66.999s48.167 -23 73.5 -23c29.333 0 53.5 8.33301 72.5 25s34 38.167 45 64.5s18.667 56.166 23 89.499s6.83301 66.666 7.5 99.999
c-16 -34.667 -39.333 -60.667 -70 -78s-61 -26 -91 -26c-61.333 0 -106.833 19.667 -136.5 59s-44.5 82.666 -44.5 129.999c0 56.667 17.333 105.834 52 147.501s84 62.5 148 62.5c71.333 0 123.5 -25.333 156.5 -76s49.5 -114.667 49.5 -192
c0 -47.333 -4.5 -91.166 -13.5 -131.499s-22.167 -75.166 -39.5 -104.499s-39.333 -52.333 -66 -69s-57.334 -25 -92.001 -25c-30 0 -60.333 6 -91 18s-58.334 31.333 -83.001 58z" />
    <glyph glyph-name="colon" unicode=":" horiz-adv-x="175" 
d="M155 407c-14.667 -8 -27.334 -18 -38.001 -30s-20.334 -25 -29.001 -39c-8.66699 14 -18.5 27 -29.5 39s-23.833 22 -38.5 30c14.667 8.66699 27.5 19 38.5 31s20.833 25 29.5 39c8.66699 -14 18.334 -27 29.001 -39s23.334 -22.333 38.001 -31zM141 38
c0 -14 -4.5 -25.833 -13.5 -35.5s-22.167 -14.5 -39.5 -14.5s-30.5 4.83301 -39.5 14.5s-13.5 21.5 -13.5 35.5c0 14.667 5.66699 27.834 17 39.501s23.333 24.834 36 39.501c12.667 -14.667 24.667 -27.834 36 -39.501s17 -24.834 17 -39.501z" />
    <glyph glyph-name="semicolon" unicode=";" horiz-adv-x="158" 
d="M143 407c-14.667 -8 -27.334 -18 -38.001 -30s-20.334 -25 -29.001 -39c-8.66699 14 -18.5 27 -29.5 39s-23.833 22 -38.5 30c14.667 8.66699 27.5 19 38.5 31s20.833 25 29.5 39c8.66699 -14 18.334 -27 29.001 -39s23.334 -22.333 38.001 -31zM38 35
c11.333 8.66699 21.8359 18.832 31.5029 30.499s18.167 25.167 25.5 40.5c14 -10 24.333 -22.667 31 -38s10 -31.333 10 -48c0 -31.333 -10.333 -62.5 -31 -93.5s-44.334 -54.833 -71.001 -71.5l-5 10c15.333 13.333 27.166 28.166 35.499 44.499s12.5 32.833 12.5 49.5
c0 14.667 -3.33301 28.834 -10 42.501s-16.334 24.834 -29.001 33.501z" />
    <glyph glyph-name="less" unicode="&#x3c;" horiz-adv-x="434" 
d="M379 98l-377 176v23l377 178l18 -41l-338 -148l338 -148z" />
    <glyph glyph-name="equal" unicode="=" horiz-adv-x="508" 
d="M471 312l-446 -0.000976562c2 5.33301 3 11.5 3 18.5s-1 13.167 -3 18.5h446c-2 -5.33301 -3 -11.666 -3 -18.999s1 -13.333 3 -18zM471 209.999l-446 -0.000976562c2 5.33301 3 11.5 3 18.5s-1 13.167 -3 18.5h446c-2 -5.33301 -3 -11.666 -3 -18.999s1 -13.333 3 -18z
" />
    <glyph glyph-name="greater" unicode="&#x3e;" horiz-adv-x="433" 
d="M432 274l-377 -176l-18 40l338 148l-338 148l18 41l377 -178v-23z" />
    <glyph glyph-name="question" unicode="?" horiz-adv-x="329" 
d="M38 584c-2.66699 10.667 -7.00195 21.6611 -13.002 32.9941s-13.333 20.333 -22 27c22.667 18.667 48.334 33.334 77.001 44.001s60 16 94 16c34.667 0 68.334 -9 101.001 -27s49 -48 49 -90c0 -32.667 -10 -61.667 -30 -87s-42 -49 -66 -71s-46 -43.667 -66 -65
s-30 -44.666 -30 -69.999c0 -22 6.83301 -39.333 20.5 -52s30.834 -19 51.501 -19c4.66699 0 9.5 0.333008 14.5 1l14.5 2l4 -15c-6.66699 -3.33301 -15 -5.83301 -25 -7.5s-19.333 -2.5 -28 -2.5c-30 0 -54.833 10.5 -74.5 31.5s-29.5 45.5 -29.5 73.5
c0 32 9.66699 59.833 29 83.5s40.666 45.834 63.999 66.501s44.666 41.834 63.999 63.501s29 46.834 29 75.501c0 30.667 -10 52.334 -30 65.001s-40 19 -60 19c-28 0 -54.167 -8.83301 -78.5 -26.5s-44.166 -40.5 -59.499 -68.5zM112.998 35.9941c0 14.667 6 28 18 40
s23.333 22.333 34 31c10.667 -8.66699 22 -19 34 -31s18 -25.333 18 -40c0 -13.333 -4.83301 -24.666 -14.5 -33.999s-22.167 -14 -37.5 -14s-27.833 4.66699 -37.5 14s-14.5 20.666 -14.5 33.999z" />
    <glyph glyph-name="at" unicode="@" horiz-adv-x="656" 
d="M515 363l-0.00195312 18.002c0 43.333 -14.833 73.833 -44.5 91.5s-62.834 26.5 -99.501 26.5c-45.333 0 -85.166 -8.16699 -119.499 -24.5s-63 -38.166 -86 -65.499s-40.5 -59 -52.5 -95s-18 -73 -18 -111c1.33301 -87.333 25.5 -152.666 72.5 -195.999
s110.167 -65 189.5 -65c36 0 70.833 5.66699 104.5 17s66.167 25 97.5 41l7 -15c-38 -26 -79.333 -46 -124 -60s-90 -21 -136 -21c-88.667 0 -157.167 26.667 -205.5 80s-72.5 120.333 -72.5 201c0 45.333 8 88.666 24 129.999s39.167 77.666 69.5 108.999s68 56.333 113 75
s96.5 28 154.5 28c47.333 0 89.666 -11.667 126.999 -35s57 -70.666 59 -141.999v-162c0 -16.667 3.33301 -32.5 10 -47.5s22.334 -24.5 47.001 -28.5v-16c-4.66699 -0.666992 -9 -1.16699 -13 -1.5s-8.33301 -0.5 -13 -0.5c-22.667 0 -42.667 6 -60 18s-26.333 33 -27 63
c-24.667 -26.667 -50.667 -46.834 -78 -60.501s-57.666 -20.5 -90.999 -20.5c-36.667 0 -64.5 10.167 -83.5 30.5s-28.5 45.166 -28.5 74.499c0 37.333 11.833 64.666 35.5 81.999s50.834 30 81.501 38s61.5 14.333 92.5 19s53.5 13 67.5 25zM514.998 206.002
l0.000976562 129.001c-19.333 -11.333 -41.5 -18.833 -66.5 -22.5s-48.333 -8.5 -70 -14.5s-40 -15.333 -55 -28s-22.5 -33.334 -22.5 -62.001c0 -30 8 -50.667 24 -62s33 -17 51 -17c30.667 0 58.167 8.16699 82.5 24.5s43.166 33.833 56.499 52.5z" />
    <glyph glyph-name="A" unicode="A" horiz-adv-x="602" 
d="M414 244l-127 289l-128 -289h255zM144 210c-18 -41.333 -33.835 -80.999 -47.502 -118.999s-21.5 -68.333 -23.5 -91h-68c17.333 31.333 34.666 66.166 51.999 104.499l54 120.5l146 323c6.66699 15.333 7.83398 28.5 3.50098 39.5s-9.83301 21.833 -16.5 32.5l67 34
c4.66699 -16.667 11.334 -36.5 20.001 -59.5s20.334 -51.5 35.001 -85.5l148 -336c12.667 -29.333 26.167 -58.833 40.5 -88.5l42.5 -84.5h-94c-4 34 -14.167 70.667 -30.5 110l-42.5 100h-286z" />
    <glyph glyph-name="B" unicode="B" horiz-adv-x="578" 
d="M321 0l-211 -0.000976562c6 22.667 9.66699 54.834 11 96.501s2 91.167 2 148.5v144c0 57.333 -0.666992 106.833 -2 148.5s-5 73.834 -11 96.501h189c64 0 111.5 -13.333 142.5 -40s46.5 -60.334 46.5 -101.001c0 -31.333 -10.5 -61.5 -31.5 -90.5
s-52.167 -48.167 -93.5 -57.5v-2c59.333 -8.66699 101.666 -27.667 126.999 -57s38 -64.333 38 -105c0 -54.667 -20.167 -98.5 -60.5 -131.5s-89.166 -49.5 -146.499 -49.5zM182 540.999v-160c0 -12 1.83301 -19.833 5.5 -23.5s8.83398 -5.5 15.501 -5.5h84
c41.333 0 74.166 13.5 98.499 40.5s36.5 59.167 36.5 96.5c0 28.667 -10.833 55.5 -32.5 80.5s-56.167 37.5 -103.5 37.5h-40c-23.333 0 -39.833 -5 -49.5 -15s-14.5 -27 -14.5 -51zM182 322.999v-230c0 -24 4.83301 -41 14.5 -51s26.167 -15 49.5 -15h45
c52 0 92.833 14.667 122.5 44s44.5 66 44.5 110c0 48.667 -16.667 84.5 -50 107.5s-74 34.5 -122 34.5h-104z" />
    <glyph glyph-name="C" unicode="C" horiz-adv-x="665" 
d="M597 94c3.33301 -10.667 7.16602 -20.332 11.499 -28.999s8.83301 -15.667 13.5 -21c-32 -19.333 -69.5 -34.333 -112.5 -45s-85.5 -16 -127.5 -16c-100.667 0 -181.167 30 -241.5 90s-90.5 137 -90.5 231c0 102 30.333 184 91 246s142.667 93 246 93
c40 0 82 -4.83301 126 -14.5s83.333 -25.5 118 -47.5c-8 -11.333 -14.667 -22.333 -20 -33s-10 -21.334 -14 -32.001c-24 28.667 -54.333 52.667 -91 72s-76.334 29 -119.001 29c-44 0 -82.667 -8.5 -116 -25.5s-60.833 -39.667 -82.5 -68s-38 -61 -49 -98
s-16.5 -75.5 -16.5 -115.5c0 -47.333 7.5 -89.5 22.5 -126.5s34.833 -68 59.5 -93s52.834 -44 84.501 -57s63.834 -19.5 96.501 -19.5c36 0 72 6.83301 108 20.5s70.333 33.5 103 59.5z" />
    <glyph glyph-name="D" unicode="D" horiz-adv-x="732" 
d="M307 0l-197.002 -0.00195312c6 22.667 9.66699 54.834 11 96.501s2 91.167 2 148.5v144c0 57.333 -0.666992 106.833 -2 148.5s-5 73.834 -11 96.501h215c114.667 0 202.834 -29.333 264.501 -88s92.5 -137 92.5 -235c0 -92.667 -30.667 -167.667 -92 -225
s-155.666 -86 -282.999 -86zM245.998 27.998h41c108.667 0 189.5 25.167 242.5 75.5s79.5 119.5 79.5 207.5c0 89.333 -25.5 160.833 -76.5 214.5s-132.167 80.5 -243.5 80.5h-43c-23.333 0 -39.833 -5 -49.5 -15s-14.5 -27 -14.5 -51v-446c0 -24 4.83301 -41 14.5 -51
s26.167 -15 49.5 -15z" />
    <glyph glyph-name="E" unicode="E" horiz-adv-x="547" 
d="M411 0l-300.999 -0.00195312c6 22.667 9.66699 54.834 11 96.501s2 91.167 2 148.5v144c0 57.333 -0.666992 106.833 -2 148.5s-5 73.834 -11 96.501h360l10 -74c-20 12.667 -46.5 23 -79.5 31s-66.5 12 -100.5 12h-47c-22.667 0 -40 -3 -52 -9s-18 -25 -18 -57v-154
c0 -12 1.66699 -20 5 -24s8.66602 -5.66699 15.999 -5l239 6v-42l-239 7c-7.33301 0 -12.666 -2.33301 -15.999 -7s-5 -12 -5 -22v-199c0 -32 6 -51 18 -57s29.333 -9 52 -9h56c24.667 0 53.667 3.33301 87 10s63.666 17.667 90.999 33l-11 -78
c-10 1.33301 -20.333 2.33301 -31 3s-22 1 -34 1z" />
    <glyph glyph-name="F" unicode="F" horiz-adv-x="538" 
d="M193 0l-83 -0.00292969c6 22.667 9.66699 54.834 11 96.501s2 91.167 2 148.5v144c0 57.333 -0.666992 106.833 -2 148.5s-5 73.834 -11 96.501h368l10 -76c-20 12.667 -44.667 23 -74 31s-57.333 12 -84 12h-78c-22.667 0 -40 -3 -52 -9s-18 -25 -18 -57v-156
c0 -11.333 1.66699 -19.166 5 -23.499s8.66602 -6.16602 15.999 -5.49902l229 7v-44l-229 8c-7.33301 0.666992 -12.666 -1.33301 -15.999 -6s-5 -14.334 -5 -29.001c0 -60 0.833008 -117 2.5 -171s4.5 -92.333 8.5 -115z" />
    <glyph glyph-name="G" unicode="G" horiz-adv-x="694" 
d="M50 313c0 97.333 31.0039 176.667 93.0039 238s143.333 92 244 92c40 0 82 -4.83301 126 -14.5s83.333 -25.5 118 -47.5c-8 -11.333 -14.667 -22.333 -20 -33s-10 -21.334 -14 -32.001c-23.333 27.333 -53.5 51 -90.5 71s-76.833 30 -119.5 30
c-44 0 -82.5 -8.5 -115.5 -25.5s-60.5 -39.5 -82.5 -67.5s-38.5 -60.333 -49.5 -97s-16.5 -74.667 -16.5 -114c0 -40.667 5.66699 -79.167 17 -115.5s28 -68 50 -95s49.667 -48.5 83 -64.5s71.666 -24 114.999 -24c34 0 68.333 5.16699 103 15.5s63.334 29.5 86.001 57.5
c-0.666992 45.333 -1.83398 84 -3.50098 116s-4.83398 58 -9.50098 78h80c-4.66699 -18 -8 -39.667 -10 -65s-3 -56 -3 -92v-74c-38.667 -22 -79.334 -38.667 -122.001 -50s-86.334 -17 -131.001 -17c-98 0 -177.167 29.333 -237.5 88s-90.5 139.334 -90.5 242.001z" />
    <glyph glyph-name="H" unicode="H" horiz-adv-x="752" 
d="M552 308h-352c-6.66699 0 -11.167 -0.833008 -13.5 -2.5s-3.5 -5.83398 -3.5 -12.501v-55c0 -55.333 0.666992 -103.166 2 -143.499s5 -71.833 11 -94.5h-86c6 22.667 9.66699 54.834 11 96.501s2 91.167 2 148.5v144c0 57.333 -0.666992 106.833 -2 148.5
s-5 73.834 -11 96.501h86c-6 -22.667 -9.66699 -54.834 -11 -96.501s-2 -91.167 -2 -148.5v-32c0 -6.66699 1.16699 -10.834 3.5 -12.501s6.83301 -2.5 13.5 -2.5h352c6.66699 0 11.167 0.833008 13.5 2.5s3.5 5.83398 3.5 12.501v32c0 57.333 -0.666992 106.833 -2 148.5
s-5 73.834 -11 96.501h86c-6 -22.667 -9.66699 -54.834 -11 -96.501s-2 -91.167 -2 -148.5v-144c0 -57.333 0.666992 -106.833 2 -148.5s5 -73.834 11 -96.501h-86c6 22.667 9.66699 54.167 11 94.5s2 88.166 2 143.499v55c0 6.66699 -1.16699 10.834 -3.5 12.501
s-6.83301 2.5 -13.5 2.5z" />
    <glyph glyph-name="I" unicode="I" horiz-adv-x="316" 
d="M188 389v-151.002c0 -55.333 0.666992 -103.166 2 -143.499s5 -71.833 11 -94.5h-86c6 22.667 9.66699 54.834 11 96.501s2 91.167 2 148.5v144c0 57.333 -0.666992 106.833 -2 148.5s-5 73.834 -11 96.501h86c-6 -22.667 -9.66699 -54.834 -11 -96.501
s-2 -91.167 -2 -148.5z" />
    <glyph glyph-name="J" unicode="J" horiz-adv-x="274" 
d="M184 634c-6 -22.667 -9.66699 -54.832 -11 -96.499s-2 -91.167 -2 -148.5v-297c0 -25.333 -1.5 -52 -4.5 -80s-10 -53.5 -21 -76.5s-27.667 -42.167 -50 -57.5s-52.833 -23 -91.5 -23l-2 25c44 5.33301 72.833 26.166 86.5 62.499s21.167 101.166 22.5 194.499v252
c0 57.333 -0.666992 106.833 -2 148.5s-5 73.834 -11 96.501h86z" />
    <glyph glyph-name="K" unicode="K" horiz-adv-x="601" 
d="M183 314v-76.001c0 -55.333 0.666992 -103.166 2 -143.499s5 -71.833 11 -94.5h-86c6 22.667 9.66699 54.834 11 96.501s2 91.167 2 148.5v144c0 57.333 -0.666992 106.833 -2 148.5s-5 73.834 -11 96.501h86c-6 -22.667 -9.66699 -54.834 -11 -96.501
s-2 -91.167 -2 -148.5v-37c0 -6 1.5 -9.83301 4.5 -11.5s6.83301 -2.5 11.5 -2.5c13.333 0 24.5 2.33301 33.5 7s21.833 16 38.5 34l65 77l72.5 85c27.667 32 47.834 63 60.501 93h106c-32 -22.667 -64.333 -49.834 -97 -81.501s-65.334 -65.5 -98.001 -101.5l-98 -108
l213 -231l62.5 -66.5l43.5 -45.5h-97c-7.33301 13.333 -17.166 27.833 -29.499 43.5l-37.5 45.5l-170 188c-14.667 16 -27.334 26.167 -38.001 30.5s-26 6.5 -46 6.5z" />
    <glyph glyph-name="L" unicode="L" 
d="M434 0l-323.999 -0.00292969c6 22.667 9.66699 54.834 11 96.501s2 91.167 2 148.5v144c0 57.333 -0.666992 106.833 -2 148.5s-5 73.834 -11 96.501h86c-6 -22.667 -9.66699 -54.834 -11 -96.501s-2 -91.167 -2 -148.5v-290c0.666992 -31.333 7.5 -50.166 20.5 -56.499
s34.833 -9.5 65.5 -9.5h52c40 1.33301 79.833 6.33301 119.5 15s74.5 23.334 104.5 44.001l-22 -96c-12.667 2 -26.834 3.16699 -42.501 3.5s-31.167 0.5 -46.5 0.5z" />
    <glyph glyph-name="M" unicode="M" horiz-adv-x="882" 
d="M120 324l39.9961 315.001h8l276 -523l254 523h8l58 -368l27.5 -164.5c8.33301 -49.667 16.833 -85.167 25.5 -106.5h-88c2 22.667 0 56.167 -6 100.5s-13.333 93.166 -22 146.499l-39 239l-229 -472h-11l-249 472l-19 -164l-10 -94
c-3.33301 -32.667 -6.16602 -63.5 -8.49902 -92.5s-3.66602 -55.5 -3.99902 -79.5s0.833984 -42.667 3.50098 -56h-70c4 12 8.5 30 13.5 54s9.83301 50.833 14.5 80.5s9.33398 61 14.001 94z" />
    <glyph glyph-name="N" unicode="N" horiz-adv-x="764" 
d="M126 493v144h12l468 -523v27c0 28.667 0.166992 67.334 0.5 116.001s0 98 -1 148s-2.66699 96.333 -5 139s-5.83301 72.667 -10.5 90h64c-4.66699 -17.333 -8.16699 -47.333 -10.5 -90s-4 -89 -5 -139s-1.33301 -99.333 -1 -148s0.5 -87.334 0.5 -116.001v-145h-12
l-468 523v-26c0 -28.667 -0.166992 -67.334 -0.5 -116.001s0 -98 1 -148s2.66699 -96.333 5 -139s5.83301 -72.667 10.5 -90h-64c4.66699 17.333 8.16699 47.333 10.5 90s4 89 5 139s1.33301 99.333 1 148s-0.5 87.334 -0.5 116.001z" />
    <glyph glyph-name="O" unicode="O" horiz-adv-x="786" 
d="M736 320c0 -46 -8 -89.5 -24 -130.5s-38.833 -76.667 -68.5 -107s-65.834 -54.5 -108.501 -72.5s-90 -27 -142 -27c-55.333 0 -104.333 8.83301 -147 26.5s-78.5 41.334 -107.5 71.001s-51 64.167 -66 103.5s-22.5 80 -22.5 122c0 46 8 89.5 24 130.5
s38.833 76.667 68.5 107s65.834 54.5 108.501 72.5s90 27 142 27c55.333 0 104.333 -8.83301 147 -26.5s78.5 -41.334 107.5 -71.001s51 -64.167 66 -103.5s22.5 -80 22.5 -122zM123 314c0 -38 6 -75.3369 18 -112.004s29.333 -69.167 52 -97.5
s50.834 -51.166 84.501 -68.499s72.167 -26 115.5 -26c46 0 86 8.83301 120 26.5s62 40.834 84 69.501s38.5 61 49.5 97s16.5 72 16.5 108c0 38 -6 75.333 -18 112s-29.333 69.334 -52 98.001s-50.834 51.667 -84.501 69s-72.167 26 -115.5 26c-46 0 -86 -9 -120 -27
s-62 -41.167 -84 -69.5s-38.5 -60.666 -49.5 -96.999s-16.5 -72.5 -16.5 -108.5z" />
    <glyph glyph-name="P" unicode="P" horiz-adv-x="567" 
d="M184 541l-0.000976562 -239c14.667 -6.66699 31.334 -11 50.001 -13s35.667 -3 51 -3c52 0 94.5 14.333 127.5 43s49.5 71 49.5 127c0 52 -15.833 90.167 -47.5 114.5s-84.167 36.5 -157.5 36.5c-19.333 -0.666992 -36.333 -5 -51 -13s-22 -25.667 -22 -53zM196.999 0
l-86.998 -0.00195312c6 22.667 9.66699 54.834 11 96.501s2 91.167 2 148.5v144c0 57.333 -0.666992 106.833 -2 148.5s-5 73.834 -11 96.501h211c73.333 0 127.666 -17.667 162.999 -53s53 -78.333 53 -129c0 -35.333 -7.33301 -65.666 -22 -90.999
s-33.667 -45.833 -57 -61.5s-49.833 -27.167 -79.5 -34.5s-59.834 -11 -90.501 -11c-16.667 0 -34.5 1 -53.5 3s-35.833 5 -50.5 9v-21c0 -57.333 0.666992 -106.833 2 -148.5s5 -73.834 11 -96.501z" />
    <glyph glyph-name="Q" unicode="Q" horiz-adv-x="754" 
d="M443 -30c26 -22 50.668 -44.998 74.001 -68.998s46.833 -45.667 70.5 -65s48.167 -35.333 73.5 -48s52.666 -19 81.999 -19c16 0 33.5 2.66699 52.5 8s35.167 13.333 48.5 24l10 -15c-18.667 -23.333 -41.5 -39.833 -68.5 -49.5s-52.833 -14.5 -77.5 -14.5
c-36.667 0 -69.667 7.33301 -99 22s-56.166 33.167 -80.499 55.5s-47.5 46.833 -69.5 73.5s-44.333 52.334 -67 77.001c-20.667 -6.66699 -41.667 -11.667 -63 -15s-42.666 -5 -63.999 -5c-46 0 -88 6.5 -126 19.5s-57 35.5 -57 67.5c0 20.667 9.16699 36 27.5 46
s42.166 15 71.499 15c48.667 0 92.167 -8.16699 130.5 -24.5s73.166 -36.833 104.499 -61.5c63.333 30.667 113.666 77.167 150.999 139.5s56 132.166 56 209.499c0 79.333 -22.167 145.5 -66.5 198.5s-106.5 79.5 -186.5 79.5c-72 0 -131.5 -23.333 -178.5 -70
s-70.5 -109.667 -70.5 -189c1.33301 -55.333 16.5 -102.666 45.5 -141.999s69.5 -59 121.5 -59c42 0 74.833 15.5 98.5 46.5s35.5 67.5 35.5 109.5c0 18 -2.66699 35.167 -8 51.5s-13 31.166 -23 44.499l12 10c20.667 -12.667 36.667 -29.834 48 -51.501
s17 -43.834 17 -66.501c0 -27.333 -6 -51.5 -18 -72.5s-27.333 -38.667 -46 -53s-39.667 -25.166 -63 -32.499s-46.666 -11 -69.999 -11c-36 0 -67.833 6.66699 -95.5 20s-50.834 30.666 -69.501 51.999s-32.667 45.5 -42 72.5s-14 53.833 -14 80.5
c0 81.333 30.333 149 91 203s137.667 81 231 81c96.667 0 174.834 -28.833 234.501 -86.5s89.5 -129.167 89.5 -214.5c0 -81.333 -24.167 -155.5 -72.5 -222.5s-108.5 -116.833 -180.5 -149.5zM191.001 56.002c-14 0 -26.668 -2.66602 -38.001 -7.99902s-17 -16.333 -17 -33
c0 -12.667 4.83301 -22.834 14.5 -30.501s21 -13.5 34 -17.5s26.5 -6.66699 40.5 -8s25.333 -2 34 -2c19.333 0 38.333 1.5 57 4.5s36.334 6.83301 53.001 11.5c-22 20 -49.333 38.833 -82 56.5s-64.667 26.5 -96 26.5z" />
    <glyph glyph-name="R" unicode="R" horiz-adv-x="614" 
d="M184 310c12 -2.66699 26.665 -4.66699 43.998 -6s32.333 -2 45 -2c56.667 0 102.334 14 137.001 42s52 67.667 52 119c0 42 -13.833 76.5 -41.5 103.5s-73.5 40.5 -137.5 40.5h-15c-21.333 0 -40.666 -3.5 -57.999 -10.5s-26 -25.5 -26 -55.5v-231zM183.998 285v-39.999
c0 -57.333 0.666992 -106.833 2 -148.5s5 -73.834 11 -96.501h-87c6 22.667 9.66699 54.834 11 96.501s2 91.167 2 148.5v144c0 57.333 -0.666992 106.833 -2 148.5s-5 73.834 -11 96.501h215c66.667 0 118.5 -15.833 155.5 -47.5s55.5 -73.5 55.5 -125.5
c0 -56 -20.5 -100.333 -61.5 -133s-97.5 -50 -169.5 -52c4.66699 -2.66699 9.33398 -6.16699 14.001 -10.5l16 -15.5l64 -66l97.5 -96.5c33 -33.667 64.167 -62.834 93.5 -87.501h-97c-6 11.333 -19.167 27.666 -39.5 48.999l-57.5 60l-129 135
c-11.333 12.667 -23.833 22.167 -37.5 28.5s-28.834 10.5 -45.501 12.5z" />
    <glyph glyph-name="S" unicode="S" horiz-adv-x="511" 
d="M46 52c8.66699 10 16.833 21.835 24.5 35.502s13.834 27.5 18.501 41.5c16 -32.667 37.333 -60.167 64 -82.5s59 -33.5 97 -33.5c37.333 0 71.833 12.5 103.5 37.5s47.5 59.167 47.5 102.5c0 44 -16.833 74.5 -50.5 91.5s-75.5 34.833 -125.5 53.5
c-51.333 18.667 -90 42 -116 70s-39 63 -39 105c0 53.333 20.167 95 60.5 125s88.5 45 144.5 45c28.667 0 58.5 -4.16699 89.5 -12.5s58.833 -21.5 83.5 -39.5c-8.66699 -10 -16 -21.333 -22 -34s-11.333 -26 -16 -40c-13.333 29.333 -32 53.166 -56 71.499
s-52.667 27.5 -86 27.5c-30 0 -59.833 -9.5 -89.5 -28.5s-44.5 -49.167 -44.5 -90.5c0 -44 15.167 -77 45.5 -99s70.5 -41.667 120.5 -59c53.333 -18.667 94.166 -40.334 122.499 -65.001s42.5 -57 42.5 -97c0 -60 -22.167 -107.333 -66.5 -142s-95.166 -52 -152.499 -52
c-34.667 0 -69.334 5.5 -104.001 16.5s-66.667 28.5 -96 52.5z" />
    <glyph glyph-name="T" unicode="T" horiz-adv-x="558" 
d="M34 634h490.002l13 -93c-28 19.333 -57.833 34.666 -89.5 45.999s-67.834 17 -108.501 17h-4c-9.33301 0 -16 -2.33301 -20 -7s-6 -13 -6 -25v-327c0 -57.333 0.666992 -106.833 2 -148.5s5 -73.834 11 -96.501h-86c6 22.667 9.66699 54.834 11 96.501s2 91.167 2 148.5
v327c0 12 -2 20.333 -6 25s-10.667 7 -20 7h-4c-40.667 0 -76.834 -5.66699 -108.501 -17s-61.5 -26.666 -89.5 -45.999z" />
    <glyph glyph-name="U" unicode="U" horiz-adv-x="669" 
d="M534 634l65.0068 0.000976562c-2.66699 -11.333 -4.83398 -29.333 -6.50098 -54s-2.83398 -53 -3.50098 -85s-1 -66.833 -1 -104.5v-113.5c0 -96.667 -22.167 -169.834 -66.5 -219.501s-104.833 -74.5 -181.5 -74.5c-84 0 -148.167 24.167 -192.5 72.5
s-66.5 124.833 -66.5 229.5v114c0 38 -0.333008 72.833 -1 104.5s-1.83398 59 -3.50098 82s-3.83398 39.167 -6.50098 48.5h85c-2.66699 -8.66699 -4.83398 -23.667 -6.50098 -45s-2.83398 -46.666 -3.50098 -75.999s-1 -61.833 -1 -97.5v-107.5
c0 -36 2.33301 -71.5 7 -106.5s13.834 -66.167 27.501 -93.5s33.5 -49.5 59.5 -66.5s60 -25.5 102 -25.5c56 0 104.167 21 144.5 63s60.5 106.667 60.5 194v114.5c0 38.333 -0.333008 73.666 -1 105.999s-1.83398 60.833 -3.50098 85.5s-3.83398 43 -6.50098 55z" />
    <glyph glyph-name="V" unicode="V" horiz-adv-x="602" 
d="M306 -5l-11.999 -0.00292969l-199 464l-40.5 89c-13.667 30.667 -28.5 59.334 -44.5 86.001h99c2 -25.333 8 -52.166 18 -80.499s20.667 -55.5 32 -81.5l158 -368l140 330c17.333 41.333 30.166 78.333 38.499 111s13.5 62.334 15.5 89.001h81
c-12.667 -22 -26.167 -48.167 -40.5 -78.5l-42.5 -94.5z" />
    <glyph glyph-name="W" unicode="W" horiz-adv-x="917" 
d="M267 -5l-13 0.00195312l-159 452c-18.667 52 -33.5 91.5 -44.5 118.5s-21.167 49.833 -30.5 68.5h92c2 -25.333 7 -51.833 15 -79.5s19.333 -62.167 34 -103.5l116 -331l189 487h9l195 -488l107 319c12 35.333 21.833 70.666 29.5 105.999s11.5 65.333 11.5 90h79
c-12.667 -24.667 -25.5 -52.834 -38.5 -84.501s-27.5 -70.5 -43.5 -116.5l-154 -438h-11l-194 493z" />
    <glyph glyph-name="X" unicode="X" horiz-adv-x="611" 
d="M336 341l128.999 -180.999l52 -77c19.333 -28.667 40 -56.334 62 -83.001h-101c-6 22.667 -17.167 48.167 -33.5 76.5s-32.166 53.833 -47.499 76.5l-102 143l-73 -112c-26 -38.667 -48.5 -74 -67.5 -106s-32.5 -58 -40.5 -78h-82l60 72l67 86l117 165l-110 155l-55 73.5
l-64 82.5h106c4 -17.333 11.5 -36.5 22.5 -57.5s25.833 -45.167 44.5 -72.5l96 -135l49 68c36.667 53.333 62.667 94.5 78 123.5s26.333 53.5 33 73.5h82c-13.333 -14 -26.833 -30.333 -40.5 -49l-48.5 -65z" />
    <glyph glyph-name="Y" unicode="Y" horiz-adv-x="551" 
d="M0 634h99.998c4 -18.667 13.5 -41.667 28.5 -69s30.833 -54.333 47.5 -81c18.667 -28.667 38.167 -61 58.5 -97s39.5 -68.333 57.5 -97l111 194l40 75.5c12 23.667 20.333 48.5 25 74.5h83c-7.33301 -8.66699 -17.666 -22.167 -30.999 -40.5s-30.666 -44.5 -51.999 -78.5
l-161 -261v-9c0 -57.333 0.666992 -106.833 2 -148.5s5 -73.834 11 -96.501h-85c6 22.667 9.66699 54.834 11 96.501s2 91.167 2 148.5v9l-132 206l-56 86c-18 28.667 -38 58 -60 88z" />
    <glyph glyph-name="Z" unicode="Z" horiz-adv-x="584" 
d="M142 150l241.999 353l36 51.5c12.667 17.667 25.667 34.5 39 50.5h-46c-64 0 -126.667 -4.33301 -188 -13s-110 -24 -146 -46l11 88h457v-18c-21.333 -22 -39.833 -44.167 -55.5 -66.5l-46.5 -67.5l-237 -345l-39 -56.5c-12.667 -18.333 -26 -35.5 -40 -51.5h90
c68 0 128.833 4.5 182.5 13.5s102.834 24.833 147.501 47.5l-12 -90h-492v20c12.667 13.333 27.5 31.333 44.5 54s34.5 48 52.5 76z" />
    <glyph glyph-name="bracketleft" unicode="[" horiz-adv-x="211" 
d="M40 -89v815.002c0 4.66699 1 8.66699 3 12s6.33301 5.33301 13 6l125 11v-8c-32.667 -14 -54.667 -26.833 -66 -38.5s-17 -33.834 -17 -66.501v-647c0 -32.667 5.66699 -54.834 17 -66.501s33.333 -24.5 66 -38.5v-8l-125 11c-6.66699 0.666992 -11 2.66699 -13 6
s-3 7.33301 -3 12z" />
    <glyph glyph-name="backslash" unicode="\" horiz-adv-x="337" 
d="M285 -85l-282.002 824.999c9.33301 -1.33301 17.833 -2.16602 25.5 -2.49902s15.834 0.5 24.501 2.5l281 -825c-10.667 2 -19.667 3 -27 3s-14.666 -1 -21.999 -3z" />
    <glyph glyph-name="bracketright" unicode="]" horiz-adv-x="211" 
d="M171 726v-815.002c0 -4.66699 -1 -8.66699 -3 -12s-6.33301 -5.33301 -13 -6l-125 -11v8c32.667 14 54.667 26.833 66 38.5s17 33.834 17 66.501v647c0 32.667 -5.66699 54.834 -17 66.501s-33.333 24.5 -66 38.5v8l125 -11c6.66699 -0.666992 11 -2.66699 13 -6
s3 -7.33301 3 -12z" />
    <glyph glyph-name="asciicircum" unicode="^" horiz-adv-x="491" 
d="M279 571l193 -201l-16 -20l-211 176l-211 -176l-16 20l193 201h68z" />
    <glyph glyph-name="underscore" unicode="_" horiz-adv-x="599" 
d="M558 -232h-519c2 5.33301 3 11.833 3 19.5s-1 14.167 -3 19.5h519c-2 -5.33301 -3 -12 -3 -20s1 -14.333 3 -19z" />
    <glyph glyph-name="grave" unicode="`" horiz-adv-x="260" 
d="M223 546l-12.001 -12c-29.333 25.333 -59.5 48.5 -90.5 69.5s-64.167 39.5 -99.5 55.5c10.667 8.66699 20.334 18.5 29.001 29.5s17 23.167 25 36.5z" />
    <glyph glyph-name="a" unicode="a" horiz-adv-x="512" 
d="M359 306l-0.000976562 39.9971c0 42 -11.167 70.667 -33.5 86s-46.833 23 -73.5 23c-39.333 0 -71.833 -10 -97.5 -30s-45.834 -46.333 -60.501 -79c-6 8.66699 -12.833 16.334 -20.5 23.001s-16.167 12 -25.5 16c24.667 32.667 54 56.834 88 72.501
s72.333 23.5 115 23.5c44 0 83.667 -11.167 119 -33.5s53 -68.833 53 -139.5v-196c0 -22 4.33301 -43.167 13 -63.5s27.334 -32.833 56.001 -37.5v-19c-4 -0.666992 -8 -1.16699 -12 -1.5s-7.66699 -0.5 -11 -0.5c-33.333 0 -59.333 7.83301 -78 23.5
s-28.334 41.167 -29.001 76.5c-21.333 -30.667 -47.666 -55 -78.999 -73s-65 -27 -101 -27c-46 0 -82 12.167 -108 36.5s-39 55.833 -39 94.5c0 44 14 75.333 42 94s60.333 32 97 40s72.834 14.333 108.501 19s61.167 15.334 76.5 32.001zM358.999 127.997l-0.00390625 145
c-23.333 -14.667 -49.666 -24 -78.999 -28s-56.666 -8.66699 -81.999 -14s-46.666 -14.833 -63.999 -28.5s-26 -37.5 -26 -71.5c0 -30 7.83301 -54.833 23.5 -74.5s38.834 -29.5 69.501 -29.5c32.667 0 64 10.333 94 31s51.333 44 64 70z" />
    <glyph glyph-name="b" unicode="b" horiz-adv-x="570" 
d="M150 609l0.000976562 -182.002c20.667 18 44.5 31.5 71.5 40.5s54.167 13.5 81.5 13.5c69.333 0 125.333 -21.167 168 -63.5s64 -103.5 64 -183.5c0 -33.333 -5.33301 -64.833 -16 -94.5s-26.167 -55.667 -46.5 -78s-45.833 -40.166 -76.5 -53.499s-66 -20 -106 -20
c-30.667 0 -59 4.33301 -85 13s-49.333 20.667 -70 36l-54 -47h-2l8 107v504c0 20.667 -1.16699 40 -3.5 58s-6.83301 32.333 -13.5 43c14.667 2.66699 28 6.5 40 11.5s24.333 11.167 37 18.5c1.33301 -21.333 2.16602 -42.166 2.49902 -62.499s0.5 -40.5 0.5 -60.5z
M298.001 454.998c-27.333 0 -54.833 -8 -82.5 -24s-49.5 -37.333 -65.5 -64v-279c14.667 -22 34.5 -39.667 59.5 -53s51.833 -20 80.5 -20c54.667 0 97 20.167 127 60.5s45 93.5 45 159.5s-13.833 119.167 -41.5 159.5s-68.5 60.5 -122.5 60.5z" />
    <glyph glyph-name="c" unicode="c" horiz-adv-x="515" 
d="M436 119c6.66699 -6 13.833 -11.998 21.5 -17.998s16.834 -10.333 27.501 -13c-22.667 -32 -52.167 -56.667 -88.5 -74s-76.5 -26 -120.5 -26c-69.333 0 -126.833 21.833 -172.5 65.5s-68.5 102.167 -68.5 175.5c0 31.333 4.66699 62.166 14 92.499
s23.666 57.333 42.999 81s44.333 42.667 75 57s67 21.5 109 21.5c37.333 0 73.833 -6.83301 109.5 -20.5s65.834 -36.834 90.501 -69.501c-8.66699 -4 -16.334 -9.66699 -23.001 -17l-20 -23c-12 22.667 -30 45.667 -54 69s-58.667 35 -104 35
c-53.333 0 -94.333 -20.833 -123 -62.5s-43 -94.5 -43 -158.5c0 -60 13.833 -111.5 41.5 -154.5s70.167 -64.5 127.5 -64.5c38 0 70.667 9.66699 98 29s47.333 44.333 60 75z" />
    <glyph glyph-name="d" unicode="d" horiz-adv-x="579" 
d="M281 454c-30.667 0 -56.8291 -6.16895 -78.4961 -18.502s-39.334 -28.833 -53.001 -49.5s-23.834 -44.334 -30.501 -71.001s-10 -54.334 -10 -83.001c0 -22.667 2.16699 -46.667 6.5 -72s12.166 -48.666 23.499 -69.999s27 -39.166 47 -53.499s45.333 -21.5 76 -21.5
c29.333 0 59.333 8.33301 90 25s53.334 38.334 68.001 65.001v274c-12.667 24.667 -31.834 43.334 -57.501 56.001s-52.834 19 -81.501 19zM483.005 608.998v-481c0 -32.667 3.33301 -58.334 10 -77.001s20.334 -32.334 41.001 -41.001v-19
c-36.667 0 -61.667 5.16699 -75 15.5s-23.333 25.833 -30 46.5c-24.667 -22 -51.334 -38.333 -80.001 -49s-58.334 -16 -89.001 -16c-77.333 0 -134.166 23.333 -170.499 70s-54.5 104.334 -54.5 173.001c0 79.333 22.833 140.833 68.5 184.5s100.834 65.5 165.501 65.5
c24.667 0 50.5 -3 77.5 -9s51.5 -17 73.5 -33v162c0 20.667 -1.16699 40 -3.5 58s-6.83301 32.333 -13.5 43c14.667 2.66699 28 6.5 40 11.5s24.333 11.167 37 18.5c1.33301 -21.333 2.16602 -42.166 2.49902 -62.499s0.5 -40.5 0.5 -60.5z" />
    <glyph glyph-name="e" unicode="e" horiz-adv-x="523" 
d="M483 266l-369.998 0.000976562c-0.666992 -6 -1.16699 -11.667 -1.5 -17s-0.5 -11.333 -0.5 -18c0 -27.333 3.16699 -54 9.5 -80s16.166 -49 29.499 -69s30.5 -36.167 51.5 -48.5s46.167 -18.5 75.5 -18.5c37.333 0 68.833 9.66699 94.5 29s47.167 44 64.5 74
c5.33301 -6 11.166 -11.5 17.499 -16.5s13.5 -8.5 21.5 -10.5c-22 -34 -50.5 -59.667 -85.5 -77s-73.5 -26 -115.5 -26c-40 0 -74.833 6.66699 -104.5 20s-54.167 31.333 -73.5 54s-33.833 49.167 -43.5 79.5s-14.5 62.166 -14.5 95.499c0 71.333 22 129.833 66 175.5
s100 68.5 168 68.5c56 0 105.167 -18.333 147.5 -55s63.5 -90 63.5 -160zM272.002 456.001c-46.667 0 -82.5 -15.667 -107.5 -47s-40.833 -69.333 -47.5 -114h292c-3.33301 50 -17 89.333 -41 118s-56 43 -96 43z" />
    <glyph glyph-name="f" unicode="f" horiz-adv-x="301" 
d="M77 0c3.33301 5.33301 5.83594 15.501 7.50293 30.501s2.66699 32.333 3 52s0.5 40.834 0.5 63.501v64v231l-69 -3v32l69 -4c0.666992 81.333 15.167 145.333 43.5 192s72.166 70 131.499 70c4 0 9.16699 -0.333008 15.5 -1s12.166 -1.66699 17.499 -3
c-6.66699 -10.667 -11.334 -22 -14.001 -34s-4.33398 -23.667 -5.00098 -35c-8 2.66699 -17.5 5.66699 -28.5 9s-20.833 5 -29.5 5c-34 0 -55.667 -10.833 -65 -32.5s-14 -46.834 -14 -75.501c0 -12.667 0.833008 -28.5 2.5 -47.5s3.83398 -34.833 6.50098 -47.5l101 4v-32
l-98 3v-231v-64c0 -22.667 0.166992 -43.834 0.5 -63.501s1.33301 -37 3 -52s4.16699 -25.167 7.5 -30.5h-86z" />
    <glyph glyph-name="g" unicode="g" horiz-adv-x="526" 
d="M109 310c0 -40 12.167 -75.167 36.5 -105.5s58.5 -45.833 102.5 -46.5c48 0 83.333 14.167 106 42.5s34 62.5 34 102.5s-12.333 75.333 -37 106s-59 46 -103 46c-48 0 -83.167 -14.167 -105.5 -42.5s-33.5 -62.5 -33.5 -102.5zM155 32
c-9.33301 6.66699 -16.666 14.5049 -21.999 23.5049s-8 19.833 -8 32.5c0 13.333 3.5 25.666 10.5 36.999s16.833 19.333 29.5 24c-39.333 12.667 -70.333 33.667 -93 63s-34 62.666 -34 99.999c0 26.667 5.83301 50.167 17.5 70.5s27.334 37.5 47.001 51.5
s42.167 24.667 67.5 32s51.333 11 78 11c15.333 0 35 0.5 59 1.5s47.167 4.16699 69.5 9.5s41.833 13.833 58.5 25.5s25.334 28.167 26.001 49.5l7 6c10 -6.66699 17.667 -14.667 23 -24s8 -19 8 -29c0 -23.333 -9.83301 -38.833 -29.5 -46.5s-40.834 -11.5 -63.501 -11.5
c-14.667 0 -28.834 1 -42.501 3s-24.167 3.66699 -31.5 5v-2c38.667 -13.333 69.334 -34.833 92.001 -64.5s34 -62.834 34 -99.501c0 -26.667 -5.83301 -50.167 -17.5 -70.5s-27.334 -37.333 -47.001 -51s-42.167 -24.167 -67.5 -31.5s-51.333 -11 -78 -11
c-11.333 0 -22.666 0.666992 -33.999 2s-21.333 3.33301 -30 6c-4.66699 -4 -8.33398 -8.5 -11.001 -13.5s-4 -9.83301 -4 -14.5c0 -22 17.167 -37 51.5 -45s72.166 -17.333 113.499 -28s79.166 -26.834 113.499 -48.501s51.5 -56.834 51.5 -105.501
c0 -50.667 -23.5 -91 -70.5 -121s-103.5 -45 -169.5 -45c-75.333 0 -131.5 16.167 -168.5 48.5s-55.5 70.166 -55.5 113.499c0 32.667 10.333 61.834 31 87.501s50.334 45.5 89.001 59.5zM174 21.0049c-24.667 -12.667 -43.668 -28.832 -57.001 -48.499
s-20 -43.834 -20 -72.501c0 -52 15.833 -90.5 47.5 -115.5s69.834 -37.5 114.501 -37.5c50 0 92 11.833 126 35.5s51 55.5 51 95.5c0 30.667 -9.5 53.5 -28.5 68.5s-42.167 26.5 -69.5 34.5s-56 14.333 -86 19s-56 11.667 -78 21z" />
    <glyph glyph-name="h" unicode="h" horiz-adv-x="577" 
d="M76 0c3.33301 5.33301 5.83398 15.498 7.50098 30.498s2.66699 32.333 3 52s0.5 40.834 0.5 63.501v64v391c0 20.667 -1.16699 40 -3.5 58s-6.83301 32.333 -13.5 43c14.667 2.66699 27.834 6.5 39.501 11.5s23.834 11.167 36.501 18.5
c1.33301 -21.333 2.16602 -42.166 2.49902 -62.499s0.5 -40.5 0.5 -60.5v-252c22.667 38.667 49.667 67.834 81 87.501s67.666 29.5 108.999 29.5c36.667 0 70 -11.167 100 -33.5s45 -66.5 45 -132.5v-198c0 -24 2.66699 -44.5 8 -61.5s18.666 -29.5 39.999 -37.5v-19
c-42.667 0 -72.167 9.5 -88.5 28.5s-24.5 50.167 -24.5 93.5v168c-1.33301 58 -11 97.667 -29 119s-42.667 32 -74 32c-46 0 -85 -16.167 -117 -48.5s-48.667 -69.5 -50 -111.5v-63v-64c0 -22.667 0.166992 -43.834 0.5 -63.501s1.33301 -37 3 -52
s4.16699 -25.167 7.5 -30.5h-84z" />
    <glyph glyph-name="i" unicode="i" horiz-adv-x="230" 
d="M115 554c-12.667 0 -23.334 4.16699 -32.001 12.5s-13 18.833 -13 31.5c0 13.333 4.83301 25 14.5 35s19.834 19.333 30.501 28c10.667 -8.66699 20.834 -18 30.501 -28s14.5 -21.667 14.5 -35c0 -12.667 -4.33301 -23.167 -13 -31.5s-19.334 -12.5 -32.001 -12.5z
M158 466c-3.33301 -5.33301 -5.83301 -15.5 -7.5 -30.5s-2.66699 -32.333 -3 -52s-0.5 -40.834 -0.5 -63.501v-64v-46v-64c0 -22.667 0.166992 -43.834 0.5 -63.501s1.33301 -37 3 -52s4.16699 -25.167 7.5 -30.5h-86c3.33301 5.33301 5.83301 15.5 7.5 30.5
s2.66699 32.333 3 52s0.5 40.834 0.5 63.501v64v46v64c0 22.667 -0.166992 43.834 -0.5 63.501s-1.33301 37 -3 52s-4.16699 25.167 -7.5 30.5h86z" />
    <glyph glyph-name="j" unicode="j" horiz-adv-x="227" 
d="M157 598c0 -12.667 -4.33301 -23.167 -13 -31.5s-19.334 -12.5 -32.001 -12.5s-23.334 4.16699 -32.001 12.5s-13 18.833 -13 31.5c0 13.333 4.83301 25 14.5 35s19.834 19.333 30.501 28c10.667 -8.66699 20.834 -18 30.501 -28s14.5 -21.667 14.5 -35zM156 466
c-3.33301 -5.33301 -5.83301 -15.498 -7.5 -30.498s-2.66699 -32.167 -3 -51.5s-0.5 -40.333 -0.5 -63v-64v-295c0 -28.667 -1.5 -57.334 -4.5 -86.001s-9.5 -54.334 -19.5 -77.001s-25 -41 -45 -55s-47 -21 -81 -21v24c32 2 54.333 16.667 67 44s19 82 19 164v305v63
c0 22 -0.166992 42.667 -0.5 62s-1.33301 36.333 -3 51s-4.16699 24.667 -7.5 30h86z" />
    <glyph glyph-name="k" unicode="k" horiz-adv-x="511" 
d="M76 0c3.33301 5.33301 5.83594 15.834 7.50293 31.501s2.66699 33.5 3 53.5s0.5 41.167 0.5 63.5v61.5v391c0 20.667 -1.16699 40 -3.5 58s-6.83301 32.333 -13.5 43c14.667 2.66699 27.667 6.5 39 11.5s23.333 11.167 36 18.5
c1.33301 -21.333 2.16602 -42.166 2.49902 -62.499s0.5 -40.5 0.5 -60.5v-343c16.667 57.333 41.834 106.166 75.501 146.499s78.167 60.5 133.5 60.5c31.333 0 57 -9.16699 77 -27.5s30 -43.5 30 -75.5c0 -38 -15 -70 -45 -96s-76.333 -45.333 -139 -58l42 -60
c15.333 -22.667 32.166 -44.167 50.499 -64.5s38.833 -37.833 61.5 -52.5s47.334 -23 74.001 -25v-17c-5.33301 -2.66699 -11.333 -4.5 -18 -5.5s-13.334 -1.5 -20.001 -1.5c-37.333 0 -69.5 8.33301 -96.5 25s-50.5 37.167 -70.5 61.5s-37.833 50.166 -53.5 77.499
s-30.834 51.666 -45.501 72.999c20.667 1.33301 42.667 4.33301 66 9s45 11.834 65 21.501s36.667 22.667 50 39s20 36.5 20 60.5c0 22.667 -5.16699 41.5 -15.5 56.5s-28.833 22.5 -55.5 22.5c-25.333 -0.666992 -49.5 -10.667 -72.5 -30s-42.833 -44 -59.5 -74
s-29.834 -63.667 -39.501 -101s-14.5 -74 -14.5 -110c0 -28 0.666992 -53.5 2 -76.5s4.33301 -37.833 9 -44.5h-83z" />
    <glyph glyph-name="l" unicode="l" horiz-adv-x="283" 
d="M149 609l-0.00195312 -445.001c0 -33.333 4.66699 -65.5 14 -96.5s29 -46.5 59 -46.5c3.33301 0 7.33301 0.166992 12 0.5s9.33398 0.833008 14.001 1.5v-20c-9.33301 -4.66699 -19 -8 -29 -10s-19.333 -3 -28 -3c-42.667 0 -70.667 16.167 -84 48.5
s-20 68.833 -20 109.5v453c0 20.667 -1.16699 40 -3.5 58s-6.83301 32.333 -13.5 43c14.667 2.66699 27.834 6.5 39.501 11.5s23.834 11.167 36.501 18.5c1.33301 -21.333 2.16602 -42.166 2.49902 -62.499s0.5 -40.5 0.5 -60.5z" />
    <glyph glyph-name="m" unicode="m" horiz-adv-x="838" 
d="M76 0c2.66699 4.66699 4.82715 14.1709 6.49414 28.5039s2.83398 30.666 3.50098 48.999s1 38.333 1 60v62.5v147c0 20.667 -1.16699 40 -3.5 58s-6.83301 32.333 -13.5 43c14.667 2.66699 28.334 6.5 41.001 11.5s25.334 11.167 38.001 18.5v-113
c22.667 38.667 47.834 66.5 75.501 83.5s58.834 25.5 93.501 25.5c30.667 0 58.667 -9 84 -27s40.333 -45.333 45 -82c22.667 38.667 47.834 66.5 75.501 83.5s58.834 25.5 93.501 25.5c39.333 0 70.666 -11.667 93.999 -35s35 -64.666 35 -123.999v-205
c0 -24 2.66699 -44.5 8 -61.5s18.666 -29.5 39.999 -37.5v-19c-42 0 -71 9.5 -87 28.5s-24 50.167 -24 93.5v170c0 56 -8.66699 94.833 -26 116.5s-40.333 32.5 -69 32.5c-38 0 -70.667 -15.333 -98 -46s-41 -68.334 -41 -113.001v-64v-64
c0 -22.667 0.166992 -43.834 0.5 -63.501s1.33301 -37 3 -52s3.83398 -25.167 6.50098 -30.5h-84c5.33301 8.66699 8.5 31 9.5 67s1.5 72.667 1.5 110v107c0 56 -8.83301 94.833 -26.5 116.5s-40.834 32.5 -69.501 32.5c-38 0 -70.667 -15.333 -98 -46
s-41 -68.334 -41 -113.001v-64v-64c0 -22.667 0.166992 -43.834 0.5 -63.501s1.33301 -37 3 -52s3.83398 -25.167 6.50098 -30.5h-84z" />
    <glyph glyph-name="n" unicode="n" horiz-adv-x="579" 
d="M318 433c-47.333 0 -87.002 -16.999 -119.002 -50.999s-48 -72.333 -48 -115v-96c0 -36.667 0.5 -72.167 1.5 -106.5s4.16699 -55.833 9.5 -64.5h-86c2.66699 4.66699 4.83398 14.167 6.50098 28.5s2.83398 30.666 3.50098 48.999s1 38.333 1 60v62.5v147
c0 20.667 -1.16699 40 -3.5 58s-6.83301 32.333 -13.5 43c14.667 2.66699 28.5 6.5 41.5 11.5s25.833 11.167 38.5 18.5v-122c22.667 39.333 49.834 68.833 81.501 88.5s68.167 29.5 109.5 29.5c36.667 0 70 -11.167 100 -33.5s45 -66.5 45 -132.5v-198
c0 -24 2.66699 -44.5 8 -61.5s18.666 -29.5 39.999 -37.5v-19c-42.667 0 -72.167 9.5 -88.5 28.5s-24.5 50.167 -24.5 93.5v172c-1.33301 58 -11 97 -29 117s-42.667 30 -74 30z" />
    <glyph glyph-name="o" unicode="o" 
d="M280 -12c-73.333 0 -132.5 22.667 -177.5 68s-67.5 104.666 -67.5 177.999c0 32.667 5.33301 64 16 94s26.334 56.167 47.001 78.5s46.334 40.333 77.001 54s65.667 20.5 105 20.5c73.333 0 132.5 -22.667 177.5 -68s67.5 -104.666 67.5 -177.999
c0 -32.667 -5.33301 -64 -16 -94s-26.334 -56.167 -47.001 -78.5s-46.334 -40.333 -77.001 -54s-65.667 -20.5 -105 -20.5zM280 14c54 0 96.167 20.835 126.5 62.502s45.5 94.834 45.5 159.501c0 64 -15.167 116.667 -45.5 158s-72.5 62 -126.5 62
s-96.167 -20.833 -126.5 -62.5s-45.5 -94.834 -45.5 -159.501s15.167 -117.334 45.5 -158.001s72.5 -61.334 126.5 -62.001z" />
    <glyph glyph-name="p" unicode="p" horiz-adv-x="568" 
d="M460 235c0 66 -13.001 119.168 -39.001 159.501s-66.667 60.5 -122 60.5c-27.333 0 -55.166 -6.83301 -83.499 -20.5s-50.833 -32.834 -67.5 -57.501v-289c16 -22.667 37.167 -40.5 63.5 -53.5s53.833 -19.5 82.5 -19.5c52 0 92.667 19.667 122 59s44 93 44 161z
M72.999 -273.999c3.33301 5.33301 5.83398 15.499 7.50098 30.499s2.66699 32.333 3 52s0.5 40.834 0.5 63.501v64v542l64 -46c22 16.667 46.5 29 73.5 37s55.167 12 84.5 12c73.333 0 129.5 -22.833 168.5 -68.5s58.5 -104.5 58.5 -176.5c0 -31.333 -4.83301 -62 -14.5 -92
s-24.167 -56.5 -43.5 -79.5s-44.333 -41.5 -75 -55.5s-67 -21 -109 -21c-26.667 0 -52.334 3.33301 -77.001 10s-46.667 16.334 -66 29.001v-91v-64c0 -22.667 0.166992 -43.834 0.5 -63.501s1.33301 -37 3 -52s4.16699 -25.167 7.5 -30.5h-86z" />
    <glyph glyph-name="q" unicode="q" horiz-adv-x="564" 
d="M417 39c-22 -16.667 -46.667 -29.3311 -74 -37.998s-55 -13 -83 -13c-78 0 -135 23.167 -171 69.5s-54 104.166 -54 173.499c0 82 24 144.167 72 186.5s104.667 63.5 170 63.5c24 0 49 -3 75 -9s50.667 -16.667 74 -32l60 38c-1.33301 -17.333 -2.5 -34.833 -3.5 -52.5
s-1.5 -35.167 -1.5 -52.5v-437v-64c0 -22.667 0.166992 -43.834 0.5 -63.501s1.33301 -37 3 -52s4.16699 -25.167 7.5 -30.5h-86c4.66699 8.66699 7.66699 29.667 9 63s2 68 2 104v146zM283 454.003c-31.333 0 -58.167 -6.83496 -80.5 -20.502s-40.333 -31 -54 -52
s-23.667 -44.833 -30 -71.5s-9.5 -52.667 -9.5 -78c0 -22.667 2.16699 -46.667 6.5 -72s12.166 -48.666 23.499 -69.999s27 -39.166 47 -53.499s45.333 -21.5 76 -21.5c27.333 0 55.833 7.66699 85.5 23s52.834 35.333 69.501 60v294c-16.667 21.333 -37 37 -61 47
s-48.333 15 -73 15z" />
    <glyph glyph-name="r" unicode="r" horiz-adv-x="359" 
d="M70 0c3.33301 5.33301 5.83398 15.498 7.50098 30.498s2.66699 32.333 3 52s0.5 40.834 0.5 63.501v64v46v64c0 22.667 -0.166992 43.834 -0.5 63.501s-1.33301 37 -3 52s-4.16699 25.167 -7.5 30.5h86c-4.66699 -7.33301 -7.66699 -23.5 -9 -48.5s-2 -52.167 -2 -81.5
c18 43.333 42.333 76.833 73 100.5s59.334 35.5 86.001 35.5c8.66699 0 17.334 -1 26.001 -3s17.334 -5.33301 26.001 -10c-6 -7.33301 -10.667 -18 -14 -32s-5.33301 -26.333 -6 -37c-8.66699 6.66699 -18.834 11.834 -30.501 15.501s-23.834 5.5 -36.501 5.5
c-38.667 0 -68.834 -18.5 -90.501 -55.5s-32.834 -81.833 -33.501 -134.5v-41c0 -38 0.333008 -75.333 1 -112s4 -59.334 10 -68.001h-86z" />
    <glyph glyph-name="s" unicode="s" horiz-adv-x="409" 
d="M370 431c-6.66699 -4.66699 -13.3311 -11.5068 -19.998 -20.5068s-12.334 -18.833 -17.001 -29.5c-14.667 22.667 -33.167 40.5 -55.5 53.5s-45.833 19.5 -70.5 19.5c-25.333 0 -49 -5.66699 -71 -17s-33 -31.333 -33 -60c0 -31.333 14.667 -55.166 44 -71.499
s61.666 -31.666 96.999 -45.999s67.666 -31.5 96.999 -51.5s44 -49 44 -87c0 -40 -17.167 -72.167 -51.5 -96.5s-76.166 -36.5 -125.499 -36.5c-30.667 0 -60.667 4.33301 -90 13s-57.333 22.667 -84 42c6.66699 6.66699 13 14.834 19 24.501s11 19.834 15 30.501
c18.667 -26.667 40.167 -47 64.5 -61s49.5 -21 75.5 -21c30.667 0 57.5 6.83301 80.5 20.5s34.5 33.834 34.5 60.501c0 32.667 -14.667 57.334 -44 74.001s-61.333 32.334 -96 47.001s-66.667 31.5 -96 50.5s-44 47.167 -44 84.5c0 42 16.667 73.833 50 95.5
s74 32.5 122 32.5c28 0 55.833 -4.33301 83.5 -13s51.5 -21 71.5 -37z" />
    <glyph glyph-name="t" unicode="t" horiz-adv-x="296" 
d="M148 441l-0.000976562 -277.001c0 -39.333 4.83301 -72.833 14.5 -100.5s32.834 -41.5 69.501 -41.5c3.33301 0 7 0.166992 11 0.5s8 0.833008 12 1.5v-20c-9.33301 -4.66699 -20.5 -8.16699 -33.5 -10.5s-23.833 -3.5 -32.5 -3.5c-42.667 0 -70.834 15 -84.501 45
s-20.5 65.333 -20.5 106v300l-69 -3v32l69 -4v59c0 14.667 -0.833008 28.334 -2.5 41.001s-4.16699 24.667 -7.5 36c16.667 0 31.334 1.5 44.001 4.5s25 8.16699 37 15.5c-2.66699 -12.667 -4.5 -26.667 -5.5 -42s-1.5 -32.333 -1.5 -51v-63l113 4v-32z" />
    <glyph glyph-name="u" unicode="u" horiz-adv-x="605" 
d="M503 -7c-22.667 0 -41.667 9.33301 -57 28s-24 53.334 -26 104.001c-22.667 -45.333 -50 -78.666 -82 -99.999s-69.333 -32 -112 -32c-44 0 -78.5 15.167 -103.5 45.5s-37.5 78.5 -37.5 144.5v166c0 20.667 -1.16699 40 -3.5 58s-6.83301 32.333 -13.5 43
c14.667 2.66699 28.667 6.16699 42 10.5s26.333 10.166 39 17.499v-289c0 -50 8.16699 -87.667 24.5 -113s42.833 -38 79.5 -38c17.333 0 35.333 4 54 12s35.834 19 51.501 33s28.667 31.167 39 51.5s15.5 42.833 15.5 67.5v147c0 20.667 -1.16699 40 -3.5 58
s-6.83301 32.333 -13.5 43c14.667 2.66699 28.667 6.16699 42 10.5s26.333 10.166 39 17.499v-363c0 -32.667 5.66699 -55.667 17 -69s24.666 -20 39.999 -20c4 0 8.16699 0.333008 12.5 1s8.83301 1.66699 13.5 3v-18c-8.66699 -7.33301 -18 -12.333 -28 -15
s-19.667 -4 -29 -4z" />
    <glyph glyph-name="v" unicode="v" horiz-adv-x="434" 
d="M225 0h-16l-165 342c-11.333 24 -19.833 42.833 -25.5 56.5l-28.5 67.5h87c0.666992 -15.333 4.16699 -32.666 10.5 -51.999s14.5 -41.333 24.5 -66l121 -259l68 157c17.333 38.667 31.5 77.167 42.5 115.5s17.833 73.166 20.5 104.499h75l-31 -64l-39.5 -84.5l-58 -127z
" />
    <glyph glyph-name="w" unicode="w" horiz-adv-x="699" 
d="M508 0l-13.999 0.000976562l-156 372l-144 -372h-15l-123 326l-26 68.5l-25 71.5h83c0.666992 -16 4 -36 10 -60s13.333 -47.667 22 -71l85 -228l139 363h19l154 -366l64 161c15.333 43.333 26.166 80.166 32.499 110.499s9.83301 60.5 10.5 90.5h70z" />
    <glyph glyph-name="x" unicode="x" horiz-adv-x="471" 
d="M193 359l63.999 -82.001l47 62c27.333 37.333 45.833 65 55.5 83s16.834 32.667 21.501 44h73l-45.5 -49.5c-15.667 -16.333 -31.834 -34.833 -48.501 -55.5l-86 -106l92 -117c14 -19.333 30.833 -41.166 50.5 -65.499s37.834 -48.5 54.501 -72.5h-87
c-6.66699 12.667 -14.667 26.167 -24 40.5s-25.333 37.5 -48 69.5l-79 100l-48 -65c-30.667 -42.667 -52 -74 -64 -94s-21.333 -37 -28 -51h-70l193 231l-102 130l-39 51c-14 18 -27.333 36 -40 54h90c6 -12.667 13.167 -26 21.5 -40s23.833 -36.333 46.5 -67z" />
    <glyph glyph-name="y" unicode="y" horiz-adv-x="464" 
d="M368 466h80.999l-74 -192.5c-25.333 -68.333 -53.666 -135.5 -84.999 -201.5s-67.333 -129.333 -108 -190s-88.334 -113.667 -143.001 -159l-34 75c46.667 20 86.834 46 120.501 78s62.834 69 87.501 111l-155 355c-10.667 24 -18.834 43 -24.501 57l-27.5 67h87
c0.666992 -16 4 -33.5 10 -52.5s13.667 -40.833 23 -65.5l123 -291l42 91c26.667 62 46.167 119 58.5 171s18.5 101 18.5 147z" />
    <glyph glyph-name="z" unicode="z" horiz-adv-x="460" 
d="M34 0l0.00292969 18l41.5 50.5c15.667 19.667 31.167 40.167 46.5 61.5l151 210c10.667 15.333 24 32.5 40 51.5s31 35.833 45 50.5h-58c-62.667 0 -113.334 -5.5 -152.001 -16.5s-67.334 -22.167 -86.001 -33.5l11 74h367v-18c-12.667 -10 -27.5 -25.333 -44.5 -46
s-32.833 -41.334 -47.5 -62.001l-236 -316h81c63.333 0 114.666 5.83301 153.999 17.5s68.333 22.834 87 33.501l-13 -75h-387z" />
    <glyph glyph-name="braceleft" unicode="{" horiz-adv-x="233" 
d="M11 321v25.001c34 0 57.833 8.66699 71.5 26s20.5 35 20.5 53c0 30 -8.33301 66.167 -25 108.5s-25 81.166 -25 116.499c0 37.333 14.167 69.5 42.5 96.5s72.166 40.5 131.499 40.5v-15c-39.333 -4.66699 -67 -19.667 -83 -45s-24 -54 -24 -86
c0 -34 3.33301 -68.667 10 -104s10 -64 10 -86c0 -30 -7.33301 -56.333 -22 -79s-42 -35.334 -82 -38.001c41.333 -3.33301 69 -16.666 83 -39.999s21 -50.333 21 -81c0 -22 -3.33301 -51 -10 -87s-10 -70.667 -10 -104c0 -32 8 -60.667 24 -86s43.667 -40.333 83 -45v-15
c-59.333 0 -103.166 13.5 -131.499 40.5s-42.5 59.167 -42.5 96.5c0 35.333 8.33301 74.833 25 118.5s25 80.5 25 110.5c0 18 -6.83301 35.667 -20.5 53s-37.5 26 -71.5 26z" />
    <glyph glyph-name="bar" unicode="|" horiz-adv-x="125" 
d="M41 -127v908h46v-908h-46z" />
    <glyph glyph-name="braceright" unicode="}" horiz-adv-x="233" 
d="M222 342v-25.001c-34 0 -57.833 -8.66699 -71.5 -26s-20.5 -35 -20.5 -53c0 -30 8.33301 -66.167 25 -108.5s25 -81.166 25 -116.499c0 -37.333 -14.167 -69.5 -42.5 -96.5s-72.166 -40.5 -131.499 -40.5v15c39.333 4.66699 67 19.667 83 45s24 54 24 86
c0 34 -3.33301 68.667 -10 104s-10 64 -10 86c0 30 7.33301 56.333 22 79s42 35.334 82 38.001c-41.333 3.33301 -69 16.666 -83 39.999s-21 50.333 -21 81c0 22 3.33301 51 10 87s10 70.667 10 104c0 32 -8 60.667 -24 86s-43.667 40.333 -83 45v15
c59.333 0 103.166 -13.5 131.499 -40.5s42.5 -59.167 42.5 -96.5c0 -35.333 -8.33301 -74.833 -25 -118.5s-25 -80.5 -25 -110.5c0 -18 6.83301 -35.667 20.5 -53s37.5 -26 71.5 -26z" />
    <glyph glyph-name="asciitilde" unicode="~" horiz-adv-x="649" 
d="M449 218c-26 0 -51.1709 3.83301 -75.5039 11.5s-48.666 16.167 -72.999 25.5s-49.166 17.833 -74.499 25.5s-51.666 11.5 -78.999 11.5c-25.333 0 -48 -5 -68 -15s-36.667 -22 -50 -36l-9 11c21.333 24 46.333 45.667 75 65s62.667 29 102 29
c27.333 0 53.833 -3.83301 79.5 -11.5s50.834 -16.167 75.501 -25.5s49.167 -17.833 73.5 -25.5s48.833 -11.5 73.5 -11.5c25.333 0 48 4.83301 68 14.5s36.667 21.5 50 35.5l9 -11c-21.333 -24 -46.333 -45.5 -75 -64.5s-62.667 -28.5 -102 -28.5z" />
    <glyph glyph-name="exclamdown" unicode="&#xa1;" horiz-adv-x="194" 
d="M164 433c0 -14.667 -6 -28 -18 -40s-23.333 -22.333 -34 -31c-10.667 8.66699 -22 19 -34 31s-18 25.333 -18 40c0 13.333 4.83301 24.666 14.5 33.999s22.167 14 37.5 14s27.833 -4.66699 37.5 -14s14.5 -20.666 14.5 -33.999zM105 284h15l37 -514
c-13.333 3.33301 -28.333 5 -45 5s-31.667 -1.66699 -45 -5z" />
    <glyph glyph-name="cent" unicode="&#xa2;" horiz-adv-x="459" 
d="M239 -45l-0.000976562 33.0029c-67.333 3.33301 -121.5 28.166 -162.5 74.499s-61.5 103.5 -61.5 171.5c0 67.333 20.5 124.166 61.5 170.499s95.167 71.5 162.5 75.5v44c0 10.667 -0.333008 21.667 -1 33s-2.33398 21.333 -5.00098 30
c4 -0.666992 8.16699 -1.16699 12.5 -1.5s8.5 -0.5 12.5 -0.5c3.33301 0 7 0.166992 11 0.5s7.66699 0.833008 11 1.5c-2.66699 -8.66699 -4.33398 -18.334 -5.00098 -29.001s-1 -21.334 -1 -32.001v-46c44.667 -2 80.334 -11.333 107.001 -28s48.667 -38.334 66 -65.001
l-37 -31c-16.667 28.667 -37 52 -61 70s-53 27 -87 27c-50 0 -91.5 -23 -124.5 -69s-49.5 -100 -49.5 -162c0 -64 17.5 -113.5 52.5 -148.5s73.167 -52.5 114.5 -52.5c27.333 0 54.833 6.83301 82.5 20.5s52.167 38.5 73.5 74.5l38 -27
c-17.333 -30.667 -40.333 -54.667 -69 -72s-64 -27 -106 -29v-31c0 -10.667 0.333008 -21.667 1 -33s2.33398 -21.333 5.00098 -30c-4 0.666992 -8.16699 1.16699 -12.5 1.5s-8.5 0.5 -12.5 0.5c-3.33301 0 -7 -0.166992 -11 -0.5s-7.66699 -0.833008 -11 -1.5
c2.66699 8.66699 4.33398 18.334 5.00098 29.001s1 21.334 1 32.001z" />
    <glyph glyph-name="sterling" unicode="&#xa3;" horiz-adv-x="482" 
d="M19 280l-1.00293 30.998c10.667 -0.666992 24.834 -1.16699 42.501 -1.5s34.5 -0.5 50.5 -0.5l-2 36c-0.666992 12 -1 24.333 -1 37c0 71.333 15.833 124.333 47.5 159s73.167 52 124.5 52c28.667 0 57.334 -6.5 86.001 -19.5s50.667 -31.833 66 -56.5l-45 -43
c-8.66699 27.333 -22.334 50 -41.001 68s-40.667 27 -66 27c-29.333 0 -53.666 -12 -72.999 -36s-29 -67.333 -29 -130v-94h32c35.333 0 68.5 0.833008 99.5 2.5s61.833 4.16699 92.5 7.5l-13 -35c-22 -2 -43 -3.16699 -63 -3.5s-48 -0.5 -84 -0.5h-64
c-2 -50.667 -14.5 -99.5 -37.5 -146.5s-53.833 -86.5 -92.5 -118.5c26 14.667 53.5 28.334 82.5 41.001s58.833 19 89.5 19c20.667 0 41.667 -2 63 -6s42.333 -6 63 -6c20 0 38.5 2 55.5 6s30.833 15.667 41.5 35l13 -7c-10.667 -40 -25 -66.667 -43 -80s-41 -20 -69 -20
c-24 0 -51.167 2.83301 -81.5 8.5s-63.166 8.5 -98.499 8.5c-26 0 -50.167 -1.16699 -72.5 -3.5s-42.833 -10.166 -61.5 -23.499l-12 13c26.667 28.667 49.834 60.167 69.501 94.5s29.5 77.5 29.5 129.5c0 6 -0.333008 12.333 -1 19s-1.33398 19 -2.00098 37h-95z" />
    <glyph glyph-name="yen" unicode="&#xa5;" horiz-adv-x="500" 
d="M467 245c-8.66699 0.666992 -19.835 1.16602 -33.502 1.49902s-27.5 0.5 -41.5 0.5h-356l-1 31c8.66699 -0.666992 19.834 -1.16699 33.501 -1.5s27.5 -0.5 41.5 -0.5h87l-185 306h84c3.33301 -16 11.833 -37.167 25.5 -63.5s27.834 -52.166 42.501 -77.499l95 -165h5
l109 199c9.33301 16 17.5 34 24.5 54s11.833 37.667 14.5 53h70l-26.5 -38c-11.667 -16.667 -27.167 -41.667 -46.5 -75l-111 -193h168zM34.999 199.999c8.66699 -0.666992 19.833 -1.16699 33.5 -1.5s27.5 -0.5 41.5 -0.5h356l1 -31
c-8.66699 0.666992 -19.834 1.16699 -33.501 1.5s-27.5 0.5 -41.5 0.5h-115v-24c0 -34 0.833008 -63.167 2.5 -87.5s3.5 -43.5 5.5 -57.5h-70c2.66699 14 4.83398 33.167 6.50098 57.5s2.5 53.5 2.5 87.5v24h-188z" />
    <glyph glyph-name="brokenbar" unicode="&#xa6;" horiz-adv-x="113" 
d="M76 802v-350h-35v350h35zM41 0v360h35v-360h-35z" />
    <glyph glyph-name="section" unicode="&#xa7;" horiz-adv-x="493" 
d="M158 409c-10 -6.66699 -17.998 -15.668 -23.998 -27.001s-9 -23 -9 -35c0 -20 7.83301 -37.167 23.5 -51.5s34.667 -27.5 57 -39.5l71.5 -37c25.333 -12.667 47.666 -27.334 66.999 -44.001c8.66699 8.66699 15 19 19 31s6 23.667 6 35c0 19.333 -7.5 35.833 -22.5 49.5
s-33.167 26.334 -54.5 38.001l-69 36.5c-24.667 12.667 -46.334 27.334 -65.001 44.001zM358.002 160.999c10.667 -11.333 19.332 -24.5 25.999 -39.5s10 -31.833 10 -50.5c0 -46 -16 -78.833 -48 -98.5s-66 -29.5 -102 -29.5c-24.667 0 -51.834 5 -81.501 15
s-52.834 22 -69.501 36c7.33301 6 13.833 14.5 19.5 25.5s10.834 22.833 15.501 35.5c14.667 -24.667 35.334 -45.167 62.001 -61.5s53 -24.5 79 -24.5c20.667 0 40 6.16699 58 18.5s27 33.5 27 63.5c0 34 -13.833 60.667 -41.5 80s-58 37.166 -91 53.499
s-63.333 34.166 -91 53.499s-41.5 46 -41.5 80c0 20.667 5.33301 40.334 16 59.001s24.667 33 42 43c-12 12 -21.5 25.833 -28.5 41.5s-10.5 33.5 -10.5 53.5c0 46 15.667 78.833 47 98.5s65 29.5 101 29.5c24.667 0 49.834 -4 75.501 -12s46.834 -19 63.501 -33
c-8 -9.33301 -14.833 -19.166 -20.5 -29.499s-10.5 -20.833 -14.5 -31.5c-14.667 24.667 -33.334 44.167 -56.001 58.5s-47 21.5 -73 21.5c-20.667 0 -39.667 -6.16699 -57 -18.5s-26 -33.5 -26 -63.5c0 -34 13.5 -60.833 40.5 -80.5s56.833 -37.667 89.5 -54
s62.5 -34 89.5 -53s40.5 -45.5 40.5 -79.5c0 -20 -5 -39.667 -15 -59s-21.667 -35.333 -35 -48z" />
    <glyph glyph-name="dieresis" unicode="&#xa8;" horiz-adv-x="321" 
d="M238 654c-12.667 0 -23.334 4.16699 -32.001 12.5s-13 18.833 -13 31.5c0 13.333 4.83301 25 14.5 35s19.834 19.333 30.501 28c10.667 -8.66699 20.834 -18 30.501 -28s14.5 -21.667 14.5 -35c0 -12.667 -4.33301 -23.167 -13 -31.5s-19.334 -12.5 -32.001 -12.5z
M68 654c-12.667 0 -23.334 4.16699 -32.001 12.5s-13 18.833 -13 31.5c0 13.333 4.83301 25 14.5 35s19.834 19.333 30.501 28c10.667 -8.66699 20.834 -18 30.501 -28s14.5 -21.667 14.5 -35c0 -12.667 -4.33301 -23.167 -13 -31.5s-19.334 -12.5 -32.001 -12.5z" />
    <glyph glyph-name="copyright" unicode="&#xa9;" horiz-adv-x="733" 
d="M704 312c0 -41.333 -6.99805 -81.666 -20.998 -120.999s-34.833 -74.333 -62.5 -105s-62.834 -55.334 -105.501 -74.001s-92.334 -28 -149.001 -28c-56 0 -105.167 9.5 -147.5 28.5s-77.5 44 -105.5 75s-49 66.333 -63 106s-21 80.167 -21 121.5s7 81.666 21 120.999
s34.833 74.333 62.5 105s62.667 55.334 105 74.001s91.833 28 148.5 28c56 0 105.333 -9.5 148 -28.5s78 -44 106 -75s49 -66.333 63 -106s21 -80.167 21 -121.5zM69.002 315c0 -86.667 28.3311 -157.167 84.998 -211.5s127.334 -81.5 212.001 -81.5
c49.333 0 92.5 8.16699 129.5 24.5s67.833 38 92.5 65s43.334 58 56.001 93s19 70.833 19 107.5c0 86.667 -28.167 157.167 -84.5 211.5s-127.166 81.5 -212.499 81.5c-48.667 0 -91.667 -8.16699 -129 -24.5s-68.333 -38 -93 -65s-43.334 -58 -56.001 -93
s-19 -70.833 -19 -107.5zM500 222l43.998 -28.999c-18.667 -26.667 -42.667 -47.5 -72 -62.5s-61.666 -22.5 -96.999 -22.5c-56 0 -102.667 17.667 -140 53s-56 82.666 -56 141.999c0 25.333 3.83301 50.333 11.5 75s19.334 46.667 35.001 66s36 34.833 61 46.5
s54.5 17.5 88.5 17.5c30.667 0 60.5 -6 89.5 -18s53.833 -31.333 74.5 -58l-40 -37c-10 20.667 -24.5 40.334 -43.5 59.001s-46.167 28 -81.5 28c-40.667 0 -72 -16.667 -94 -50s-33 -75 -33 -125c0 -48 10.333 -88.667 31 -122s53 -50 97 -50c30 0 56 8.66699 78 26
s37.667 37.666 47 60.999z" />
    <glyph glyph-name="ordfeminine" unicode="&#xaa;" horiz-adv-x="392" 
d="M249 478l0.00292969 17.001c0 30 -5.83301 49.333 -17.5 58s-24.834 13 -39.501 13c-21.333 0 -40.333 -6.83301 -57 -20.5s-29.667 -31.834 -39 -54.501l-38 36c17.333 21.333 37.166 36.666 59.499 45.999s47.166 14 74.499 14c30 0 56.667 -6.83301 80 -20.5
s35 -42.5 35 -86.5v-119c0 -12 2.5 -24 7.5 -36s16.5 -19.333 34.5 -22v-17c-3.33301 -0.666992 -6.83301 -1 -10.5 -1h-11.5c-16.667 0 -32.167 3.83301 -46.5 11.5s-23.5 20.5 -27.5 38.5c-12.667 -16 -28.667 -28.333 -48 -37s-39.333 -13 -60 -13
c-24.667 0 -46.667 6.33301 -66 19s-29 33.334 -29 62.001c0 34 17.5 59.333 52.5 76s83.833 28.667 146.5 36zM249.003 374.001l-0.000976562 80c-51.333 -8 -87 -18 -107 -30s-30 -30 -30 -54c0 -18 5.33301 -30.833 16 -38.5s23 -11.5 37 -11.5c20 0 37.333 5.5 52 16.5
s25.334 23.5 32.001 37.5z" />
    <glyph glyph-name="guillemotleft" unicode="&#xab;" horiz-adv-x="397" 
d="M219 81l-4 -5c-28.667 29.333 -58.167 57.166 -88.5 83.499l-88.5 79.5l88.5 79.5c30.333 26.333 59.833 54.166 88.5 83.499l4 -5c-26 -43.333 -46.833 -76.666 -62.5 -99.999l-39.5 -58l39.5 -58c15.667 -23.333 36.5 -56.666 62.5 -99.999zM352 81l-4 -5
c-28.667 29.333 -58 57.166 -88 83.499l-89 79.5l89 79.5c30 26.333 59.333 54.166 88 83.499l4 -5c-25.333 -43.333 -46 -76.666 -62 -99.999l-40 -58l40 -58c16 -23.333 36.667 -56.666 62 -99.999z" />
    <glyph glyph-name="logicalnot" unicode="&#xac;" horiz-adv-x="520" 
d="M471 298l0.000976562 -198c-5.33301 1.33301 -11.833 2 -19.5 2s-14.834 -0.666992 -21.501 -2v159h-405c2 5.33301 3 11.833 3 19.5s-1 14.167 -3 19.5h446z" />
    <glyph glyph-name="registered" unicode="&#xae;" horiz-adv-x="373" 
d="M186 429c-42 0 -77.833 13.667 -107.5 41s-44.5 64.333 -44.5 111s14.833 83.667 44.5 111s65.5 41 107.5 41s77.833 -13.667 107.5 -41s44.5 -64.333 44.5 -111s-14.833 -83.667 -44.5 -111s-65.5 -41 -107.5 -41zM186 705c-34 0 -63 -11.167 -87 -33.5
s-36 -52.5 -36 -90.5s12 -68 36 -90s53 -33 87 -33s63.167 11 87.5 33s36.5 52 36.5 90s-12.167 68.167 -36.5 90.5s-53.5 33.5 -87.5 33.5zM182 636l-29 -0.000976562v-48c4.66699 -1.33301 10.167 -2.66602 16.5 -3.99902s12.5 -2 18.5 -2
c10.667 0 19.167 2.16699 25.5 6.5s9.5 11.833 9.5 22.5c0 8.66699 -3.16699 15 -9.5 19s-16.833 6 -31.5 6zM120 502.999c2.66699 3.33301 4.00098 12.168 4.00098 26.501v41.5v20v43c0 15.333 -1.33301 24.666 -4 27.999h69c24.667 0 42 -4.83301 52 -14.5
s15 -21.834 15 -36.501c0 -14 -3.83301 -24.5 -11.5 -31.5s-16.834 -11.833 -27.501 -14.5c5.33301 -19.333 13.166 -32 23.499 -38s18.5 -10 24.5 -12v-12h-10c-9.33301 0 -21.166 2.83301 -35.499 8.5s-25.833 22.834 -34.5 51.501c-6.66699 0.666992 -12.667 1.5 -18 2.5
s-10 2.16699 -14 3.5c0 -13.333 0.166992 -27 0.5 -41s1.83301 -22.333 4.5 -25h-38z" />
    <glyph glyph-name="macron" unicode="&#xaf;" horiz-adv-x="346" 
d="M41 637h265v-42h-265v42z" />
    <glyph glyph-name="degree" unicode="&#xb0;" horiz-adv-x="291" 
d="M145 512c-31.333 0 -58 10.667 -80 32s-33 47.666 -33 78.999c0 32 11 58.667 33 80s48.667 32 80 32s58 -10.667 80 -32s33 -48 33 -80c0 -31.333 -11 -57.666 -33 -78.999s-48.667 -32 -80 -32zM145 703c-22.667 0 -41.834 -7.66699 -57.501 -23
s-23.5 -34.333 -23.5 -57s7.83301 -41.667 23.5 -57s34.834 -23 57.501 -23s41.834 7.66699 57.501 23s23.5 34.333 23.5 57s-7.83301 41.667 -23.5 57s-34.834 23 -57.501 23z" />
    <glyph glyph-name="plusminus" unicode="&#xb1;" horiz-adv-x="514" 
d="M267 501v-203h204v-39h-204v-168h204v-39h-446v39h203v168h-203v39h203v203h39z" />
    <glyph glyph-name="twosuperior" unicode="&#xb2;" horiz-adv-x="298" 
d="M147 587c24.667 0 46.6689 -7.00098 66.002 -21.001s29 -35 29 -63c0 -17.333 -4.83301 -34.5 -14.5 -51.5s-21.834 -32.833 -36.501 -47.5s-31 -28.167 -49 -40.5s-35.333 -22.833 -52 -31.5c16.667 0 32.5 -0.333008 47.5 -1s31.5 -1 49.5 -1
c13.333 0 26.166 1.5 38.499 4.5s23.833 11.167 34.5 24.5l14 -11c-10.667 -22 -24 -37.833 -40 -47.5s-34 -14.5 -54 -14.5c-24.667 0 -48 1.5 -70 4.5s-43.333 4.5 -64 4.5h-25v14c54 27.333 94.833 58.333 122.5 93s41.5 72 41.5 112
c0 18.667 -4.33301 32.334 -13 41.001s-18.667 13 -30 13c-16.667 0 -31.5 -7.16699 -44.5 -21.5s-20.5 -32.833 -22.5 -55.5l-50 28c14 22.667 31.167 39.667 51.5 51s43.833 17 70.5 17z" />
    <glyph glyph-name="threesuperior" unicode="&#xb3;" horiz-adv-x="315" 
d="M210 373c0 15.333 -4.83398 29.333 -14.501 42s-25.834 19.334 -48.501 20.001c-6.66699 0 -13.667 -0.833008 -21 -2.5s-14 -3.83398 -20 -6.50098v37c6.66699 -2.66699 13.5 -4.83398 20.5 -6.50098s13.833 -2.5 20.5 -2.5c21.333 0 36.5 6 45.5 18
s13.5 25.667 13.5 41c0 14.667 -3.66699 27.334 -11 38.001s-20.333 16 -39 16s-34.5 -5.5 -47.5 -16.5s-21.833 -25.5 -26.5 -43.5l-38 34c14 13.333 31.333 24.333 52 33s42 13 64 13c28 0 51.833 -6.16699 71.5 -18.5s29.5 -31.166 29.5 -56.499
c0 -14.667 -5.5 -28 -16.5 -40s-26.167 -20.333 -45.5 -25c24 -4.66699 41.667 -14.5 53 -29.5s17 -30.167 17 -45.5c0 -26.667 -10 -47.834 -30 -63.501s-47 -23.5 -81 -23.5c-25.333 0 -47.666 4.5 -66.999 13.5s-36.666 22.5 -51.999 40.5l40 30
c6.66699 -20.667 16.167 -36.5 28.5 -47.5s26.833 -16.5 43.5 -16.5c20 0 34.833 6.83301 44.5 20.5s14.5 29.5 14.5 47.5z" />
    <glyph glyph-name="acute" unicode="&#xb4;" horiz-adv-x="189" 
d="M4 647l-12.001 12l148 179c8 -13.333 16.333 -25.5 25 -36.5s18.334 -20.833 29.001 -29.5c-35.333 -16 -68.5 -34.5 -99.5 -55.5s-61.167 -44.167 -90.5 -69.5z" />
    <glyph glyph-name="mu" unicode="&#xb5;" horiz-adv-x="603" 
d="M503 -7c-22.667 0 -41.666 9.33301 -56.999 28s-24 53.334 -26 104.001c-12.667 -34 -33.167 -64.5 -61.5 -91.5s-60.833 -40.5 -97.5 -40.5c-20.667 0 -41 3.66699 -61 11s-37 21.666 -51 42.999v-67c0 -20.667 1.16699 -40 3.5 -58s6.83301 -32.333 13.5 -43
c-14.667 -2.66699 -28 -6.16699 -40 -10.5s-24.333 -10.166 -37 -17.499v498c0 20.667 -1.16699 40 -3.5 58s-6.83301 32.333 -13.5 43c14.667 2.66699 28 6.16699 40 10.5s24.333 10.166 37 17.499v-289c0 -55.333 11.167 -94.5 33.5 -117.5s47.833 -34.5 76.5 -34.5
c36 0 70.667 15.833 104 47.5s50 70.834 50 117.501v147c0 20.667 -1.16699 40 -3.5 58s-6.83301 32.333 -13.5 43c14.667 2.66699 28.667 6.16699 42 10.5s26.333 10.166 39 17.499v-363c0 -32.667 5.66699 -55.667 17 -69s24.666 -20 39.999 -20
c4 0 8.16699 0.333008 12.5 1s8.83301 1.66699 13.5 3v-18c-8.66699 -7.33301 -18 -12.333 -28 -15s-19.667 -4 -29 -4z" />
    <glyph glyph-name="paragraph" unicode="&#xb6;" horiz-adv-x="428" 
d="M264 609l0.000976562 -609.001h-48v324c-7.33301 -1.33301 -14.833 -2.33301 -22.5 -3s-14.834 -1 -21.501 -1c-51.333 0 -89.833 15.333 -115.5 46s-38.5 67.334 -38.5 110.001c0 50 17 88.833 51 116.5s89.333 41.5 166 41.5h152v-634h-48v609h-75zM216.001 608.999
c-46.667 0 -78.833 -10.832 -96.5 -32.499s-26.5 -55.834 -26.5 -102.501c0 -38 9.16699 -68.333 27.5 -91s45.5 -34 81.5 -34c2 0 4.16699 0.166992 6.5 0.5s4.83301 0.5 7.5 0.5v259z" />
    <glyph glyph-name="cedilla" unicode="&#xb8;" horiz-adv-x="267" 
d="M98 0l29.001 0.000976562v-61c3.33301 0.666992 7.5 1 12.5 1h13.5c24.667 0 46.667 -6.16699 66 -18.5s29 -31.833 29 -58.5c0 -31.333 -11.833 -53.5 -35.5 -66.5s-50.5 -19.5 -80.5 -19.5c-21.333 0 -42.5 3.16699 -63.5 9.5s-38.833 12.833 -53.5 19.5l8 22
c10.667 -4 25.167 -8.16699 43.5 -12.5s36.5 -6.5 54.5 -6.5c18.667 0 34.834 3.66699 48.501 11s20.5 21.333 20.5 42s-7 34 -21 40s-26.333 9 -37 9c-4.66699 0 -10.334 -0.333008 -17.001 -1s-12.334 -1.33398 -17.001 -2.00098v92z" />
    <glyph glyph-name="onesuperior" unicode="&#xb9;" horiz-adv-x="209" 
d="M148 285h-67.002c4.66699 21.333 6.83398 42.333 6.50098 63s-0.5 40.334 -0.5 59.001v128l-48 -29l-10 19l113 73v-191c0 -18.667 -0.166992 -38.334 -0.5 -59.001s1.83398 -41.667 6.50098 -63z" />
    <glyph glyph-name="ordmasculine" unicode="&#xba;" horiz-adv-x="407" 
d="M208 285c-46.667 0 -84.167 14.167 -112.5 42.5s-42.5 64.5 -42.5 108.5c0 40 13.333 75.167 40 105.5s65 45.5 115 45.5c46.667 0 84.167 -14.167 112.5 -42.5s42.5 -64.5 42.5 -108.5c0 -40 -13.333 -75.167 -40 -105.5s-65 -45.5 -115 -45.5zM208 306
c28.667 0 51.667 12.5 69 37.5s26 56.167 26 93.5c0 38 -8.66699 68.833 -26 92.5s-40.333 35.834 -69 36.501c-28.667 0 -51.667 -12.5 -69 -37.5s-26 -56.167 -26 -93.5c0 -38 8.66699 -68.833 26 -92.5s40.333 -35.834 69 -36.501z" />
    <glyph glyph-name="guillemotright" unicode="&#xbb;" horiz-adv-x="397" 
d="M175 76l-4 5c26 43.333 46.833 76.666 62.5 99.999l39.5 58l-39.5 58c-15.667 23.333 -36.5 56.666 -62.5 99.999l4 5c28.667 -29.333 58.167 -57.166 88.5 -83.499l88.5 -79.5l-88.5 -79.5c-30.333 -26.333 -59.833 -54.166 -88.5 -83.499zM42 76l-4 5
c25.333 43.333 46 76.666 62 99.999l40 58l-40 58c-16 23.333 -36.667 56.666 -62 99.999l4 5c28.667 -29.333 58 -57.166 88 -83.499l89 -79.5l-89 -79.5c-30 -26.333 -59.333 -54.166 -88 -83.499z" />
    <glyph glyph-name="onequarter" unicode="&#xbc;" horiz-adv-x="544" 
d="M128 285h-67.002c4.66699 21.333 6.83398 42.333 6.50098 63s-0.5 40.334 -0.5 59.001v128l-48 -29l-10 19l113 73v-191c0 -18.667 -0.166992 -38.334 -0.5 -59.001s1.83398 -41.667 6.50098 -63zM59.998 0h-48l422 580h49zM482.998 0h-62.999c2 7.33301 3.5 17 4.5 29
s1.5 23.667 1.5 35v17h-160l211 244v-216c8 0.666992 16.333 2.16699 25 4.5s16.667 5.83301 24 10.5l10 -14c-11.333 -10 -21.833 -16.833 -31.5 -20.5s-18.834 -6.16699 -27.501 -7.5v-18c0 -11.333 0.5 -23 1.5 -35s2.5 -21.667 4.5 -29zM425.999 227l-104 -119h104v119z
" />
    <glyph glyph-name="onehalf" unicode="&#xbd;" horiz-adv-x="552" 
d="M128 285h-67.002c4.66699 21.333 6.83398 42.333 6.50098 63s-0.5 40.334 -0.5 59.001v128l-48 -29l-10 19l113 73v-191c0 -18.667 -0.166992 -38.334 -0.5 -59.001s1.83398 -41.667 6.50098 -63zM59.998 0h-48l422 580h49zM420.998 296
c24.667 0 46.6689 -7.00098 66.002 -21.001s29 -35 29 -63c0 -17.333 -4.83301 -34.5 -14.5 -51.5s-21.834 -32.833 -36.501 -47.5s-31 -28.167 -49 -40.5s-35.333 -22.833 -52 -31.5c16.667 0 32.5 -0.333008 47.5 -1s31.5 -1 49.5 -1c13.333 0 26.166 1.5 38.499 4.5
s23.833 11.167 34.5 24.5l14 -11c-10.667 -22 -24 -37.833 -40 -47.5s-34 -14.5 -54 -14.5c-24.667 0 -48 1.5 -70 4.5s-43.333 4.5 -64 4.5h-25v14c54 27.333 94.833 58.333 122.5 93s41.5 72 41.5 112c0 18.667 -4.33301 32.334 -13 41.001s-18.667 13 -30 13
c-16.667 0 -31.5 -7.16699 -44.5 -21.5s-20.5 -32.833 -22.5 -55.5l-50 28c14 22.667 31.167 39.667 51.5 51s43.833 17 70.5 17z" />
    <glyph glyph-name="threequarters" unicode="&#xbe;" horiz-adv-x="679" 
d="M160 0h-48l422 580h49zM210 373c0 15.333 -4.83398 29.333 -14.501 42s-25.834 19.334 -48.501 20.001c-6.66699 0 -13.667 -0.833008 -21 -2.5s-14 -3.83398 -20 -6.50098v37c6.66699 -2.66699 13.5 -4.83398 20.5 -6.50098s13.833 -2.5 20.5 -2.5
c21.333 0 36.5 6 45.5 18s13.5 25.667 13.5 41c0 14.667 -3.66699 27.334 -11 38.001s-20.333 16 -39 16s-34.5 -5.5 -47.5 -16.5s-21.833 -25.5 -26.5 -43.5l-38 34c14 13.333 31.333 24.333 52 33s42 13 64 13c28 0 51.833 -6.16699 71.5 -18.5s29.5 -31.166 29.5 -56.499
c0 -14.667 -5.5 -28 -16.5 -40s-26.167 -20.333 -45.5 -25c24 -4.66699 41.667 -14.5 53 -29.5s17 -30.167 17 -45.5c0 -26.667 -10 -47.834 -30 -63.501s-47 -23.5 -81 -23.5c-25.333 0 -47.666 4.5 -66.999 13.5s-36.666 22.5 -51.999 40.5l40 30
c6.66699 -20.667 16.167 -36.5 28.5 -47.5s26.833 -16.5 43.5 -16.5c20 0 34.833 6.83301 44.5 20.5s14.5 29.5 14.5 47.5zM582.999 0h-62.999c2 7.33301 3.5 17 4.5 29s1.5 23.667 1.5 35v17h-160l211 244v-216c8 0.666992 16.333 2.16699 25 4.5s16.667 5.83301 24 10.5
l10 -14c-11.333 -10 -21.833 -16.833 -31.5 -20.5s-18.834 -6.16699 -27.501 -7.5v-18c0 -11.333 0.5 -23 1.5 -35s2.5 -21.667 4.5 -29zM526 227l-104 -119h104v119z" />
    <glyph glyph-name="questiondown" unicode="&#xbf;" horiz-adv-x="329" 
d="M214 433c0 -14.667 -6 -28 -18 -40s-23.333 -22.333 -34 -31c-10.667 8.66699 -22 19 -34 31s-18 25.333 -18 40c0 13.333 4.83301 24.666 14.5 33.999s22.167 14 37.5 14s27.833 -4.66699 37.5 -14s14.5 -20.666 14.5 -33.999zM289 -115
c2.66699 -10.667 7.00195 -21.6611 13.002 -32.9941s13.333 -20.333 22 -27c-22.667 -18.667 -48.334 -33.334 -77.001 -44.001s-60 -16 -94 -16c-34.667 0 -68.334 9 -101.001 27s-49 48 -49 90c0 32.667 10 61.667 30 87s42 49 66 71s46 43.667 66 65s30 44.666 30 69.999
c0 22 -6.83301 39.333 -20.5 52s-30.834 19 -51.501 19c-4.66699 0 -9.5 -0.333008 -14.5 -1l-14.5 -2l-4 15c6.66699 3.33301 15 5.83301 25 7.5s19.333 2.5 28 2.5c30 0 54.833 -10.5 74.5 -31.5s29.5 -45.5 29.5 -73.5c0 -32 -9.66699 -59.833 -29 -83.5
s-40.666 -45.834 -63.999 -66.501s-44.666 -41.834 -63.999 -63.501s-29 -46.834 -29 -75.501c0 -30.667 10 -52.334 30 -65.001s40 -19 60 -19c28 0 54.167 8.83301 78.5 26.5s44.166 40.5 59.499 68.5z" />
    <glyph glyph-name="Agrave" unicode="&#xc0;" horiz-adv-x="602" 
d="M302 714l-12.001 -12c-29.333 25.333 -59.5 48.5 -90.5 69.5s-64.167 39.5 -99.5 55.5c10.667 8.66699 20.334 18.5 29.001 29.5s17 23.167 25 36.5zM413.999 244l-127 289l-128 -289h255zM143.999 210c-18 -41.333 -33.835 -80.999 -47.502 -118.999
s-21.5 -68.333 -23.5 -91h-68c17.333 31.333 34.666 66.166 51.999 104.499l54 120.5l146 323c6.66699 15.333 7.83398 28.5 3.50098 39.5s-9.83301 21.833 -16.5 32.5l67 34c4.66699 -16.667 11.334 -36.5 20.001 -59.5s20.334 -51.5 35.001 -85.5l148 -336
c12.667 -29.333 26.167 -58.833 40.5 -88.5l42.5 -84.5h-94c-4 34 -14.167 70.667 -30.5 110l-42.5 100h-286z" />
    <glyph glyph-name="Aacute" unicode="&#xc1;" horiz-adv-x="602" 
d="M255 702l-12.001 12l148 179c8 -13.333 16.333 -25.5 25 -36.5s18.334 -20.833 29.001 -29.5c-35.333 -16 -68.5 -34.5 -99.5 -55.5s-61.167 -44.167 -90.5 -69.5zM413.999 244l-127 289l-128 -289h255zM143.999 210c-18 -41.333 -33.835 -80.999 -47.502 -118.999
s-21.5 -68.333 -23.5 -91h-68c17.333 31.333 34.666 66.166 51.999 104.499l54 120.5l146 323c6.66699 15.333 7.83398 28.5 3.50098 39.5s-9.83301 21.833 -16.5 32.5l67 34c4.66699 -16.667 11.334 -36.5 20.001 -59.5s20.334 -51.5 35.001 -85.5l148 -336
c12.667 -29.333 26.167 -58.833 40.5 -88.5l42.5 -84.5h-94c-4 34 -14.167 70.667 -30.5 110l-42.5 100h-286z" />
    <glyph glyph-name="Acircumflex" unicode="&#xc2;" horiz-adv-x="602" 
d="M442 702c-26 10.667 -51.167 21.834 -75.5 33.501s-47.833 24.834 -70.5 39.501c-22.667 -14.667 -46.167 -27.834 -70.5 -39.501s-49.5 -22.834 -75.5 -33.501l-10 12l136 121h40l136 -121zM414 244l-127 289l-128 -289h255zM144 210
c-18 -41.333 -33.835 -80.999 -47.502 -118.999s-21.5 -68.333 -23.5 -91h-68c17.333 31.333 34.666 66.166 51.999 104.499l54 120.5l146 323c6.66699 15.333 7.83398 28.5 3.50098 39.5s-9.83301 21.833 -16.5 32.5l67 34c4.66699 -16.667 11.334 -36.5 20.001 -59.5
s20.334 -51.5 35.001 -85.5l148 -336c12.667 -29.333 26.167 -58.833 40.5 -88.5l42.5 -84.5h-94c-4 34 -14.167 70.667 -30.5 110l-42.5 100h-286z" />
    <glyph glyph-name="Atilde" unicode="&#xc3;" horiz-adv-x="602" 
d="M373 702c-13.333 0 -27 2.99902 -41 8.99902s-27.333 12.333 -40 19l-37 19c-12 6 -22.667 9 -32 9c-10.667 0 -21.5 -2.66699 -32.5 -8s-21.833 -14.333 -32.5 -27l-15 9c13.333 22 28.666 40.5 45.999 55.5s35.333 22.5 54 22.5c13.333 0 26.833 -2.83301 40.5 -8.5
s27 -12 40 -19s25.333 -13.333 37 -19s22.5 -8.5 32.5 -8.5c10.667 0 21.5 2.5 32.5 7.5s21.833 13.833 32.5 26.5l15 -9c-13.333 -21.333 -28.666 -39.666 -45.999 -54.999s-35.333 -23 -54 -23zM414 243.999l-127 289l-128 -289h255zM144 209.999
c-18 -41.333 -33.835 -80.999 -47.502 -118.999s-21.5 -68.333 -23.5 -91h-68c17.333 31.333 34.666 66.166 51.999 104.499l54 120.5l146 323c6.66699 15.333 7.83398 28.5 3.50098 39.5s-9.83301 21.833 -16.5 32.5l67 34c4.66699 -16.667 11.334 -36.5 20.001 -59.5
s20.334 -51.5 35.001 -85.5l148 -336c12.667 -29.333 26.167 -58.833 40.5 -88.5l42.5 -84.5h-94c-4 34 -14.167 70.667 -30.5 110l-42.5 100h-286z" />
    <glyph glyph-name="Adieresis" unicode="&#xc4;" horiz-adv-x="602" 
d="M371 689c-12.667 0 -23.334 4.16699 -32.001 12.5s-13 18.833 -13 31.5c0 13.333 4.83301 25 14.5 35s19.834 19.333 30.501 28c10.667 -8.66699 20.834 -18 30.501 -28s14.5 -21.667 14.5 -35c0 -12.667 -4.33301 -23.167 -13 -31.5s-19.334 -12.5 -32.001 -12.5z
M201 689c-12.667 0 -23.334 4.16699 -32.001 12.5s-13 18.833 -13 31.5c0 13.333 4.83301 25 14.5 35s19.834 19.333 30.501 28c10.667 -8.66699 20.834 -18 30.501 -28s14.5 -21.667 14.5 -35c0 -12.667 -4.33301 -23.167 -13 -31.5s-19.334 -12.5 -32.001 -12.5zM414 244
l-127 289l-128 -289h255zM144 210c-18 -41.333 -33.835 -80.999 -47.502 -118.999s-21.5 -68.333 -23.5 -91h-68c17.333 31.333 34.666 66.166 51.999 104.499l54 120.5l146 323c6.66699 15.333 7.83398 28.5 3.50098 39.5s-9.83301 21.833 -16.5 32.5l67 34
c4.66699 -16.667 11.334 -36.5 20.001 -59.5s20.334 -51.5 35.001 -85.5l148 -336c12.667 -29.333 26.167 -58.833 40.5 -88.5l42.5 -84.5h-94c-4 34 -14.167 70.667 -30.5 110l-42.5 100h-286z" />
    <glyph glyph-name="Aring" unicode="&#xc5;" horiz-adv-x="602" 
d="M300 765c-16.667 0 -31 -5.66699 -43 -17s-18 -26.333 -18 -45s6 -33.5 18 -44.5s26.333 -16.5 43 -16.5s31.167 5.5 43.5 16.5s18.5 25.833 18.5 44.5s-6.16699 33.667 -18.5 45s-26.833 17 -43.5 17zM414 244l-127 289l-128 -289h255zM284 610
c-22 2.66699 -40.499 12.334 -55.499 29.001s-22.5 38 -22.5 64c0 28.667 9.16699 51.5 27.5 68.5s40.5 25.5 66.5 25.5s48.167 -8.5 66.5 -25.5s27.5 -39.833 27.5 -68.5c0 -24.667 -7.16699 -45.167 -21.5 -61.5s-31.833 -26.5 -52.5 -30.5l194 -438
c12.667 -29.333 26.167 -58.833 40.5 -88.5l42.5 -84.5h-94c-4 34 -14.167 70.667 -30.5 110l-42.5 100h-286c-18 -41.333 -33.833 -81 -47.5 -119s-21.5 -68.333 -23.5 -91h-68c17.333 31.333 34.666 66.166 51.999 104.499l54 120.5z" />
    <glyph glyph-name="AE" unicode="&#xc6;" horiz-adv-x="996" 
d="M537 244v342l-244 -342h244zM825 0l-300.998 -0.00390625c4.66699 20.667 7.83398 48.834 9.50098 84.501s2.83398 77.5 3.50098 125.5h-269c-30.667 -42 -57.334 -82 -80.001 -120s-38 -68 -46 -90h-83c26.667 30.667 54.667 65.334 84 104.001l90 121l238 330
c13.333 20.667 20.666 35.834 21.999 45.501s-0.333984 20.834 -5.00098 33.501h396l10 -74c-20 12.667 -46.5 23 -79.5 31s-66.5 12 -100.5 12h-47c-22.667 0 -40 -3 -52 -9s-18 -25 -18 -57v-154c0 -12 1.66699 -20 5 -24s8.66602 -5.66699 15.999 -5l239 6v-42l-239 7
c-7.33301 0 -12.666 -2.33301 -15.999 -7s-5 -12 -5 -22v-199c0 -32 6 -51 18 -57s29.333 -9 52 -9h56c24.667 0 53.667 3.33301 87 10s63.666 17.667 90.999 33l-11 -78c-10 1.33301 -20.333 2.33301 -31 3s-22 1 -34 1z" />
    <glyph glyph-name="Ccedilla" unicode="&#xc7;" horiz-adv-x="665" 
d="M597 94c3.33301 -10.667 7.16699 -20.3291 11.5 -28.9961s8.83301 -15.667 13.5 -21c-31.333 -18.667 -67.833 -33.334 -109.5 -44.001s-83.167 -16.334 -124.5 -17.001v-44c3.33301 0.666992 7.5 1 12.5 1h13.5c24.667 0 46.667 -6.16699 66 -18.5s29 -31.833 29 -58.5
c0 -31.333 -11.833 -53.5 -35.5 -66.5s-50.5 -19.5 -80.5 -19.5c-21.333 0 -42.5 3.16699 -63.5 9.5s-38.833 12.833 -53.5 19.5l8 22c10.667 -4 25.167 -8.16699 43.5 -12.5s36.5 -6.5 54.5 -6.5c18.667 0 34.834 3.66699 48.501 11s20.5 21.333 20.5 42s-7 34 -21 40
s-26.333 9 -37 9c-4.66699 0 -10.334 -0.333008 -17.001 -1s-12.334 -1.33398 -17.001 -2.00098v76c-94 4.66699 -169 36.5 -225 95.5s-84 133.833 -84 224.5c0 102 30.333 184 91 246s142.667 93 246 93c40 0 82 -4.83301 126 -14.5s83.333 -25.5 118 -47.5
c-8 -11.333 -14.667 -22.333 -20 -33s-10 -21.334 -14 -32.001c-24 28.667 -54.333 52.667 -91 72s-76.334 29 -119.001 29c-44 0 -82.667 -8.5 -116 -25.5s-60.833 -39.667 -82.5 -68s-38 -61 -49 -98s-16.5 -75.5 -16.5 -115.5c0 -47.333 7.5 -89.5 22.5 -126.5
s34.833 -68 59.5 -93s52.834 -44 84.501 -57s63.834 -19.5 96.501 -19.5c36 0 72 6.83301 108 20.5s70.333 33.5 103 59.5z" />
    <glyph glyph-name="Egrave" unicode="&#xc8;" horiz-adv-x="547" 
d="M354 715l-12.001 -12c-29.333 25.333 -59.5 48.5 -90.5 69.5s-64.167 39.5 -99.5 55.5c10.667 8.66699 20.334 18.5 29.001 29.5s17 23.167 25 36.5zM410.999 0l-300.999 -0.00195312c6 22.667 9.66699 54.834 11 96.501s2 91.167 2 148.5v144
c0 57.333 -0.666992 106.833 -2 148.5s-5 73.834 -11 96.501h360l10 -74c-20 12.667 -46.5 23 -79.5 31s-66.5 12 -100.5 12h-47c-22.667 0 -40 -3 -52 -9s-18 -25 -18 -57v-154c0 -12 1.66699 -20 5 -24s8.66602 -5.66699 15.999 -5l239 6v-42l-239 7
c-7.33301 0 -12.666 -2.33301 -15.999 -7s-5 -12 -5 -22v-199c0 -32 6 -51 18 -57s29.333 -9 52 -9h56c24.667 0 53.667 3.33301 87 10s63.666 17.667 90.999 33l-11 -78c-10 1.33301 -20.333 2.33301 -31 3s-22 1 -34 1z" />
    <glyph glyph-name="Eacute" unicode="&#xc9;" horiz-adv-x="547" 
d="M228 703l-12.001 12l148 179c8 -13.333 16.333 -25.5 25 -36.5s18.334 -20.833 29.001 -29.5c-35.333 -16 -68.5 -34.5 -99.5 -55.5s-61.167 -44.167 -90.5 -69.5zM410.999 0l-300.999 -0.00195312c6 22.667 9.66699 54.834 11 96.501s2 91.167 2 148.5v144
c0 57.333 -0.666992 106.833 -2 148.5s-5 73.834 -11 96.501h360l10 -74c-20 12.667 -46.5 23 -79.5 31s-66.5 12 -100.5 12h-47c-22.667 0 -40 -3 -52 -9s-18 -25 -18 -57v-154c0 -12 1.66699 -20 5 -24s8.66602 -5.66699 15.999 -5l239 6v-42l-239 7
c-7.33301 0 -12.666 -2.33301 -15.999 -7s-5 -12 -5 -22v-199c0 -32 6 -51 18 -57s29.333 -9 52 -9h56c24.667 0 53.667 3.33301 87 10s63.666 17.667 90.999 33l-11 -78c-10 1.33301 -20.333 2.33301 -31 3s-22 1 -34 1z" />
    <glyph glyph-name="Ecircumflex" unicode="&#xca;" horiz-adv-x="547" 
d="M440 702c-26 10.667 -51.167 21.834 -75.5 33.501s-47.833 24.834 -70.5 39.501c-22.667 -14.667 -46.167 -27.834 -70.5 -39.501s-49.5 -22.834 -75.5 -33.501l-10 12l136 121h40l136 -121zM411 0l-300.999 -0.00195312c6 22.667 9.66699 54.834 11 96.501
s2 91.167 2 148.5v144c0 57.333 -0.666992 106.833 -2 148.5s-5 73.834 -11 96.501h360l10 -74c-20 12.667 -46.5 23 -79.5 31s-66.5 12 -100.5 12h-47c-22.667 0 -40 -3 -52 -9s-18 -25 -18 -57v-154c0 -12 1.66699 -20 5 -24s8.66602 -5.66699 15.999 -5l239 6v-42l-239 7
c-7.33301 0 -12.666 -2.33301 -15.999 -7s-5 -12 -5 -22v-199c0 -32 6 -51 18 -57s29.333 -9 52 -9h56c24.667 0 53.667 3.33301 87 10s63.666 17.667 90.999 33l-11 -78c-10 1.33301 -20.333 2.33301 -31 3s-22 1 -34 1z" />
    <glyph glyph-name="Edieresis" unicode="&#xcb;" horiz-adv-x="547" 
d="M375 703c-12.667 0 -23.334 4.16699 -32.001 12.5s-13 18.833 -13 31.5c0 13.333 4.83301 25 14.5 35s19.834 19.333 30.501 28c10.667 -8.66699 20.834 -18 30.501 -28s14.5 -21.667 14.5 -35c0 -12.667 -4.33301 -23.167 -13 -31.5s-19.334 -12.5 -32.001 -12.5z
M205 703c-12.667 0 -23.334 4.16699 -32.001 12.5s-13 18.833 -13 31.5c0 13.333 4.83301 25 14.5 35s19.834 19.333 30.501 28c10.667 -8.66699 20.834 -18 30.501 -28s14.5 -21.667 14.5 -35c0 -12.667 -4.33301 -23.167 -13 -31.5s-19.334 -12.5 -32.001 -12.5zM411 0
l-300.999 -0.00195312c6 22.667 9.66699 54.834 11 96.501s2 91.167 2 148.5v144c0 57.333 -0.666992 106.833 -2 148.5s-5 73.834 -11 96.501h360l10 -74c-20 12.667 -46.5 23 -79.5 31s-66.5 12 -100.5 12h-47c-22.667 0 -40 -3 -52 -9s-18 -25 -18 -57v-154
c0 -12 1.66699 -20 5 -24s8.66602 -5.66699 15.999 -5l239 6v-42l-239 7c-7.33301 0 -12.666 -2.33301 -15.999 -7s-5 -12 -5 -22v-199c0 -32 6 -51 18 -57s29.333 -9 52 -9h56c24.667 0 53.667 3.33301 87 10s63.666 17.667 90.999 33l-11 -78
c-10 1.33301 -20.333 2.33301 -31 3s-22 1 -34 1z" />
    <glyph glyph-name="Igrave" unicode="&#xcc;" horiz-adv-x="316" 
d="M197 714l-12.001 -12c-29.333 25.333 -59.5 48.5 -90.5 69.5s-64.167 39.5 -99.5 55.5c10.667 8.66699 20.334 18.5 29.001 29.5s17 23.167 25 36.5zM187.999 389v-151.002c0 -55.333 0.666992 -103.166 2 -143.499s5 -71.833 11 -94.5h-86
c6 22.667 9.66699 54.834 11 96.501s2 91.167 2 148.5v144c0 57.333 -0.666992 106.833 -2 148.5s-5 73.834 -11 96.501h86c-6 -22.667 -9.66699 -54.834 -11 -96.501s-2 -91.167 -2 -148.5z" />
    <glyph glyph-name="Iacute" unicode="&#xcd;" horiz-adv-x="316" 
d="M133 703l-12.001 12l148 179c8 -13.333 16.333 -25.5 25 -36.5s18.334 -20.833 29.001 -29.5c-35.333 -16 -68.5 -34.5 -99.5 -55.5s-61.167 -44.167 -90.5 -69.5zM187.999 389v-151.002c0 -55.333 0.666992 -103.166 2 -143.499s5 -71.833 11 -94.5h-86
c6 22.667 9.66699 54.834 11 96.501s2 91.167 2 148.5v144c0 57.333 -0.666992 106.833 -2 148.5s-5 73.834 -11 96.501h86c-6 -22.667 -9.66699 -54.834 -11 -96.501s-2 -91.167 -2 -148.5z" />
    <glyph glyph-name="Icircumflex" unicode="&#xce;" horiz-adv-x="316" 
d="M305 703c-26 10.667 -51.167 21.834 -75.5 33.501s-47.833 24.834 -70.5 39.501c-22.667 -14.667 -46.167 -27.834 -70.5 -39.501s-49.5 -22.834 -75.5 -33.501l-10 12l136 121h40l136 -121zM188 389v-151.002c0 -55.333 0.666992 -103.166 2 -143.499
s5 -71.833 11 -94.5h-86c6 22.667 9.66699 54.834 11 96.501s2 91.167 2 148.5v144c0 57.333 -0.666992 106.833 -2 148.5s-5 73.834 -11 96.501h86c-6 -22.667 -9.66699 -54.834 -11 -96.501s-2 -91.167 -2 -148.5z" />
    <glyph glyph-name="Idieresis" unicode="&#xcf;" horiz-adv-x="316" 
d="M243 703c-12.667 0 -23.334 4.16699 -32.001 12.5s-13 18.833 -13 31.5c0 13.333 4.83301 25 14.5 35s19.834 19.333 30.501 28c10.667 -8.66699 20.834 -18 30.501 -28s14.5 -21.667 14.5 -35c0 -12.667 -4.33301 -23.167 -13 -31.5s-19.334 -12.5 -32.001 -12.5z
M73 703c-12.667 0 -23.334 4.16699 -32.001 12.5s-13 18.833 -13 31.5c0 13.333 4.83301 25 14.5 35s19.834 19.333 30.501 28c10.667 -8.66699 20.834 -18 30.501 -28s14.5 -21.667 14.5 -35c0 -12.667 -4.33301 -23.167 -13 -31.5s-19.334 -12.5 -32.001 -12.5zM188 389
v-151.002c0 -55.333 0.666992 -103.166 2 -143.499s5 -71.833 11 -94.5h-86c6 22.667 9.66699 54.834 11 96.501s2 91.167 2 148.5v144c0 57.333 -0.666992 106.833 -2 148.5s-5 73.834 -11 96.501h86c-6 -22.667 -9.66699 -54.834 -11 -96.501s-2 -91.167 -2 -148.5z" />
    <glyph glyph-name="Eth" unicode="&#xd0;" horiz-adv-x="732" 
d="M246 28h41c108.667 0 189.5 25.167 242.5 75.5s79.5 119.5 79.5 207.5c0 89.333 -25.5 160.833 -76.5 214.5s-132.167 80.5 -243.5 80.5h-43c-23.333 0 -39.833 -5 -49.5 -15s-14.5 -27 -14.5 -51v-198h18c35.333 0 68.5 0.833008 99.5 2.5s61.833 4.16699 92.5 7.5
l-13 -35c-22 -2 -43 -3.16699 -63 -3.5s-48 -0.5 -84 -0.5h-50v-219c0 -24 4.83301 -41 14.5 -51s26.167 -15 49.5 -15zM19 313l-1.00293 30.998c10.667 -0.666992 24.834 -1.16699 42.501 -1.5s34.5 -0.5 50.5 -0.5h12v47c0 57.333 -0.666992 106.833 -2 148.5
s-5 73.834 -11 96.501h215c114.667 0 202.834 -29.333 264.501 -88s92.5 -137 92.5 -235c0 -92.667 -30.667 -167.667 -92 -225s-155.666 -86 -282.999 -86h-197c6 22.667 9.66699 54.834 11 96.501s2 91.167 2 148.5v68h-104z" />
    <glyph glyph-name="Ntilde" unicode="&#xd1;" horiz-adv-x="764" 
d="M458 665c-13.333 0 -27 2.99902 -41 8.99902s-27.333 12.333 -40 19l-37 19c-12 6 -22.667 9 -32 9c-10.667 0 -21.5 -2.66699 -32.5 -8s-21.833 -14.333 -32.5 -27l-15 9c13.333 22 28.666 40.5 45.999 55.5s35.333 22.5 54 22.5c13.333 0 26.833 -2.83301 40.5 -8.5
s27 -12 40 -19s25.333 -13.333 37 -19s22.5 -8.5 32.5 -8.5c10.667 0 21.5 2.5 32.5 7.5s21.833 13.833 32.5 26.5l15 -9c-13.333 -21.333 -28.666 -39.666 -45.999 -54.999s-35.333 -23 -54 -23zM126 492.999v144h12l468 -523v27c0 28.667 0.166992 67.334 0.5 116.001
s0 98 -1 148s-2.66699 96.333 -5 139s-5.83301 72.667 -10.5 90h64c-4.66699 -17.333 -8.16699 -47.333 -10.5 -90s-4 -89 -5 -139s-1.33301 -99.333 -1 -148s0.5 -87.334 0.5 -116.001v-145h-12l-468 523v-26c0 -28.667 -0.166992 -67.334 -0.5 -116.001s0 -98 1 -148
s2.66699 -96.333 5 -139s5.83301 -72.667 10.5 -90h-64c4.66699 17.333 8.16699 47.333 10.5 90s4 89 5 139s1.33301 99.333 1 148s-0.5 87.334 -0.5 116.001z" />
    <glyph glyph-name="Ograve" unicode="&#xd2;" horiz-adv-x="786" 
d="M467 714l-12.001 -12c-29.333 25.333 -59.5 48.5 -90.5 69.5s-64.167 39.5 -99.5 55.5c10.667 8.66699 20.334 18.5 29.001 29.5s17 23.167 25 36.5zM735.999 320c0 -46 -8 -89.5 -24 -130.5s-38.833 -76.667 -68.5 -107s-65.834 -54.5 -108.501 -72.5s-90 -27 -142 -27
c-55.333 0 -104.333 8.83301 -147 26.5s-78.5 41.334 -107.5 71.001s-51 64.167 -66 103.5s-22.5 80 -22.5 122c0 46 8 89.5 24 130.5s38.833 76.667 68.5 107s65.834 54.5 108.501 72.5s90 27 142 27c55.333 0 104.333 -8.83301 147 -26.5s78.5 -41.334 107.5 -71.001
s51 -64.167 66 -103.5s22.5 -80 22.5 -122zM122.999 314c0 -38 6 -75.3369 18 -112.004s29.333 -69.167 52 -97.5s50.834 -51.166 84.501 -68.499s72.167 -26 115.5 -26c46 0 86 8.83301 120 26.5s62 40.834 84 69.501s38.5 61 49.5 97s16.5 72 16.5 108
c0 38 -6 75.333 -18 112s-29.333 69.334 -52 98.001s-50.834 51.667 -84.501 69s-72.167 26 -115.5 26c-46 0 -86 -9 -120 -27s-62 -41.167 -84 -69.5s-38.5 -60.666 -49.5 -96.999s-16.5 -72.5 -16.5 -108.5z" />
    <glyph glyph-name="Oacute" unicode="&#xd3;" horiz-adv-x="786" 
d="M327 703l-12.001 12l148 179c8 -13.333 16.333 -25.5 25 -36.5s18.334 -20.833 29.001 -29.5c-35.333 -16 -68.5 -34.5 -99.5 -55.5s-61.167 -44.167 -90.5 -69.5zM735.999 320c0 -46 -8 -89.5 -24 -130.5s-38.833 -76.667 -68.5 -107s-65.834 -54.5 -108.501 -72.5
s-90 -27 -142 -27c-55.333 0 -104.333 8.83301 -147 26.5s-78.5 41.334 -107.5 71.001s-51 64.167 -66 103.5s-22.5 80 -22.5 122c0 46 8 89.5 24 130.5s38.833 76.667 68.5 107s65.834 54.5 108.501 72.5s90 27 142 27c55.333 0 104.333 -8.83301 147 -26.5
s78.5 -41.334 107.5 -71.001s51 -64.167 66 -103.5s22.5 -80 22.5 -122zM122.999 314c0 -38 6 -75.3369 18 -112.004s29.333 -69.167 52 -97.5s50.834 -51.166 84.501 -68.499s72.167 -26 115.5 -26c46 0 86 8.83301 120 26.5s62 40.834 84 69.501s38.5 61 49.5 97
s16.5 72 16.5 108c0 38 -6 75.333 -18 112s-29.333 69.334 -52 98.001s-50.834 51.667 -84.501 69s-72.167 26 -115.5 26c-46 0 -86 -9 -120 -27s-62 -41.167 -84 -69.5s-38.5 -60.666 -49.5 -96.999s-16.5 -72.5 -16.5 -108.5z" />
    <glyph glyph-name="Ocircumflex" unicode="&#xd4;" horiz-adv-x="786" 
d="M538 703c-26 10.667 -51.167 21.834 -75.5 33.501s-47.833 24.834 -70.5 39.501c-22.667 -14.667 -46.167 -27.834 -70.5 -39.501s-49.5 -22.834 -75.5 -33.501l-10 12l136 121h40l136 -121zM736 320c0 -46 -8 -89.5 -24 -130.5s-38.833 -76.667 -68.5 -107
s-65.834 -54.5 -108.501 -72.5s-90 -27 -142 -27c-55.333 0 -104.333 8.83301 -147 26.5s-78.5 41.334 -107.5 71.001s-51 64.167 -66 103.5s-22.5 80 -22.5 122c0 46 8 89.5 24 130.5s38.833 76.667 68.5 107s65.834 54.5 108.501 72.5s90 27 142 27
c55.333 0 104.333 -8.83301 147 -26.5s78.5 -41.334 107.5 -71.001s51 -64.167 66 -103.5s22.5 -80 22.5 -122zM123 314c0 -38 6 -75.3369 18 -112.004s29.333 -69.167 52 -97.5s50.834 -51.166 84.501 -68.499s72.167 -26 115.5 -26c46 0 86 8.83301 120 26.5
s62 40.834 84 69.501s38.5 61 49.5 97s16.5 72 16.5 108c0 38 -6 75.333 -18 112s-29.333 69.334 -52 98.001s-50.834 51.667 -84.501 69s-72.167 26 -115.5 26c-46 0 -86 -9 -120 -27s-62 -41.167 -84 -69.5s-38.5 -60.666 -49.5 -96.999s-16.5 -72.5 -16.5 -108.5z" />
    <glyph glyph-name="Otilde" unicode="&#xd5;" horiz-adv-x="786" 
d="M463 705c-13.333 0 -27 2.99902 -41 8.99902s-27.333 12.333 -40 19l-37 19c-12 6 -22.667 9 -32 9c-10.667 0 -21.5 -2.66699 -32.5 -8s-21.833 -14.333 -32.5 -27l-15 9c13.333 22 28.666 40.5 45.999 55.5s35.333 22.5 54 22.5c13.333 0 26.833 -2.83301 40.5 -8.5
s27 -12 40 -19s25.333 -13.333 37 -19s22.5 -8.5 32.5 -8.5c10.667 0 21.5 2.5 32.5 7.5s21.833 13.833 32.5 26.5l15 -9c-13.333 -21.333 -28.666 -39.666 -45.999 -54.999s-35.333 -23 -54 -23zM736 319.999c0 -46 -8 -89.5 -24 -130.5s-38.833 -76.667 -68.5 -107
s-65.834 -54.5 -108.501 -72.5s-90 -27 -142 -27c-55.333 0 -104.333 8.83301 -147 26.5s-78.5 41.334 -107.5 71.001s-51 64.167 -66 103.5s-22.5 80 -22.5 122c0 46 8 89.5 24 130.5s38.833 76.667 68.5 107s65.834 54.5 108.501 72.5s90 27 142 27
c55.333 0 104.333 -8.83301 147 -26.5s78.5 -41.334 107.5 -71.001s51 -64.167 66 -103.5s22.5 -80 22.5 -122zM123 313.999c0 -38 6 -75.3369 18 -112.004s29.333 -69.167 52 -97.5s50.834 -51.166 84.501 -68.499s72.167 -26 115.5 -26c46 0 86 8.83301 120 26.5
s62 40.834 84 69.501s38.5 61 49.5 97s16.5 72 16.5 108c0 38 -6 75.333 -18 112s-29.333 69.334 -52 98.001s-50.834 51.667 -84.501 69s-72.167 26 -115.5 26c-46 0 -86 -9 -120 -27s-62 -41.167 -84 -69.5s-38.5 -60.666 -49.5 -96.999s-16.5 -72.5 -16.5 -108.5z" />
    <glyph glyph-name="Odieresis" unicode="&#xd6;" horiz-adv-x="786" 
d="M474 704c-12.667 0 -23.334 4.16699 -32.001 12.5s-13 18.833 -13 31.5c0 13.333 4.83301 25 14.5 35s19.834 19.333 30.501 28c10.667 -8.66699 20.834 -18 30.501 -28s14.5 -21.667 14.5 -35c0 -12.667 -4.33301 -23.167 -13 -31.5s-19.334 -12.5 -32.001 -12.5z
M304 704c-12.667 0 -23.334 4.16699 -32.001 12.5s-13 18.833 -13 31.5c0 13.333 4.83301 25 14.5 35s19.834 19.333 30.501 28c10.667 -8.66699 20.834 -18 30.501 -28s14.5 -21.667 14.5 -35c0 -12.667 -4.33301 -23.167 -13 -31.5s-19.334 -12.5 -32.001 -12.5zM736 320
c0 -46 -8 -89.5 -24 -130.5s-38.833 -76.667 -68.5 -107s-65.834 -54.5 -108.501 -72.5s-90 -27 -142 -27c-55.333 0 -104.333 8.83301 -147 26.5s-78.5 41.334 -107.5 71.001s-51 64.167 -66 103.5s-22.5 80 -22.5 122c0 46 8 89.5 24 130.5s38.833 76.667 68.5 107
s65.834 54.5 108.501 72.5s90 27 142 27c55.333 0 104.333 -8.83301 147 -26.5s78.5 -41.334 107.5 -71.001s51 -64.167 66 -103.5s22.5 -80 22.5 -122zM123 314c0 -38 6 -75.3369 18 -112.004s29.333 -69.167 52 -97.5s50.834 -51.166 84.501 -68.499s72.167 -26 115.5 -26
c46 0 86 8.83301 120 26.5s62 40.834 84 69.501s38.5 61 49.5 97s16.5 72 16.5 108c0 38 -6 75.333 -18 112s-29.333 69.334 -52 98.001s-50.834 51.667 -84.501 69s-72.167 26 -115.5 26c-46 0 -86 -9 -120 -27s-62 -41.167 -84 -69.5s-38.5 -60.666 -49.5 -96.999
s-16.5 -72.5 -16.5 -108.5z" />
    <glyph glyph-name="multiply" unicode="&#xd7;" horiz-adv-x="526" 
d="M57 130l172 155l-172 155l22 28l176 -159l177 159l22 -28l-172 -155l172 -155l-22 -28l-177 159l-176 -159z" />
    <glyph glyph-name="Oslash" unicode="&#xd8;" horiz-adv-x="786" 
d="M499 594c-15.333 6.66699 -32.001 11.999 -50.001 15.999s-36.667 6 -56 6c-46 0 -86 -9 -120 -27s-62 -41.167 -84 -69.5s-38.5 -60.666 -49.5 -96.999s-16.5 -72.5 -16.5 -108.5c0 -50 10.333 -98.5 31 -145.5s50.334 -84.5 89.001 -112.5zM272.999 37.999
c16.667 -8.66699 35.167 -15.502 55.5 -20.502s41.833 -7.5 64.5 -7.5c46 0 86 8.83301 120 26.5s62 40.834 84 69.501s38.5 61 49.5 97s16.5 72 16.5 108c0 52.667 -11.333 103.334 -34 152.001s-55.667 86.667 -99 114zM232.999 -45.0029h-37.999l30 63
c-56.667 27.333 -100 67.166 -130 119.499s-45 108.5 -45 168.5c0 46 8 89.5 24 130.5s38.833 76.667 68.5 107s65.834 54.5 108.501 72.5s90 27 142 27c22 0 43.167 -1.66699 63.5 -5s39.5 -7.66602 57.5 -12.999l23 48h39l-29 -60
c61.333 -26 108.166 -65.833 140.499 -119.5s48.5 -111.5 48.5 -173.5c0 -46 -8 -89.5 -24 -130.5s-38.833 -76.667 -68.5 -107s-65.834 -54.5 -108.501 -72.5s-90 -27 -142 -27c-25.333 0 -49.333 2 -72 6s-44 9.33301 -64 16z" />
    <glyph glyph-name="Ugrave" unicode="&#xd9;" horiz-adv-x="669" 
d="M421 685l-12.001 -12c-29.333 25.333 -59.5 48.5 -90.5 69.5s-64.167 39.5 -99.5 55.5c10.667 8.66699 20.334 18.5 29.001 29.5s17 23.167 25 36.5zM533.999 634l65.0068 0.000976562c-2.66699 -11.333 -4.83398 -29.333 -6.50098 -54s-2.83398 -53 -3.50098 -85
s-1 -66.833 -1 -104.5v-113.5c0 -96.667 -22.167 -169.834 -66.5 -219.501s-104.833 -74.5 -181.5 -74.5c-84 0 -148.167 24.167 -192.5 72.5s-66.5 124.833 -66.5 229.5v114c0 38 -0.333008 72.833 -1 104.5s-1.83398 59 -3.50098 82s-3.83398 39.167 -6.50098 48.5h85
c-2.66699 -8.66699 -4.83398 -23.667 -6.50098 -45s-2.83398 -46.666 -3.50098 -75.999s-1 -61.833 -1 -97.5v-107.5c0 -36 2.33301 -71.5 7 -106.5s13.834 -66.167 27.501 -93.5s33.5 -49.5 59.5 -66.5s60 -25.5 102 -25.5c56 0 104.167 21 144.5 63s60.5 106.667 60.5 194
v114.5c0 38.333 -0.333008 73.666 -1 105.999s-1.83398 60.833 -3.50098 85.5s-3.83398 43 -6.50098 55z" />
    <glyph glyph-name="Uacute" unicode="&#xda;" horiz-adv-x="669" 
d="M274 673l-12.001 12l148 179c8 -13.333 16.333 -25.5 25 -36.5s18.334 -20.833 29.001 -29.5c-35.333 -16 -68.5 -34.5 -99.5 -55.5s-61.167 -44.167 -90.5 -69.5zM533.999 634l65.0068 0.000976562c-2.66699 -11.333 -4.83398 -29.333 -6.50098 -54
s-2.83398 -53 -3.50098 -85s-1 -66.833 -1 -104.5v-113.5c0 -96.667 -22.167 -169.834 -66.5 -219.501s-104.833 -74.5 -181.5 -74.5c-84 0 -148.167 24.167 -192.5 72.5s-66.5 124.833 -66.5 229.5v114c0 38 -0.333008 72.833 -1 104.5s-1.83398 59 -3.50098 82
s-3.83398 39.167 -6.50098 48.5h85c-2.66699 -8.66699 -4.83398 -23.667 -6.50098 -45s-2.83398 -46.666 -3.50098 -75.999s-1 -61.833 -1 -97.5v-107.5c0 -36 2.33301 -71.5 7 -106.5s13.834 -66.167 27.501 -93.5s33.5 -49.5 59.5 -66.5s60 -25.5 102 -25.5
c56 0 104.167 21 144.5 63s60.5 106.667 60.5 194v114.5c0 38.333 -0.333008 73.666 -1 105.999s-1.83398 60.833 -3.50098 85.5s-3.83398 43 -6.50098 55z" />
    <glyph glyph-name="Ucircumflex" unicode="&#xdb;" horiz-adv-x="669" 
d="M489 683c-26 10.667 -51.167 21.834 -75.5 33.501s-47.833 24.834 -70.5 39.501c-22.667 -14.667 -46.167 -27.834 -70.5 -39.501s-49.5 -22.834 -75.5 -33.501l-10 12l136 121h40l136 -121zM534 634l65.0068 0.000976562
c-2.66699 -11.333 -4.83398 -29.333 -6.50098 -54s-2.83398 -53 -3.50098 -85s-1 -66.833 -1 -104.5v-113.5c0 -96.667 -22.167 -169.834 -66.5 -219.501s-104.833 -74.5 -181.5 -74.5c-84 0 -148.167 24.167 -192.5 72.5s-66.5 124.833 -66.5 229.5v114
c0 38 -0.333008 72.833 -1 104.5s-1.83398 59 -3.50098 82s-3.83398 39.167 -6.50098 48.5h85c-2.66699 -8.66699 -4.83398 -23.667 -6.50098 -45s-2.83398 -46.666 -3.50098 -75.999s-1 -61.833 -1 -97.5v-107.5c0 -36 2.33301 -71.5 7 -106.5s13.834 -66.167 27.501 -93.5
s33.5 -49.5 59.5 -66.5s60 -25.5 102 -25.5c56 0 104.167 21 144.5 63s60.5 106.667 60.5 194v114.5c0 38.333 -0.333008 73.666 -1 105.999s-1.83398 60.833 -3.50098 85.5s-3.83398 43 -6.50098 55z" />
    <glyph glyph-name="Udieresis" unicode="&#xdc;" horiz-adv-x="669" 
d="M428 670c-12.667 0 -23.334 4.16699 -32.001 12.5s-13 18.833 -13 31.5c0 13.333 4.83301 25 14.5 35s19.834 19.333 30.501 28c10.667 -8.66699 20.834 -18 30.501 -28s14.5 -21.667 14.5 -35c0 -12.667 -4.33301 -23.167 -13 -31.5s-19.334 -12.5 -32.001 -12.5z
M258 670c-12.667 0 -23.334 4.16699 -32.001 12.5s-13 18.833 -13 31.5c0 13.333 4.83301 25 14.5 35s19.834 19.333 30.501 28c10.667 -8.66699 20.834 -18 30.501 -28s14.5 -21.667 14.5 -35c0 -12.667 -4.33301 -23.167 -13 -31.5s-19.334 -12.5 -32.001 -12.5zM534 634
l65.0068 0.000976562c-2.66699 -11.333 -4.83398 -29.333 -6.50098 -54s-2.83398 -53 -3.50098 -85s-1 -66.833 -1 -104.5v-113.5c0 -96.667 -22.167 -169.834 -66.5 -219.501s-104.833 -74.5 -181.5 -74.5c-84 0 -148.167 24.167 -192.5 72.5s-66.5 124.833 -66.5 229.5
v114c0 38 -0.333008 72.833 -1 104.5s-1.83398 59 -3.50098 82s-3.83398 39.167 -6.50098 48.5h85c-2.66699 -8.66699 -4.83398 -23.667 -6.50098 -45s-2.83398 -46.666 -3.50098 -75.999s-1 -61.833 -1 -97.5v-107.5c0 -36 2.33301 -71.5 7 -106.5
s13.834 -66.167 27.501 -93.5s33.5 -49.5 59.5 -66.5s60 -25.5 102 -25.5c56 0 104.167 21 144.5 63s60.5 106.667 60.5 194v114.5c0 38.333 -0.333008 73.666 -1 105.999s-1.83398 60.833 -3.50098 85.5s-3.83398 43 -6.50098 55z" />
    <glyph glyph-name="Yacute" unicode="&#xdd;" horiz-adv-x="551" 
d="M184 673l-12.001 12l148 179c8 -13.333 16.333 -25.5 25 -36.5s18.334 -20.833 29.001 -29.5c-35.333 -16 -68.5 -34.5 -99.5 -55.5s-61.167 -44.167 -90.5 -69.5zM-0.000976562 634h99.998c4 -18.667 13.5 -41.667 28.5 -69s30.833 -54.333 47.5 -81
c18.667 -28.667 38.167 -61 58.5 -97s39.5 -68.333 57.5 -97l111 194l40 75.5c12 23.667 20.333 48.5 25 74.5h83c-7.33301 -8.66699 -17.666 -22.167 -30.999 -40.5s-30.666 -44.5 -51.999 -78.5l-161 -261v-9c0 -57.333 0.666992 -106.833 2 -148.5s5 -73.834 11 -96.501
h-85c6 22.667 9.66699 54.834 11 96.501s2 91.167 2 148.5v9l-132 206l-56 86c-18 28.667 -38 58 -60 88z" />
    <glyph glyph-name="Thorn" unicode="&#xde;" horiz-adv-x="572" 
d="M169 191c14.667 -6.66699 31.333 -11 50 -13s35.667 -3 51 -3c54 0 97 14.333 129 43s48 71 48 127c0 47.333 -13.5 84.333 -40.5 111s-78.5 40 -154.5 40c-12.667 0 -25 -0.166992 -37 -0.5s-27.333 -1.83301 -46 -4.5v-300zM168.999 155l0.00195312 -62.0029
c0 -18 0.666992 -35 2 -51s3.66602 -30 6.99902 -42h-83c6 22.667 9.66699 54.834 11 96.501s2 91.167 2 148.5v144c0 57.333 -0.666992 106.833 -2 148.5s-5 73.834 -11 96.501h83c-3.33301 -12 -5.66602 -26 -6.99902 -42s-2 -33 -2 -51v-21c18 2.66699 35.667 4.5 53 5.5
s35.666 1.5 54.999 1.5c82 0 143.333 -17 184 -51s61 -79 61 -135c0 -35.333 -7.33301 -65.666 -22 -90.999s-33.667 -45.833 -57 -61.5s-49.833 -27.167 -79.5 -34.5s-59.834 -11 -90.501 -11c-16.667 0 -34.5 1 -53.5 3s-35.833 5 -50.5 9z" />
    <glyph glyph-name="germandbls" unicode="&#xdf;" horiz-adv-x="564" 
d="M478 138c0 36 -9.49609 65.3291 -28.4961 87.9961s-40.333 42.334 -64 59.001l-68.5 47.5c-22 15 -36 32.167 -42 51.5c42 19.333 76.5 50 103.5 92s40.5 90.333 40.5 145c0 6.66699 -0.166992 13.667 -0.5 21s-0.833008 14.666 -1.5 21.999
c-10.667 2.66699 -26.834 4.66699 -48.501 6s-37.834 2 -48.501 2c-58.667 0 -101 -16.5 -127 -49.5s-39 -90.833 -39 -173.5v-239v-54c0 -22 0.166992 -43.5 0.5 -64.5s1.33301 -40.167 3 -57.5s4.16699 -28.666 7.5 -33.999h-86
c3.33301 5.33301 5.83301 16.666 7.5 33.999s2.66699 36.5 3 57.5s0.5 42.5 0.5 64.5v54v231h-69v29l69 -4c0 32.667 3.16699 63.167 9.5 91.5s18.666 52.833 36.999 73.5s43.666 36.834 75.999 48.501s74.5 17.5 126.5 17.5c18.667 0 43.167 -0.833008 73.5 -2.5
s57.833 -3.83398 82.5 -6.50098c0 -70 -16.167 -129 -48.5 -177s-69.5 -85.333 -111.5 -112c8.66699 -12.667 24.334 -25.667 47.001 -39s45.667 -28.833 69 -46.5s44 -38.667 62 -63s27 -54.166 27 -89.499c0 -52 -16.167 -93.833 -48.5 -125.5
s-72.166 -47.5 -119.499 -47.5c-32.667 0 -64 4.83301 -94 14.5s-56 23.167 -78 40.5c6.66699 6.66699 13 14.834 19 24.501s11 19.834 15 30.501c17.333 -26 38.166 -45.833 62.499 -59.5s48.833 -20.5 73.5 -20.5c39.333 0 67.166 12.333 83.499 37
s24.5 52.334 24.5 83.001z" />
    <glyph glyph-name="agrave" unicode="&#xe0;" horiz-adv-x="512" 
d="M347 546l-12.001 -12c-29.333 25.333 -59.5 48.5 -90.5 69.5s-64.167 39.5 -99.5 55.5c10.667 8.66699 20.334 18.5 29.001 29.5s17 23.167 25 36.5zM358.999 306l-0.000976562 39.9971c0 42 -11.167 70.667 -33.5 86s-46.833 23 -73.5 23
c-39.333 0 -71.833 -10 -97.5 -30s-45.834 -46.333 -60.501 -79c-6 8.66699 -12.833 16.334 -20.5 23.001s-16.167 12 -25.5 16c24.667 32.667 54 56.834 88 72.501s72.333 23.5 115 23.5c44 0 83.667 -11.167 119 -33.5s53 -68.833 53 -139.5v-196
c0 -22 4.33301 -43.167 13 -63.5s27.334 -32.833 56.001 -37.5v-19c-4 -0.666992 -8 -1.16699 -12 -1.5s-7.66699 -0.5 -11 -0.5c-33.333 0 -59.333 7.83301 -78 23.5s-28.334 41.167 -29.001 76.5c-21.333 -30.667 -47.666 -55 -78.999 -73s-65 -27 -101 -27
c-46 0 -82 12.167 -108 36.5s-39 55.833 -39 94.5c0 44 14 75.333 42 94s60.333 32 97 40s72.834 14.333 108.501 19s61.167 15.334 76.5 32.001zM358.998 127.997l-0.00390625 145c-23.333 -14.667 -49.666 -24 -78.999 -28s-56.666 -8.66699 -81.999 -14
s-46.666 -14.833 -63.999 -28.5s-26 -37.5 -26 -71.5c0 -30 7.83301 -54.833 23.5 -74.5s38.834 -29.5 69.501 -29.5c32.667 0 64 10.333 94 31s51.333 44 64 70z" />
    <glyph glyph-name="aacute" unicode="&#xe1;" horiz-adv-x="512" 
d="M181 539l-12.001 12l148 179c8 -13.333 16.333 -25.5 25 -36.5s18.334 -20.833 29.001 -29.5c-35.333 -16 -68.5 -34.5 -99.5 -55.5s-61.167 -44.167 -90.5 -69.5zM358.999 306l-0.000976562 39.9971c0 42 -11.167 70.667 -33.5 86s-46.833 23 -73.5 23
c-39.333 0 -71.833 -10 -97.5 -30s-45.834 -46.333 -60.501 -79c-6 8.66699 -12.833 16.334 -20.5 23.001s-16.167 12 -25.5 16c24.667 32.667 54 56.834 88 72.501s72.333 23.5 115 23.5c44 0 83.667 -11.167 119 -33.5s53 -68.833 53 -139.5v-196
c0 -22 4.33301 -43.167 13 -63.5s27.334 -32.833 56.001 -37.5v-19c-4 -0.666992 -8 -1.16699 -12 -1.5s-7.66699 -0.5 -11 -0.5c-33.333 0 -59.333 7.83301 -78 23.5s-28.334 41.167 -29.001 76.5c-21.333 -30.667 -47.666 -55 -78.999 -73s-65 -27 -101 -27
c-46 0 -82 12.167 -108 36.5s-39 55.833 -39 94.5c0 44 14 75.333 42 94s60.333 32 97 40s72.834 14.333 108.501 19s61.167 15.334 76.5 32.001zM358.998 127.997l-0.00390625 145c-23.333 -14.667 -49.666 -24 -78.999 -28s-56.666 -8.66699 -81.999 -14
s-46.666 -14.833 -63.999 -28.5s-26 -37.5 -26 -71.5c0 -30 7.83301 -54.833 23.5 -74.5s38.834 -29.5 69.501 -29.5c32.667 0 64 10.333 94 31s51.333 44 64 70z" />
    <glyph glyph-name="acircumflex" unicode="&#xe2;" horiz-adv-x="512" 
d="M388 549c-26 10.667 -51.167 21.834 -75.5 33.501s-47.833 24.834 -70.5 39.501c-22.667 -14.667 -46.167 -27.834 -70.5 -39.501s-49.5 -22.834 -75.5 -33.501l-10 12l136 121h40l136 -121zM359 306l-0.000976562 39.9971c0 42 -11.167 70.667 -33.5 86
s-46.833 23 -73.5 23c-39.333 0 -71.833 -10 -97.5 -30s-45.834 -46.333 -60.501 -79c-6 8.66699 -12.833 16.334 -20.5 23.001s-16.167 12 -25.5 16c24.667 32.667 54 56.834 88 72.501s72.333 23.5 115 23.5c44 0 83.667 -11.167 119 -33.5s53 -68.833 53 -139.5v-196
c0 -22 4.33301 -43.167 13 -63.5s27.334 -32.833 56.001 -37.5v-19c-4 -0.666992 -8 -1.16699 -12 -1.5s-7.66699 -0.5 -11 -0.5c-33.333 0 -59.333 7.83301 -78 23.5s-28.334 41.167 -29.001 76.5c-21.333 -30.667 -47.666 -55 -78.999 -73s-65 -27 -101 -27
c-46 0 -82 12.167 -108 36.5s-39 55.833 -39 94.5c0 44 14 75.333 42 94s60.333 32 97 40s72.834 14.333 108.501 19s61.167 15.334 76.5 32.001zM358.999 127.997l-0.00390625 145c-23.333 -14.667 -49.666 -24 -78.999 -28s-56.666 -8.66699 -81.999 -14
s-46.666 -14.833 -63.999 -28.5s-26 -37.5 -26 -71.5c0 -30 7.83301 -54.833 23.5 -74.5s38.834 -29.5 69.501 -29.5c32.667 0 64 10.333 94 31s51.333 44 64 70z" />
    <glyph glyph-name="atilde" unicode="&#xe3;" horiz-adv-x="512" 
d="M325 552c-13.333 0 -27 2.99902 -41 8.99902s-27.333 12.333 -40 19l-37 19c-12 6 -22.667 9 -32 9c-10.667 0 -21.5 -2.66699 -32.5 -8s-21.833 -14.333 -32.5 -27l-15 9c13.333 22 28.666 40.5 45.999 55.5s35.333 22.5 54 22.5c13.333 0 26.833 -2.83301 40.5 -8.5
s27 -12 40 -19s25.333 -13.333 37 -19s22.5 -8.5 32.5 -8.5c10.667 0 21.5 2.5 32.5 7.5s21.833 13.833 32.5 26.5l15 -9c-13.333 -21.333 -28.666 -39.666 -45.999 -54.999s-35.333 -23 -54 -23zM359 305.999l-0.000976562 39.9971c0 42 -11.167 70.667 -33.5 86
s-46.833 23 -73.5 23c-39.333 0 -71.833 -10 -97.5 -30s-45.834 -46.333 -60.501 -79c-6 8.66699 -12.833 16.334 -20.5 23.001s-16.167 12 -25.5 16c24.667 32.667 54 56.834 88 72.501s72.333 23.5 115 23.5c44 0 83.667 -11.167 119 -33.5s53 -68.833 53 -139.5v-196
c0 -22 4.33301 -43.167 13 -63.5s27.334 -32.833 56.001 -37.5v-19c-4 -0.666992 -8 -1.16699 -12 -1.5s-7.66699 -0.5 -11 -0.5c-33.333 0 -59.333 7.83301 -78 23.5s-28.334 41.167 -29.001 76.5c-21.333 -30.667 -47.666 -55 -78.999 -73s-65 -27 -101 -27
c-46 0 -82 12.167 -108 36.5s-39 55.833 -39 94.5c0 44 14 75.333 42 94s60.333 32 97 40s72.834 14.333 108.501 19s61.167 15.334 76.5 32.001zM358.999 127.996l-0.00390625 145c-23.333 -14.667 -49.666 -24 -78.999 -28s-56.666 -8.66699 -81.999 -14
s-46.666 -14.833 -63.999 -28.5s-26 -37.5 -26 -71.5c0 -30 7.83301 -54.833 23.5 -74.5s38.834 -29.5 69.501 -29.5c32.667 0 64 10.333 94 31s51.333 44 64 70z" />
    <glyph glyph-name="adieresis" unicode="&#xe4;" horiz-adv-x="512" 
d="M335 547c-12.667 0 -23.334 4.16699 -32.001 12.5s-13 18.833 -13 31.5c0 13.333 4.83301 25 14.5 35s19.834 19.333 30.501 28c10.667 -8.66699 20.834 -18 30.501 -28s14.5 -21.667 14.5 -35c0 -12.667 -4.33301 -23.167 -13 -31.5s-19.334 -12.5 -32.001 -12.5z
M165 547c-12.667 0 -23.334 4.16699 -32.001 12.5s-13 18.833 -13 31.5c0 13.333 4.83301 25 14.5 35s19.834 19.333 30.501 28c10.667 -8.66699 20.834 -18 30.501 -28s14.5 -21.667 14.5 -35c0 -12.667 -4.33301 -23.167 -13 -31.5s-19.334 -12.5 -32.001 -12.5zM359 306
l-0.000976562 39.9971c0 42 -11.167 70.667 -33.5 86s-46.833 23 -73.5 23c-39.333 0 -71.833 -10 -97.5 -30s-45.834 -46.333 -60.501 -79c-6 8.66699 -12.833 16.334 -20.5 23.001s-16.167 12 -25.5 16c24.667 32.667 54 56.834 88 72.501s72.333 23.5 115 23.5
c44 0 83.667 -11.167 119 -33.5s53 -68.833 53 -139.5v-196c0 -22 4.33301 -43.167 13 -63.5s27.334 -32.833 56.001 -37.5v-19c-4 -0.666992 -8 -1.16699 -12 -1.5s-7.66699 -0.5 -11 -0.5c-33.333 0 -59.333 7.83301 -78 23.5s-28.334 41.167 -29.001 76.5
c-21.333 -30.667 -47.666 -55 -78.999 -73s-65 -27 -101 -27c-46 0 -82 12.167 -108 36.5s-39 55.833 -39 94.5c0 44 14 75.333 42 94s60.333 32 97 40s72.834 14.333 108.501 19s61.167 15.334 76.5 32.001zM358.999 127.997l-0.00390625 145
c-23.333 -14.667 -49.666 -24 -78.999 -28s-56.666 -8.66699 -81.999 -14s-46.666 -14.833 -63.999 -28.5s-26 -37.5 -26 -71.5c0 -30 7.83301 -54.833 23.5 -74.5s38.834 -29.5 69.501 -29.5c32.667 0 64 10.333 94 31s51.333 44 64 70z" />
    <glyph glyph-name="aring" unicode="&#xe5;" horiz-adv-x="512" 
d="M250 548c-26 0 -48.167 8.5 -66.5 25.5s-27.5 39.833 -27.5 68.5s9.16699 51.5 27.5 68.5s40.5 25.5 66.5 25.5s48.167 -8.5 66.5 -25.5s27.5 -39.833 27.5 -68.5s-9.16699 -51.5 -27.5 -68.5s-40.5 -25.5 -66.5 -25.5zM250 704c-16.667 0 -31 -5.66699 -43 -17
s-18 -26.333 -18 -45s6 -33.5 18 -44.5s26.333 -16.5 43 -16.5s31.167 5.5 43.5 16.5s18.5 25.833 18.5 44.5s-6.16699 33.667 -18.5 45s-26.833 17 -43.5 17zM359 306l-0.000976562 39.9971c0 42 -11.167 70.667 -33.5 86s-46.833 23 -73.5 23
c-39.333 0 -71.833 -10 -97.5 -30s-45.834 -46.333 -60.501 -79c-6 8.66699 -12.833 16.334 -20.5 23.001s-16.167 12 -25.5 16c24.667 32.667 54 56.834 88 72.501s72.333 23.5 115 23.5c44 0 83.667 -11.167 119 -33.5s53 -68.833 53 -139.5v-196
c0 -22 4.33301 -43.167 13 -63.5s27.334 -32.833 56.001 -37.5v-19c-4 -0.666992 -8 -1.16699 -12 -1.5s-7.66699 -0.5 -11 -0.5c-33.333 0 -59.333 7.83301 -78 23.5s-28.334 41.167 -29.001 76.5c-21.333 -30.667 -47.666 -55 -78.999 -73s-65 -27 -101 -27
c-46 0 -82 12.167 -108 36.5s-39 55.833 -39 94.5c0 44 14 75.333 42 94s60.333 32 97 40s72.834 14.333 108.501 19s61.167 15.334 76.5 32.001zM358.999 127.997l-0.00390625 145c-23.333 -14.667 -49.666 -24 -78.999 -28s-56.666 -8.66699 -81.999 -14
s-46.666 -14.833 -63.999 -28.5s-26 -37.5 -26 -71.5c0 -30 7.83301 -54.833 23.5 -74.5s38.834 -29.5 69.501 -29.5c32.667 0 64 10.333 94 31s51.333 44 64 70z" />
    <glyph glyph-name="ae" unicode="&#xe6;" horiz-adv-x="863" 
d="M806 266l-364.999 -0.00195312c0 -6 -0.166992 -11.667 -0.5 -17s-0.5 -11.333 -0.5 -18c0 -27.333 3.16699 -54 9.5 -80s16 -49 29 -69s29.667 -36.167 50 -48.5s44.833 -18.5 73.5 -18.5c36.667 0 67.5 9.83301 92.5 29.5s46.5 44.167 64.5 73.5
c5.33301 -6 11.333 -11.5 18 -16.5s13.667 -8.5 21 -10.5c-21.333 -34 -49.5 -59.667 -84.5 -77s-73.167 -26 -114.5 -26c-50.667 0 -92.834 10.833 -126.501 32.5s-59.167 49.834 -76.5 84.501c-24.667 -35.333 -53.667 -63.333 -87 -84s-74.333 -31 -123 -31
c-50 0 -86.167 13.333 -108.5 40s-33.5 56 -33.5 88c0 46 13.833 78.5 41.5 97.5s59.667 32.333 96 40s72.333 13.667 108 18s61.5 15.166 77.5 32.499v34c0 44.667 -11.333 75.167 -34 91.5s-47.667 24.5 -75 24.5c-40.667 0 -74.334 -10.667 -101.001 -32
s-47.334 -47.666 -62.001 -78.999c-6 8.66699 -12.833 16.5 -20.5 23.5s-16.167 12.5 -25.5 16.5c27.333 34.667 59.833 59.334 97.5 74.001s76.5 22 116.5 22c30.667 0 59.667 -6.16699 87 -18.5s48.333 -36.5 63 -72.5c20.667 28.667 46.834 51 78.501 67
s66.834 24 105.501 24c54.667 0 103.167 -18.333 145.5 -55s63.5 -90 63.5 -160zM597.001 455.998c-46 0 -81.168 -15.667 -105.501 -47s-39.833 -69.333 -46.5 -114h287c-3.33301 50 -16.666 89.333 -39.999 118s-55 43 -95 43zM367 110.998l-0.00195312 162
c-24.667 -15.333 -51.667 -25.333 -81 -30s-56.5 -10 -81.5 -16s-46 -15.833 -63 -29.5s-25.5 -37.167 -25.5 -70.5c0 -26.667 8 -50.167 24 -70.5s39.333 -30.5 70 -30.5c32.667 0 61.834 7.5 87.501 22.5s48.834 35.833 69.501 62.5z" />
    <glyph glyph-name="ccedilla" unicode="&#xe7;" horiz-adv-x="515" 
d="M278 15c38 0 70.667 9.66895 98 29.002s47.333 44.333 60 75c6.66699 -6 13.834 -12 21.501 -18s16.834 -10.333 27.501 -13c-22 -31.333 -50.667 -55.666 -86 -72.999s-74 -26.333 -116 -27v-49c3.33301 0.666992 7.5 1 12.5 1h13.5c24.667 0 46.667 -6.16699 66 -18.5
s29 -31.833 29 -58.5c0 -31.333 -11.833 -53.5 -35.5 -66.5s-50.5 -19.5 -80.5 -19.5c-21.333 0 -42.5 3.16699 -63.5 9.5s-38.833 12.833 -53.5 19.5l8 22c10.667 -4 25.167 -8.16699 43.5 -12.5s36.5 -6.5 54.5 -6.5c18.667 0 34.834 3.66699 48.501 11
s20.5 21.333 20.5 42s-7 34 -21 40s-26.333 9 -37 9c-4.66699 0 -10.334 -0.333008 -17.001 -1s-12.334 -1.33398 -17.001 -2.00098v81c-64 4.66699 -116.5 28.5 -157.5 71.5s-61.5 99.167 -61.5 168.5c0 31.333 4.66699 62.166 14 92.499s23.666 57.333 42.999 81
s44.333 42.667 75 57s67 21.5 109 21.5c37.333 0 73.833 -6.83301 109.5 -20.5s65.834 -36.834 90.501 -69.501c-8.66699 -4 -16.334 -9.66699 -23.001 -17l-20 -23c-12 22.667 -30 45.667 -54 69s-58.667 35 -104 35c-53.333 0 -94.333 -20.833 -123 -62.5
s-43 -94.5 -43 -158.5c0 -60 13.833 -111.5 41.5 -154.5s70.167 -64.5 127.5 -64.5z" />
    <glyph glyph-name="egrave" unicode="&#xe8;" horiz-adv-x="523" 
d="M362 546l-12.001 -12c-29.333 25.333 -59.5 48.5 -90.5 69.5s-64.167 39.5 -99.5 55.5c10.667 8.66699 20.334 18.5 29.001 29.5s17 23.167 25 36.5zM482.999 266l-369.998 0.000976562c-0.666992 -6 -1.16699 -11.667 -1.5 -17s-0.5 -11.333 -0.5 -18
c0 -27.333 3.16699 -54 9.5 -80s16.166 -49 29.499 -69s30.5 -36.167 51.5 -48.5s46.167 -18.5 75.5 -18.5c37.333 0 68.833 9.66699 94.5 29s47.167 44 64.5 74c5.33301 -6 11.166 -11.5 17.499 -16.5s13.5 -8.5 21.5 -10.5c-22 -34 -50.5 -59.667 -85.5 -77
s-73.5 -26 -115.5 -26c-40 0 -74.833 6.66699 -104.5 20s-54.167 31.333 -73.5 54s-33.833 49.167 -43.5 79.5s-14.5 62.166 -14.5 95.499c0 71.333 22 129.833 66 175.5s100 68.5 168 68.5c56 0 105.167 -18.333 147.5 -55s63.5 -90 63.5 -160zM272.001 456.001
c-46.667 0 -82.5 -15.667 -107.5 -47s-40.833 -69.333 -47.5 -114h292c-3.33301 50 -17 89.333 -41 118s-56 43 -96 43z" />
    <glyph glyph-name="eacute" unicode="&#xe9;" horiz-adv-x="523" 
d="M197 534l-12.001 12l148 179c8 -13.333 16.333 -25.5 25 -36.5s18.334 -20.833 29.001 -29.5c-35.333 -16 -68.5 -34.5 -99.5 -55.5s-61.167 -44.167 -90.5 -69.5zM482.999 266l-369.998 0.000976562c-0.666992 -6 -1.16699 -11.667 -1.5 -17s-0.5 -11.333 -0.5 -18
c0 -27.333 3.16699 -54 9.5 -80s16.166 -49 29.499 -69s30.5 -36.167 51.5 -48.5s46.167 -18.5 75.5 -18.5c37.333 0 68.833 9.66699 94.5 29s47.167 44 64.5 74c5.33301 -6 11.166 -11.5 17.499 -16.5s13.5 -8.5 21.5 -10.5c-22 -34 -50.5 -59.667 -85.5 -77
s-73.5 -26 -115.5 -26c-40 0 -74.833 6.66699 -104.5 20s-54.167 31.333 -73.5 54s-33.833 49.167 -43.5 79.5s-14.5 62.166 -14.5 95.499c0 71.333 22 129.833 66 175.5s100 68.5 168 68.5c56 0 105.167 -18.333 147.5 -55s63.5 -90 63.5 -160zM272.001 456.001
c-46.667 0 -82.5 -15.667 -107.5 -47s-40.833 -69.333 -47.5 -114h292c-3.33301 50 -17 89.333 -41 118s-56 43 -96 43z" />
    <glyph glyph-name="ecircumflex" unicode="&#xea;" horiz-adv-x="523" 
d="M417 549c-26 10.667 -51.167 21.834 -75.5 33.501s-47.833 24.834 -70.5 39.501c-22.667 -14.667 -46.167 -27.834 -70.5 -39.501s-49.5 -22.834 -75.5 -33.501l-10 12l136 121h40l136 -121zM483 266l-369.998 0.000976562c-0.666992 -6 -1.16699 -11.667 -1.5 -17
s-0.5 -11.333 -0.5 -18c0 -27.333 3.16699 -54 9.5 -80s16.166 -49 29.499 -69s30.5 -36.167 51.5 -48.5s46.167 -18.5 75.5 -18.5c37.333 0 68.833 9.66699 94.5 29s47.167 44 64.5 74c5.33301 -6 11.166 -11.5 17.499 -16.5s13.5 -8.5 21.5 -10.5
c-22 -34 -50.5 -59.667 -85.5 -77s-73.5 -26 -115.5 -26c-40 0 -74.833 6.66699 -104.5 20s-54.167 31.333 -73.5 54s-33.833 49.167 -43.5 79.5s-14.5 62.166 -14.5 95.499c0 71.333 22 129.833 66 175.5s100 68.5 168 68.5c56 0 105.167 -18.333 147.5 -55
s63.5 -90 63.5 -160zM272.002 456.001c-46.667 0 -82.5 -15.667 -107.5 -47s-40.833 -69.333 -47.5 -114h292c-3.33301 50 -17 89.333 -41 118s-56 43 -96 43z" />
    <glyph glyph-name="edieresis" unicode="&#xeb;" horiz-adv-x="523" 
d="M346 547c-12.667 0 -23.334 4.16699 -32.001 12.5s-13 18.833 -13 31.5c0 13.333 4.83301 25 14.5 35s19.834 19.333 30.501 28c10.667 -8.66699 20.834 -18 30.501 -28s14.5 -21.667 14.5 -35c0 -12.667 -4.33301 -23.167 -13 -31.5s-19.334 -12.5 -32.001 -12.5z
M176 547c-12.667 0 -23.334 4.16699 -32.001 12.5s-13 18.833 -13 31.5c0 13.333 4.83301 25 14.5 35s19.834 19.333 30.501 28c10.667 -8.66699 20.834 -18 30.501 -28s14.5 -21.667 14.5 -35c0 -12.667 -4.33301 -23.167 -13 -31.5s-19.334 -12.5 -32.001 -12.5zM483 266
l-369.998 0.000976562c-0.666992 -6 -1.16699 -11.667 -1.5 -17s-0.5 -11.333 -0.5 -18c0 -27.333 3.16699 -54 9.5 -80s16.166 -49 29.499 -69s30.5 -36.167 51.5 -48.5s46.167 -18.5 75.5 -18.5c37.333 0 68.833 9.66699 94.5 29s47.167 44 64.5 74
c5.33301 -6 11.166 -11.5 17.499 -16.5s13.5 -8.5 21.5 -10.5c-22 -34 -50.5 -59.667 -85.5 -77s-73.5 -26 -115.5 -26c-40 0 -74.833 6.66699 -104.5 20s-54.167 31.333 -73.5 54s-33.833 49.167 -43.5 79.5s-14.5 62.166 -14.5 95.499c0 71.333 22 129.833 66 175.5
s100 68.5 168 68.5c56 0 105.167 -18.333 147.5 -55s63.5 -90 63.5 -160zM272.002 456.001c-46.667 0 -82.5 -15.667 -107.5 -47s-40.833 -69.333 -47.5 -114h292c-3.33301 50 -17 89.333 -41 118s-56 43 -96 43z" />
    <glyph glyph-name="igrave" unicode="&#xec;" horiz-adv-x="230" 
d="M166 546l-12.001 -12c-29.333 25.333 -59.5 48.5 -90.5 69.5s-64.167 39.5 -99.5 55.5c10.667 8.66699 20.334 18.5 29.001 29.5s17 23.167 25 36.5zM157.999 466c-3.33301 -5.33301 -5.83301 -15.5 -7.5 -30.5s-2.66699 -32.333 -3 -52s-0.5 -40.834 -0.5 -63.501v-64
v-46v-64c0 -22.667 0.166992 -43.834 0.5 -63.501s1.33301 -37 3 -52s4.16699 -25.167 7.5 -30.5h-86c3.33301 5.33301 5.83301 15.5 7.5 30.5s2.66699 32.333 3 52s0.5 40.834 0.5 63.501v64v46v64c0 22.667 -0.166992 43.834 -0.5 63.501s-1.33301 37 -3 52
s-4.16699 25.167 -7.5 30.5h86z" />
    <glyph glyph-name="iacute" unicode="&#xed;" horiz-adv-x="230" 
d="M86 534l-12.001 12l148 179c8 -13.333 16.333 -25.5 25 -36.5s18.334 -20.833 29.001 -29.5c-35.333 -16 -68.5 -34.5 -99.5 -55.5s-61.167 -44.167 -90.5 -69.5zM157.999 466c-3.33301 -5.33301 -5.83301 -15.5 -7.5 -30.5s-2.66699 -32.333 -3 -52
s-0.5 -40.834 -0.5 -63.501v-64v-46v-64c0 -22.667 0.166992 -43.834 0.5 -63.501s1.33301 -37 3 -52s4.16699 -25.167 7.5 -30.5h-86c3.33301 5.33301 5.83301 15.5 7.5 30.5s2.66699 32.333 3 52s0.5 40.834 0.5 63.501v64v46v64c0 22.667 -0.166992 43.834 -0.5 63.501
s-1.33301 37 -3 52s-4.16699 25.167 -7.5 30.5h86z" />
    <glyph glyph-name="icircumflex" unicode="&#xee;" horiz-adv-x="230" 
d="M261 549c-26 10.667 -51.167 21.834 -75.5 33.501s-47.833 24.834 -70.5 39.501c-22.667 -14.667 -46.167 -27.834 -70.5 -39.501s-49.5 -22.834 -75.5 -33.501l-10 12l136 121h40l136 -121zM158 466c-3.33301 -5.33301 -5.83301 -15.5 -7.5 -30.5
s-2.66699 -32.333 -3 -52s-0.5 -40.834 -0.5 -63.501v-64v-46v-64c0 -22.667 0.166992 -43.834 0.5 -63.501s1.33301 -37 3 -52s4.16699 -25.167 7.5 -30.5h-86c3.33301 5.33301 5.83301 15.5 7.5 30.5s2.66699 32.333 3 52s0.5 40.834 0.5 63.501v64v46v64
c0 22.667 -0.166992 43.834 -0.5 63.501s-1.33301 37 -3 52s-4.16699 25.167 -7.5 30.5h86z" />
    <glyph glyph-name="idieresis" unicode="&#xef;" horiz-adv-x="230" 
d="M200 547c-12.667 0 -23.334 4.16699 -32.001 12.5s-13 18.833 -13 31.5c0 13.333 4.83301 25 14.5 35s19.834 19.333 30.501 28c10.667 -8.66699 20.834 -18 30.501 -28s14.5 -21.667 14.5 -35c0 -12.667 -4.33301 -23.167 -13 -31.5s-19.334 -12.5 -32.001 -12.5z
M30 547c-12.667 0 -23.334 4.16699 -32.001 12.5s-13 18.833 -13 31.5c0 13.333 4.83301 25 14.5 35s19.834 19.333 30.501 28c10.667 -8.66699 20.834 -18 30.501 -28s14.5 -21.667 14.5 -35c0 -12.667 -4.33301 -23.167 -13 -31.5s-19.334 -12.5 -32.001 -12.5zM158 466
c-3.33301 -5.33301 -5.83301 -15.5 -7.5 -30.5s-2.66699 -32.333 -3 -52s-0.5 -40.834 -0.5 -63.501v-64v-46v-64c0 -22.667 0.166992 -43.834 0.5 -63.501s1.33301 -37 3 -52s4.16699 -25.167 7.5 -30.5h-86c3.33301 5.33301 5.83301 15.5 7.5 30.5s2.66699 32.333 3 52
s0.5 40.834 0.5 63.501v64v46v64c0 22.667 -0.166992 43.834 -0.5 63.501s-1.33301 37 -3 52s-4.16699 25.167 -7.5 30.5h86z" />
    <glyph glyph-name="eth" unicode="&#xf0;" horiz-adv-x="517" 
d="M279 651l119.999 48.0029l12 -30l-102 -41c56 -44.667 101.5 -98.834 136.5 -162.501s52.5 -133.5 52.5 -209.5c0 -36 -5 -70.167 -15 -102.5s-24.833 -60.833 -44.5 -85.5s-44 -44.167 -73 -58.5s-62.5 -21.5 -100.5 -21.5c-40.667 0 -75.5 6.66699 -104.5 20
s-52.833 30.833 -71.5 52.5s-32.334 46.667 -41.001 75s-13 57.166 -13 86.499c0 32.667 5.16699 63.834 15.5 93.501s25.333 55.667 45 78s44 40.166 73 53.499s61.5 20 97.5 20c18.667 0 40.834 -3.33301 66.501 -10s47.5 -18.334 65.5 -35.001h2
c-10.667 38.667 -27 74.167 -49 106.5s-48 60.833 -78 85.5l-135 -53l-11 30l117 46c-20 14.667 -41 27.667 -63 39s-44.333 21.333 -67 30l13 26c26.667 -10.667 52.834 -22.667 78.501 -36s50.167 -28.333 73.5 -45zM265.999 14.0029c51.333 0 91.167 22 119.5 66
s42.5 95.667 42.5 155c0 57.333 -12.333 106 -37 146s-64.667 60 -120 60c-49.333 0 -89 -20.667 -119 -62s-45 -93 -45 -155s15 -112.5 45 -151.5s68 -58.5 114 -58.5z" />
    <glyph glyph-name="ntilde" unicode="&#xf1;" horiz-adv-x="579" 
d="M359 552c-13.333 0 -27 2.99902 -41 8.99902s-27.333 12.333 -40 19l-37 19c-12 6 -22.667 9 -32 9c-10.667 0 -21.5 -2.66699 -32.5 -8s-21.833 -14.333 -32.5 -27l-15 9c13.333 22 28.666 40.5 45.999 55.5s35.333 22.5 54 22.5c13.333 0 26.833 -2.83301 40.5 -8.5
s27 -12 40 -19s25.333 -13.333 37 -19s22.5 -8.5 32.5 -8.5c10.667 0 21.5 2.5 32.5 7.5s21.833 13.833 32.5 26.5l15 -9c-13.333 -21.333 -28.666 -39.666 -45.999 -54.999s-35.333 -23 -54 -23zM318 432.999c-47.333 0 -87.002 -16.999 -119.002 -50.999
s-48 -72.333 -48 -115v-96c0 -36.667 0.5 -72.167 1.5 -106.5s4.16699 -55.833 9.5 -64.5h-86c2.66699 4.66699 4.83398 14.167 6.50098 28.5s2.83398 30.666 3.50098 48.999s1 38.333 1 60v62.5v147c0 20.667 -1.16699 40 -3.5 58s-6.83301 32.333 -13.5 43
c14.667 2.66699 28.5 6.5 41.5 11.5s25.833 11.167 38.5 18.5v-122c22.667 39.333 49.834 68.833 81.501 88.5s68.167 29.5 109.5 29.5c36.667 0 70 -11.167 100 -33.5s45 -66.5 45 -132.5v-198c0 -24 2.66699 -44.5 8 -61.5s18.666 -29.5 39.999 -37.5v-19
c-42.667 0 -72.167 9.5 -88.5 28.5s-24.5 50.167 -24.5 93.5v172c-1.33301 58 -11 97 -29 117s-42.667 30 -74 30z" />
    <glyph glyph-name="ograve" unicode="&#xf2;" 
d="M361 546l-12.001 -12c-29.333 25.333 -59.5 48.5 -90.5 69.5s-64.167 39.5 -99.5 55.5c10.667 8.66699 20.334 18.5 29.001 29.5s17 23.167 25 36.5zM279.999 -12c-73.333 0 -132.5 22.667 -177.5 68s-67.5 104.666 -67.5 177.999c0 32.667 5.33301 64 16 94
s26.334 56.167 47.001 78.5s46.334 40.333 77.001 54s65.667 20.5 105 20.5c73.333 0 132.5 -22.667 177.5 -68s67.5 -104.666 67.5 -177.999c0 -32.667 -5.33301 -64 -16 -94s-26.334 -56.167 -47.001 -78.5s-46.334 -40.333 -77.001 -54s-65.667 -20.5 -105 -20.5z
M279.999 14c54 0 96.167 20.835 126.5 62.502s45.5 94.834 45.5 159.501c0 64 -15.167 116.667 -45.5 158s-72.5 62 -126.5 62s-96.167 -20.833 -126.5 -62.5s-45.5 -94.834 -45.5 -159.501s15.167 -117.334 45.5 -158.001s72.5 -61.334 126.5 -62.001z" />
    <glyph glyph-name="oacute" unicode="&#xf3;" 
d="M214 534l-12.001 12l148 179c8 -13.333 16.333 -25.5 25 -36.5s18.334 -20.833 29.001 -29.5c-35.333 -16 -68.5 -34.5 -99.5 -55.5s-61.167 -44.167 -90.5 -69.5zM279.999 -12c-73.333 0 -132.5 22.667 -177.5 68s-67.5 104.666 -67.5 177.999
c0 32.667 5.33301 64 16 94s26.334 56.167 47.001 78.5s46.334 40.333 77.001 54s65.667 20.5 105 20.5c73.333 0 132.5 -22.667 177.5 -68s67.5 -104.666 67.5 -177.999c0 -32.667 -5.33301 -64 -16 -94s-26.334 -56.167 -47.001 -78.5s-46.334 -40.333 -77.001 -54
s-65.667 -20.5 -105 -20.5zM279.999 14c54 0 96.167 20.835 126.5 62.502s45.5 94.834 45.5 159.501c0 64 -15.167 116.667 -45.5 158s-72.5 62 -126.5 62s-96.167 -20.833 -126.5 -62.5s-45.5 -94.834 -45.5 -159.501s15.167 -117.334 45.5 -158.001
s72.5 -61.334 126.5 -62.001z" />
    <glyph glyph-name="ocircumflex" unicode="&#xf4;" 
d="M426 549c-26 10.667 -51.167 21.834 -75.5 33.501s-47.833 24.834 -70.5 39.501c-22.667 -14.667 -46.167 -27.834 -70.5 -39.501s-49.5 -22.834 -75.5 -33.501l-10 12l136 121h40l136 -121zM280 -12c-73.333 0 -132.5 22.667 -177.5 68s-67.5 104.666 -67.5 177.999
c0 32.667 5.33301 64 16 94s26.334 56.167 47.001 78.5s46.334 40.333 77.001 54s65.667 20.5 105 20.5c73.333 0 132.5 -22.667 177.5 -68s67.5 -104.666 67.5 -177.999c0 -32.667 -5.33301 -64 -16 -94s-26.334 -56.167 -47.001 -78.5s-46.334 -40.333 -77.001 -54
s-65.667 -20.5 -105 -20.5zM280 14c54 0 96.167 20.835 126.5 62.502s45.5 94.834 45.5 159.501c0 64 -15.167 116.667 -45.5 158s-72.5 62 -126.5 62s-96.167 -20.833 -126.5 -62.5s-45.5 -94.834 -45.5 -159.501s15.167 -117.334 45.5 -158.001
s72.5 -61.334 126.5 -62.001z" />
    <glyph glyph-name="otilde" unicode="&#xf5;" 
d="M345 552c-13.333 0 -27 2.99902 -41 8.99902s-27.333 12.333 -40 19l-37 19c-12 6 -22.667 9 -32 9c-10.667 0 -21.5 -2.66699 -32.5 -8s-21.833 -14.333 -32.5 -27l-15 9c13.333 22 28.666 40.5 45.999 55.5s35.333 22.5 54 22.5c13.333 0 26.833 -2.83301 40.5 -8.5
s27 -12 40 -19s25.333 -13.333 37 -19s22.5 -8.5 32.5 -8.5c10.667 0 21.5 2.5 32.5 7.5s21.833 13.833 32.5 26.5l15 -9c-13.333 -21.333 -28.666 -39.666 -45.999 -54.999s-35.333 -23 -54 -23zM280 -12.001c-73.333 0 -132.5 22.667 -177.5 68
s-67.5 104.666 -67.5 177.999c0 32.667 5.33301 64 16 94s26.334 56.167 47.001 78.5s46.334 40.333 77.001 54s65.667 20.5 105 20.5c73.333 0 132.5 -22.667 177.5 -68s67.5 -104.666 67.5 -177.999c0 -32.667 -5.33301 -64 -16 -94s-26.334 -56.167 -47.001 -78.5
s-46.334 -40.333 -77.001 -54s-65.667 -20.5 -105 -20.5zM280 13.999c54 0 96.167 20.835 126.5 62.502s45.5 94.834 45.5 159.501c0 64 -15.167 116.667 -45.5 158s-72.5 62 -126.5 62s-96.167 -20.833 -126.5 -62.5s-45.5 -94.834 -45.5 -159.501
s15.167 -117.334 45.5 -158.001s72.5 -61.334 126.5 -62.001z" />
    <glyph glyph-name="odieresis" unicode="&#xf6;" 
d="M359 547c-12.667 0 -23.334 4.16699 -32.001 12.5s-13 18.833 -13 31.5c0 13.333 4.83301 25 14.5 35s19.834 19.333 30.501 28c10.667 -8.66699 20.834 -18 30.501 -28s14.5 -21.667 14.5 -35c0 -12.667 -4.33301 -23.167 -13 -31.5s-19.334 -12.5 -32.001 -12.5z
M189 547c-12.667 0 -23.334 4.16699 -32.001 12.5s-13 18.833 -13 31.5c0 13.333 4.83301 25 14.5 35s19.834 19.333 30.501 28c10.667 -8.66699 20.834 -18 30.501 -28s14.5 -21.667 14.5 -35c0 -12.667 -4.33301 -23.167 -13 -31.5s-19.334 -12.5 -32.001 -12.5zM280 -12
c-73.333 0 -132.5 22.667 -177.5 68s-67.5 104.666 -67.5 177.999c0 32.667 5.33301 64 16 94s26.334 56.167 47.001 78.5s46.334 40.333 77.001 54s65.667 20.5 105 20.5c73.333 0 132.5 -22.667 177.5 -68s67.5 -104.666 67.5 -177.999c0 -32.667 -5.33301 -64 -16 -94
s-26.334 -56.167 -47.001 -78.5s-46.334 -40.333 -77.001 -54s-65.667 -20.5 -105 -20.5zM280 14c54 0 96.167 20.835 126.5 62.502s45.5 94.834 45.5 159.501c0 64 -15.167 116.667 -45.5 158s-72.5 62 -126.5 62s-96.167 -20.833 -126.5 -62.5
s-45.5 -94.834 -45.5 -159.501s15.167 -117.334 45.5 -158.001s72.5 -61.334 126.5 -62.001z" />
    <glyph glyph-name="divide" unicode="&#xf7;" horiz-adv-x="515" 
d="M258 418c12 0 22.501 -4.16504 31.501 -12.498s13.5 -18.166 13.5 -29.499c0 -10.667 -4.33301 -20.334 -13 -29.001s-19.334 -13 -32.001 -13s-23.5 4.16699 -32.5 12.5s-13.5 18.166 -13.5 29.499s4.66699 21.166 14 29.499s20 12.5 32 12.5zM478.001 219.002h-446
c2 5.33301 3 11.833 3 19.5s-1 14.167 -3 19.5h446c-2 -5.33301 -3 -12 -3 -20s1 -14.333 3 -19zM258.001 142.002c12 0 22.501 -4 31.501 -12s13.5 -17.667 13.5 -29s-4.33301 -21.166 -13 -29.499s-19.334 -12.5 -32.001 -12.5s-23.5 4.16699 -32.5 12.5
s-13.5 18.166 -13.5 29.499s4.66699 21 14 29s20 12 32 12z" />
    <glyph glyph-name="oslash" unicode="&#xf8;" 
d="M108 234c0 -38.667 5.66797 -73.499 17.001 -104.499s27.333 -56.167 48 -75.5l182 384c-10.667 6 -22.334 10.5 -35.001 13.5s-26 4.5 -40 4.5c-54 0 -96.167 -20.833 -126.5 -62.5s-45.5 -94.834 -45.5 -159.501zM280.001 14.001c54 0 96.167 20.833 126.5 62.5
s45.5 94.834 45.5 159.501c0 40 -6 76 -18 108s-29.333 57.333 -52 76l-183 -385c11.333 -6.66699 23.833 -11.834 37.5 -15.501s28.167 -5.5 43.5 -5.5zM162.001 -43.999h-36.002l29 61c-37.333 19.333 -66.666 47.833 -87.999 85.5s-32 81.5 -32 131.5
c0 32.667 5.33301 64 16 94s26.334 56.167 47.001 78.5s46.334 40.333 77.001 54s65.667 20.5 105 20.5c16 0 31.333 -1.16699 46 -3.5s28.667 -5.83301 42 -10.5l20 42h37l-26 -55c38.667 -18.667 69.334 -47.167 92.001 -85.5s34 -82.833 34 -133.5
c0 -32.667 -5.33301 -64 -16 -94s-26.334 -56.167 -47.001 -78.5s-46.334 -40.333 -77.001 -54s-65.667 -20.5 -105 -20.5c-17.333 0 -34 1.5 -50 4.5s-31 6.83301 -45 11.5z" />
    <glyph glyph-name="ugrave" unicode="&#xf9;" horiz-adv-x="605" 
d="M373 546l-12.001 -12c-29.333 25.333 -59.5 48.5 -90.5 69.5s-64.167 39.5 -99.5 55.5c10.667 8.66699 20.334 18.5 29.001 29.5s17 23.167 25 36.5zM502.999 -7c-22.667 0 -41.667 9.33301 -57 28s-24 53.334 -26 104.001c-22.667 -45.333 -50 -78.666 -82 -99.999
s-69.333 -32 -112 -32c-44 0 -78.5 15.167 -103.5 45.5s-37.5 78.5 -37.5 144.5v166c0 20.667 -1.16699 40 -3.5 58s-6.83301 32.333 -13.5 43c14.667 2.66699 28.667 6.16699 42 10.5s26.333 10.166 39 17.499v-289c0 -50 8.16699 -87.667 24.5 -113s42.833 -38 79.5 -38
c17.333 0 35.333 4 54 12s35.834 19 51.501 33s28.667 31.167 39 51.5s15.5 42.833 15.5 67.5v147c0 20.667 -1.16699 40 -3.5 58s-6.83301 32.333 -13.5 43c14.667 2.66699 28.667 6.16699 42 10.5s26.333 10.166 39 17.499v-363c0 -32.667 5.66699 -55.667 17 -69
s24.666 -20 39.999 -20c4 0 8.16699 0.333008 12.5 1s8.83301 1.66699 13.5 3v-18c-8.66699 -7.33301 -18 -12.333 -28 -15s-19.667 -4 -29 -4z" />
    <glyph glyph-name="uacute" unicode="&#xfa;" horiz-adv-x="605" 
d="M225 534l-12.001 12l148 179c8 -13.333 16.333 -25.5 25 -36.5s18.334 -20.833 29.001 -29.5c-35.333 -16 -68.5 -34.5 -99.5 -55.5s-61.167 -44.167 -90.5 -69.5zM502.999 -7c-22.667 0 -41.667 9.33301 -57 28s-24 53.334 -26 104.001
c-22.667 -45.333 -50 -78.666 -82 -99.999s-69.333 -32 -112 -32c-44 0 -78.5 15.167 -103.5 45.5s-37.5 78.5 -37.5 144.5v166c0 20.667 -1.16699 40 -3.5 58s-6.83301 32.333 -13.5 43c14.667 2.66699 28.667 6.16699 42 10.5s26.333 10.166 39 17.499v-289
c0 -50 8.16699 -87.667 24.5 -113s42.833 -38 79.5 -38c17.333 0 35.333 4 54 12s35.834 19 51.501 33s28.667 31.167 39 51.5s15.5 42.833 15.5 67.5v147c0 20.667 -1.16699 40 -3.5 58s-6.83301 32.333 -13.5 43c14.667 2.66699 28.667 6.16699 42 10.5
s26.333 10.166 39 17.499v-363c0 -32.667 5.66699 -55.667 17 -69s24.666 -20 39.999 -20c4 0 8.16699 0.333008 12.5 1s8.83301 1.66699 13.5 3v-18c-8.66699 -7.33301 -18 -12.333 -28 -15s-19.667 -4 -29 -4z" />
    <glyph glyph-name="ucircumflex" unicode="&#xfb;" horiz-adv-x="605" 
d="M431 549c-26 10.667 -51.167 21.834 -75.5 33.501s-47.833 24.834 -70.5 39.501c-22.667 -14.667 -46.167 -27.834 -70.5 -39.501s-49.5 -22.834 -75.5 -33.501l-10 12l136 121h40l136 -121zM503 -7c-22.667 0 -41.667 9.33301 -57 28s-24 53.334 -26 104.001
c-22.667 -45.333 -50 -78.666 -82 -99.999s-69.333 -32 -112 -32c-44 0 -78.5 15.167 -103.5 45.5s-37.5 78.5 -37.5 144.5v166c0 20.667 -1.16699 40 -3.5 58s-6.83301 32.333 -13.5 43c14.667 2.66699 28.667 6.16699 42 10.5s26.333 10.166 39 17.499v-289
c0 -50 8.16699 -87.667 24.5 -113s42.833 -38 79.5 -38c17.333 0 35.333 4 54 12s35.834 19 51.501 33s28.667 31.167 39 51.5s15.5 42.833 15.5 67.5v147c0 20.667 -1.16699 40 -3.5 58s-6.83301 32.333 -13.5 43c14.667 2.66699 28.667 6.16699 42 10.5
s26.333 10.166 39 17.499v-363c0 -32.667 5.66699 -55.667 17 -69s24.666 -20 39.999 -20c4 0 8.16699 0.333008 12.5 1s8.83301 1.66699 13.5 3v-18c-8.66699 -7.33301 -18 -12.333 -28 -15s-19.667 -4 -29 -4z" />
    <glyph glyph-name="udieresis" unicode="&#xfc;" horiz-adv-x="605" 
d="M367 547c-12.667 0 -23.334 4.16699 -32.001 12.5s-13 18.833 -13 31.5c0 13.333 4.83301 25 14.5 35s19.834 19.333 30.501 28c10.667 -8.66699 20.834 -18 30.501 -28s14.5 -21.667 14.5 -35c0 -12.667 -4.33301 -23.167 -13 -31.5s-19.334 -12.5 -32.001 -12.5z
M197 547c-12.667 0 -23.334 4.16699 -32.001 12.5s-13 18.833 -13 31.5c0 13.333 4.83301 25 14.5 35s19.834 19.333 30.501 28c10.667 -8.66699 20.834 -18 30.501 -28s14.5 -21.667 14.5 -35c0 -12.667 -4.33301 -23.167 -13 -31.5s-19.334 -12.5 -32.001 -12.5zM503 -7
c-22.667 0 -41.667 9.33301 -57 28s-24 53.334 -26 104.001c-22.667 -45.333 -50 -78.666 -82 -99.999s-69.333 -32 -112 -32c-44 0 -78.5 15.167 -103.5 45.5s-37.5 78.5 -37.5 144.5v166c0 20.667 -1.16699 40 -3.5 58s-6.83301 32.333 -13.5 43
c14.667 2.66699 28.667 6.16699 42 10.5s26.333 10.166 39 17.499v-289c0 -50 8.16699 -87.667 24.5 -113s42.833 -38 79.5 -38c17.333 0 35.333 4 54 12s35.834 19 51.501 33s28.667 31.167 39 51.5s15.5 42.833 15.5 67.5v147c0 20.667 -1.16699 40 -3.5 58
s-6.83301 32.333 -13.5 43c14.667 2.66699 28.667 6.16699 42 10.5s26.333 10.166 39 17.499v-363c0 -32.667 5.66699 -55.667 17 -69s24.666 -20 39.999 -20c4 0 8.16699 0.333008 12.5 1s8.83301 1.66699 13.5 3v-18c-8.66699 -7.33301 -18 -12.333 -28 -15
s-19.667 -4 -29 -4z" />
    <glyph glyph-name="yacute" unicode="&#xfd;" horiz-adv-x="464" 
d="M160 511l-12.001 12l148 179c8 -13.333 16.333 -25.5 25 -36.5s18.334 -20.833 29.001 -29.5c-35.333 -16 -68.5 -34.5 -99.5 -55.5s-61.167 -44.167 -90.5 -69.5zM367.999 466h80.999l-74 -192.5c-25.333 -68.333 -53.666 -135.5 -84.999 -201.5
s-67.333 -129.333 -108 -190s-88.334 -113.667 -143.001 -159l-34 75c46.667 20 86.834 46 120.501 78s62.834 69 87.501 111l-155 355c-10.667 24 -18.834 43 -24.501 57l-27.5 67h87c0.666992 -16 4 -33.5 10 -52.5s13.667 -40.833 23 -65.5l123 -291l42 91
c26.667 62 46.167 119 58.5 171s18.5 101 18.5 147z" />
    <glyph glyph-name="thorn" unicode="&#xfe;" horiz-adv-x="717" 
d="M535 235c0 66 -13.833 119.167 -41.5 159.5s-68.5 60.5 -122.5 60.5c-27.333 0 -54.833 -8 -82.5 -24s-49.5 -37.333 -65.5 -64v-279c14.667 -22 34.5 -39.667 59.5 -53s51.833 -20 80.5 -20c54.667 0 97 20.167 127 60.5s45 93.5 45 159.5zM150 -274
c3.33301 5.33301 5.83203 15.498 7.49902 30.498s2.66699 32.333 3 52s0.5 40.834 0.5 63.501v64v665c0 20.667 -1.16699 40 -3.5 58s-6.83301 32.333 -13.5 43c14.667 2.66699 27.834 6.5 39.501 11.5s23.834 11.167 36.501 18.5
c1.33301 -21.333 2.16602 -42.166 2.49902 -62.499s0.5 -40.5 0.5 -60.5v-182c20.667 18 44.5 31.5 71.5 40.5s54.167 13.5 81.5 13.5c69.333 0 125.333 -21.167 168 -63.5s64 -103.5 64 -183.5c0 -33.333 -5.33301 -64.833 -16 -94.5s-26.167 -55.667 -46.5 -78
s-45.833 -40.166 -76.5 -53.499s-66 -20 -106 -20c-26.667 0 -52 3.33301 -76 10s-45.333 16 -64 28v-90v-64c0 -22.667 0.166992 -43.834 0.5 -63.501s1.33301 -37 3 -52s4.16699 -25.167 7.5 -30.5h-84z" />
    <glyph glyph-name="ydieresis" unicode="&#xff;" horiz-adv-x="464" 
d="M312 547c-12.667 0 -23.334 4.16699 -32.001 12.5s-13 18.833 -13 31.5c0 13.333 4.83301 25 14.5 35s19.834 19.333 30.501 28c10.667 -8.66699 20.834 -18 30.501 -28s14.5 -21.667 14.5 -35c0 -12.667 -4.33301 -23.167 -13 -31.5s-19.334 -12.5 -32.001 -12.5z
M142 547c-12.667 0 -23.334 4.16699 -32.001 12.5s-13 18.833 -13 31.5c0 13.333 4.83301 25 14.5 35s19.834 19.333 30.501 28c10.667 -8.66699 20.834 -18 30.501 -28s14.5 -21.667 14.5 -35c0 -12.667 -4.33301 -23.167 -13 -31.5s-19.334 -12.5 -32.001 -12.5zM368 466
h80.999l-74 -192.5c-25.333 -68.333 -53.666 -135.5 -84.999 -201.5s-67.333 -129.333 -108 -190s-88.334 -113.667 -143.001 -159l-34 75c46.667 20 86.834 46 120.501 78s62.834 69 87.501 111l-155 355c-10.667 24 -18.834 43 -24.501 57l-27.5 67h87
c0.666992 -16 4 -33.5 10 -52.5s13.667 -40.833 23 -65.5l123 -291l42 91c26.667 62 46.167 119 58.5 171s18.5 101 18.5 147z" />
    <glyph glyph-name="Amacron" unicode="&#x100;" horiz-adv-x="602" 
d="M166 756h265v-42h-265v42zM414 244l-127 289l-128 -289h255zM144 210c-18 -41.333 -33.835 -80.999 -47.502 -118.999s-21.5 -68.333 -23.5 -91h-68c17.333 31.333 34.666 66.166 51.999 104.499l54 120.5l146 323c6.66699 15.333 7.83398 28.5 3.50098 39.5
s-9.83301 21.833 -16.5 32.5l67 34c4.66699 -16.667 11.334 -36.5 20.001 -59.5s20.334 -51.5 35.001 -85.5l148 -336c12.667 -29.333 26.167 -58.833 40.5 -88.5l42.5 -84.5h-94c-4 34 -14.167 70.667 -30.5 110l-42.5 100h-286z" />
    <glyph glyph-name="amacron" unicode="&#x101;" horiz-adv-x="512" 
d="M115 620h265v-42h-265v42zM359 306l-0.000976562 39.9971c0 42 -11.167 70.667 -33.5 86s-46.833 23 -73.5 23c-39.333 0 -71.833 -10 -97.5 -30s-45.834 -46.333 -60.501 -79c-6 8.66699 -12.833 16.334 -20.5 23.001s-16.167 12 -25.5 16
c24.667 32.667 54 56.834 88 72.501s72.333 23.5 115 23.5c44 0 83.667 -11.167 119 -33.5s53 -68.833 53 -139.5v-196c0 -22 4.33301 -43.167 13 -63.5s27.334 -32.833 56.001 -37.5v-19c-4 -0.666992 -8 -1.16699 -12 -1.5s-7.66699 -0.5 -11 -0.5
c-33.333 0 -59.333 7.83301 -78 23.5s-28.334 41.167 -29.001 76.5c-21.333 -30.667 -47.666 -55 -78.999 -73s-65 -27 -101 -27c-46 0 -82 12.167 -108 36.5s-39 55.833 -39 94.5c0 44 14 75.333 42 94s60.333 32 97 40s72.834 14.333 108.501 19
s61.167 15.334 76.5 32.001zM358.999 127.997l-0.00390625 145c-23.333 -14.667 -49.666 -24 -78.999 -28s-56.666 -8.66699 -81.999 -14s-46.666 -14.833 -63.999 -28.5s-26 -37.5 -26 -71.5c0 -30 7.83301 -54.833 23.5 -74.5s38.834 -29.5 69.501 -29.5
c32.667 0 64 10.333 94 31s51.333 44 64 70z" />
    <glyph glyph-name="Abreve" unicode="&#x102;" horiz-adv-x="602" 
d="M291 752c22.667 0 44.833 5.00098 66.5 15.001s39.167 25 52.5 45l20 -9c-13.333 -36 -32 -62.667 -56 -80s-51.667 -26 -83 -26s-59 8.66699 -83 26s-42.667 44 -56 80l20 9c14.667 -20.667 32.5 -35.834 53.5 -45.501s42.833 -14.5 65.5 -14.5zM413.999 244.001
l-127 289l-128 -289h255zM143.999 210.001c-18 -41.333 -33.835 -80.999 -47.502 -118.999s-21.5 -68.333 -23.5 -91h-68c17.333 31.333 34.666 66.166 51.999 104.499l54 120.5l146 323c6.66699 15.333 7.83398 28.5 3.50098 39.5s-9.83301 21.833 -16.5 32.5l67 34
c4.66699 -16.667 11.334 -36.5 20.001 -59.5s20.334 -51.5 35.001 -85.5l148 -336c12.667 -29.333 26.167 -58.833 40.5 -88.5l42.5 -84.5h-94c-4 34 -14.167 70.667 -30.5 110l-42.5 100h-286z" />
    <glyph glyph-name="abreve" unicode="&#x103;" horiz-adv-x="512" 
d="M248 606c22.667 0 44.833 5.00098 66.5 15.001s39.167 25 52.5 45l20 -9c-13.333 -36 -32 -62.667 -56 -80s-51.667 -26 -83 -26s-59 8.66699 -83 26s-42.667 44 -56 80l20 9c14.667 -20.667 32.5 -35.834 53.5 -45.501s42.833 -14.5 65.5 -14.5zM358.999 306.001
l-0.000976562 39.9971c0 42 -11.167 70.667 -33.5 86s-46.833 23 -73.5 23c-39.333 0 -71.833 -10 -97.5 -30s-45.834 -46.333 -60.501 -79c-6 8.66699 -12.833 16.334 -20.5 23.001s-16.167 12 -25.5 16c24.667 32.667 54 56.834 88 72.501s72.333 23.5 115 23.5
c44 0 83.667 -11.167 119 -33.5s53 -68.833 53 -139.5v-196c0 -22 4.33301 -43.167 13 -63.5s27.334 -32.833 56.001 -37.5v-19c-4 -0.666992 -8 -1.16699 -12 -1.5s-7.66699 -0.5 -11 -0.5c-33.333 0 -59.333 7.83301 -78 23.5s-28.334 41.167 -29.001 76.5
c-21.333 -30.667 -47.666 -55 -78.999 -73s-65 -27 -101 -27c-46 0 -82 12.167 -108 36.5s-39 55.833 -39 94.5c0 44 14 75.333 42 94s60.333 32 97 40s72.834 14.333 108.501 19s61.167 15.334 76.5 32.001zM358.998 127.998l-0.00390625 145
c-23.333 -14.667 -49.666 -24 -78.999 -28s-56.666 -8.66699 -81.999 -14s-46.666 -14.833 -63.999 -28.5s-26 -37.5 -26 -71.5c0 -30 7.83301 -54.833 23.5 -74.5s38.834 -29.5 69.501 -29.5c32.667 0 64 10.333 94 31s51.333 44 64 70z" />
    <glyph glyph-name="Aogonek" unicode="&#x104;" horiz-adv-x="602" 
d="M144 210c-18 -41.333 -33.835 -80.998 -47.502 -118.998s-21.5 -68.333 -23.5 -91h-68c17.333 31.333 34.666 66.166 51.999 104.499l54 120.5l146 323c2 4.66699 3.5 9.16699 4.5 13.5s1.5 8.16602 1.5 11.499c0 8.66699 -2 16.834 -6 24.501s-8.33301 15.167 -13 22.5
l67 34c4.66699 -16.667 11.334 -36.5 20.001 -59.5s20.334 -51.5 35.001 -85.5l145 -329l40.5 -91.5c13.667 -30.333 27.834 -59.833 42.501 -88.5h-6c-39.333 -1.33301 -72.5 -13 -99.5 -35s-40.5 -50 -40.5 -84c0 -20.667 5.33301 -35.334 16 -44.001s22.667 -13 36 -13
c10.667 0 21.834 2.33301 33.501 7s22.167 11 31.5 19l12 -12c-13.333 -15.333 -29.5 -27.833 -48.5 -37.5s-38.167 -14.5 -57.5 -14.5c-26.667 0 -46.834 7.66699 -60.501 23s-20.5 33.333 -20.5 54c0 34 13 63.167 39 87.5s55 40.833 87 49.5l-87 210h-285z
M413.998 244.002l-127 289l-128 -289h255z" />
    <glyph glyph-name="aogonek" unicode="&#x105;" horiz-adv-x="512" 
d="M359 306l-0.000976562 39.9971c0 42 -11.167 70.667 -33.5 86s-46.833 23 -73.5 23c-39.333 0 -71.833 -10 -97.5 -30s-45.834 -46.333 -60.501 -79c-6 8.66699 -12.833 16.334 -20.5 23.001s-16.167 12 -25.5 16c24.667 32.667 54 56.834 88 72.501
s72.333 23.5 115 23.5c44 0 83.667 -11.167 119 -33.5s53 -68.833 53 -139.5v-196c0 -19.333 3.16699 -38.666 9.5 -57.999s20.5 -31.333 42.5 -36v-18h-7c-39.333 -1.33301 -72.5 -13 -99.5 -35s-40.5 -50 -40.5 -84c0 -20.667 5.33301 -35.334 16 -44.001
s22.667 -13 36 -13c10.667 0 21.834 2.33301 33.501 7s22.167 11 31.5 19l12 -12c-13.333 -15.333 -29.5 -27.833 -48.5 -37.5s-38.167 -14.5 -57.5 -14.5c-26.667 0 -46.834 7.66699 -60.501 23s-20.5 33.333 -20.5 54c0 36 14.333 67.333 43 94s64 44 106 52
c-15.333 6.66699 -28 17 -38 31s-16.333 30.667 -19 50c-21.333 -30.667 -47.666 -55 -78.999 -73s-65 -27 -101 -27c-46 0 -82 12.167 -108 36.5s-39 55.833 -39 94.5c0 44 14 75.333 42 94s60.333 32 97 40s72.834 14.333 108.501 19s61.167 15.334 76.5 32.001z
M358.999 127.997l-0.00390625 145c-23.333 -14.667 -49.666 -24 -78.999 -28s-56.666 -8.66699 -81.999 -14s-46.666 -14.833 -63.999 -28.5s-26 -37.5 -26 -71.5c0 -30 7.83301 -54.833 23.5 -74.5s38.834 -29.5 69.501 -29.5c32.667 0 64 10.333 94 31s51.333 44 64 70z
" />
    <glyph glyph-name="Cacute" unicode="&#x106;" horiz-adv-x="665" 
d="M303 702l-12.001 12l148 179c8 -13.333 16.333 -25.5 25 -36.5s18.334 -20.833 29.001 -29.5c-35.333 -16 -68.5 -34.5 -99.5 -55.5s-61.167 -44.167 -90.5 -69.5zM596.999 94c3.33301 -10.667 7.16602 -20.332 11.499 -28.999s8.83301 -15.667 13.5 -21
c-32 -19.333 -69.5 -34.333 -112.5 -45s-85.5 -16 -127.5 -16c-100.667 0 -181.167 30 -241.5 90s-90.5 137 -90.5 231c0 102 30.333 184 91 246s142.667 93 246 93c40 0 82 -4.83301 126 -14.5s83.333 -25.5 118 -47.5c-8 -11.333 -14.667 -22.333 -20 -33
s-10 -21.334 -14 -32.001c-24 28.667 -54.333 52.667 -91 72s-76.334 29 -119.001 29c-44 0 -82.667 -8.5 -116 -25.5s-60.833 -39.667 -82.5 -68s-38 -61 -49 -98s-16.5 -75.5 -16.5 -115.5c0 -47.333 7.5 -89.5 22.5 -126.5s34.833 -68 59.5 -93s52.834 -44 84.501 -57
s63.834 -19.5 96.501 -19.5c36 0 72 6.83301 108 20.5s70.333 33.5 103 59.5z" />
    <glyph glyph-name="cacute" unicode="&#x107;" horiz-adv-x="515" 
d="M213 534l-12.001 12l148 179c8 -13.333 16.333 -25.5 25 -36.5s18.334 -20.833 29.001 -29.5c-35.333 -16 -68.5 -34.5 -99.5 -55.5s-61.167 -44.167 -90.5 -69.5zM435.999 119c6.66699 -6 13.833 -11.998 21.5 -17.998s16.834 -10.333 27.501 -13
c-22.667 -32 -52.167 -56.667 -88.5 -74s-76.5 -26 -120.5 -26c-69.333 0 -126.833 21.833 -172.5 65.5s-68.5 102.167 -68.5 175.5c0 31.333 4.66699 62.166 14 92.499s23.666 57.333 42.999 81s44.333 42.667 75 57s67 21.5 109 21.5
c37.333 0 73.833 -6.83301 109.5 -20.5s65.834 -36.834 90.501 -69.501c-8.66699 -4 -16.334 -9.66699 -23.001 -17l-20 -23c-12 22.667 -30 45.667 -54 69s-58.667 35 -104 35c-53.333 0 -94.333 -20.833 -123 -62.5s-43 -94.5 -43 -158.5c0 -60 13.833 -111.5 41.5 -154.5
s70.167 -64.5 127.5 -64.5c38 0 70.667 9.66699 98 29s47.333 44.333 60 75z" />
    <glyph glyph-name="Ccircumflex" unicode="&#x108;" horiz-adv-x="665" 
d="M521 704c-26 10.667 -51.167 21.834 -75.5 33.501s-47.833 24.834 -70.5 39.501c-22.667 -14.667 -46.167 -27.834 -70.5 -39.501s-49.5 -22.834 -75.5 -33.501l-10 12l136 121h40l136 -121zM597 94c3.33301 -10.667 7.16602 -20.332 11.499 -28.999
s8.83301 -15.667 13.5 -21c-32 -19.333 -69.5 -34.333 -112.5 -45s-85.5 -16 -127.5 -16c-100.667 0 -181.167 30 -241.5 90s-90.5 137 -90.5 231c0 102 30.333 184 91 246s142.667 93 246 93c40 0 82 -4.83301 126 -14.5s83.333 -25.5 118 -47.5
c-8 -11.333 -14.667 -22.333 -20 -33s-10 -21.334 -14 -32.001c-24 28.667 -54.333 52.667 -91 72s-76.334 29 -119.001 29c-44 0 -82.667 -8.5 -116 -25.5s-60.833 -39.667 -82.5 -68s-38 -61 -49 -98s-16.5 -75.5 -16.5 -115.5c0 -47.333 7.5 -89.5 22.5 -126.5
s34.833 -68 59.5 -93s52.834 -44 84.501 -57s63.834 -19.5 96.501 -19.5c36 0 72 6.83301 108 20.5s70.333 33.5 103 59.5z" />
    <glyph glyph-name="ccircumflex" unicode="&#x109;" horiz-adv-x="515" 
d="M407 549c-26 10.667 -51.167 21.834 -75.5 33.501s-47.833 24.834 -70.5 39.501c-22.667 -14.667 -46.167 -27.834 -70.5 -39.501s-49.5 -22.834 -75.5 -33.501l-10 12l136 121h40l136 -121zM436 119c6.66699 -6 13.833 -11.998 21.5 -17.998s16.834 -10.333 27.501 -13
c-22.667 -32 -52.167 -56.667 -88.5 -74s-76.5 -26 -120.5 -26c-69.333 0 -126.833 21.833 -172.5 65.5s-68.5 102.167 -68.5 175.5c0 31.333 4.66699 62.166 14 92.499s23.666 57.333 42.999 81s44.333 42.667 75 57s67 21.5 109 21.5
c37.333 0 73.833 -6.83301 109.5 -20.5s65.834 -36.834 90.501 -69.501c-8.66699 -4 -16.334 -9.66699 -23.001 -17l-20 -23c-12 22.667 -30 45.667 -54 69s-58.667 35 -104 35c-53.333 0 -94.333 -20.833 -123 -62.5s-43 -94.5 -43 -158.5c0 -60 13.833 -111.5 41.5 -154.5
s70.167 -64.5 127.5 -64.5c38 0 70.667 9.66699 98 29s47.333 44.333 60 75z" />
    <glyph glyph-name="Cdotaccent" unicode="&#x10a;" horiz-adv-x="665" 
d="M387 704c-12.667 0 -23.334 4.16699 -32.001 12.5s-13 18.833 -13 31.5c0 13.333 4.83301 25 14.5 35s19.834 19.333 30.501 28c10.667 -8.66699 20.834 -18 30.501 -28s14.5 -21.667 14.5 -35c0 -12.667 -4.33301 -23.167 -13 -31.5s-19.334 -12.5 -32.001 -12.5z
M597 94c3.33301 -10.667 7.16602 -20.332 11.499 -28.999s8.83301 -15.667 13.5 -21c-32 -19.333 -69.5 -34.333 -112.5 -45s-85.5 -16 -127.5 -16c-100.667 0 -181.167 30 -241.5 90s-90.5 137 -90.5 231c0 102 30.333 184 91 246s142.667 93 246 93
c40 0 82 -4.83301 126 -14.5s83.333 -25.5 118 -47.5c-8 -11.333 -14.667 -22.333 -20 -33s-10 -21.334 -14 -32.001c-24 28.667 -54.333 52.667 -91 72s-76.334 29 -119.001 29c-44 0 -82.667 -8.5 -116 -25.5s-60.833 -39.667 -82.5 -68s-38 -61 -49 -98
s-16.5 -75.5 -16.5 -115.5c0 -47.333 7.5 -89.5 22.5 -126.5s34.833 -68 59.5 -93s52.834 -44 84.501 -57s63.834 -19.5 96.501 -19.5c36 0 72 6.83301 108 20.5s70.333 33.5 103 59.5z" />
    <glyph glyph-name="cdotaccent" unicode="&#x10b;" horiz-adv-x="515" 
d="M267 547c-12.667 0 -23.334 4.16699 -32.001 12.5s-13 18.833 -13 31.5c0 13.333 4.83301 25 14.5 35s19.834 19.333 30.501 28c10.667 -8.66699 20.834 -18 30.501 -28s14.5 -21.667 14.5 -35c0 -12.667 -4.33301 -23.167 -13 -31.5s-19.334 -12.5 -32.001 -12.5z
M436 119c6.66699 -6 13.833 -11.998 21.5 -17.998s16.834 -10.333 27.501 -13c-22.667 -32 -52.167 -56.667 -88.5 -74s-76.5 -26 -120.5 -26c-69.333 0 -126.833 21.833 -172.5 65.5s-68.5 102.167 -68.5 175.5c0 31.333 4.66699 62.166 14 92.499s23.666 57.333 42.999 81
s44.333 42.667 75 57s67 21.5 109 21.5c37.333 0 73.833 -6.83301 109.5 -20.5s65.834 -36.834 90.501 -69.501c-8.66699 -4 -16.334 -9.66699 -23.001 -17l-20 -23c-12 22.667 -30 45.667 -54 69s-58.667 35 -104 35c-53.333 0 -94.333 -20.833 -123 -62.5
s-43 -94.5 -43 -158.5c0 -60 13.833 -111.5 41.5 -154.5s70.167 -64.5 127.5 -64.5c38 0 70.667 9.66699 98 29s47.333 44.333 60 75z" />
    <glyph glyph-name="Ccaron" unicode="&#x10c;" horiz-adv-x="665" 
d="M223 855c26 -10.667 51.167 -21.834 75.5 -33.501s47.833 -24.834 70.5 -39.501c22.667 14.667 46.167 27.834 70.5 39.501s49.5 22.834 75.5 33.501l10 -12l-136 -121h-40l-136 121zM597 94c3.33301 -10.667 7.16602 -20.332 11.499 -28.999s8.83301 -15.667 13.5 -21
c-32 -19.333 -69.5 -34.333 -112.5 -45s-85.5 -16 -127.5 -16c-100.667 0 -181.167 30 -241.5 90s-90.5 137 -90.5 231c0 102 30.333 184 91 246s142.667 93 246 93c40 0 82 -4.83301 126 -14.5s83.333 -25.5 118 -47.5c-8 -11.333 -14.667 -22.333 -20 -33
s-10 -21.334 -14 -32.001c-24 28.667 -54.333 52.667 -91 72s-76.334 29 -119.001 29c-44 0 -82.667 -8.5 -116 -25.5s-60.833 -39.667 -82.5 -68s-38 -61 -49 -98s-16.5 -75.5 -16.5 -115.5c0 -47.333 7.5 -89.5 22.5 -126.5s34.833 -68 59.5 -93s52.834 -44 84.501 -57
s63.834 -19.5 96.501 -19.5c36 0 72 6.83301 108 20.5s70.333 33.5 103 59.5z" />
    <glyph glyph-name="ccaron" unicode="&#x10d;" horiz-adv-x="515" 
d="M117 681c26 -10.667 51.167 -21.834 75.5 -33.501s47.833 -24.834 70.5 -39.501c22.667 14.667 46.167 27.834 70.5 39.501s49.5 22.834 75.5 33.501l10 -12l-136 -121h-40l-136 121zM436 119c6.66699 -6 13.833 -11.998 21.5 -17.998s16.834 -10.333 27.501 -13
c-22.667 -32 -52.167 -56.667 -88.5 -74s-76.5 -26 -120.5 -26c-69.333 0 -126.833 21.833 -172.5 65.5s-68.5 102.167 -68.5 175.5c0 31.333 4.66699 62.166 14 92.499s23.666 57.333 42.999 81s44.333 42.667 75 57s67 21.5 109 21.5
c37.333 0 73.833 -6.83301 109.5 -20.5s65.834 -36.834 90.501 -69.501c-8.66699 -4 -16.334 -9.66699 -23.001 -17l-20 -23c-12 22.667 -30 45.667 -54 69s-58.667 35 -104 35c-53.333 0 -94.333 -20.833 -123 -62.5s-43 -94.5 -43 -158.5c0 -60 13.833 -111.5 41.5 -154.5
s70.167 -64.5 127.5 -64.5c38 0 70.667 9.66699 98 29s47.333 44.333 60 75z" />
    <glyph glyph-name="Dcaron" unicode="&#x10e;" horiz-adv-x="732" 
d="M185 855c26 -10.667 51.167 -21.834 75.5 -33.501s47.833 -24.834 70.5 -39.501c22.667 14.667 46.167 27.834 70.5 39.501s49.5 22.834 75.5 33.501l10 -12l-136 -121h-40l-136 121zM307 0l-197.002 -0.00195312c6 22.667 9.66699 54.834 11 96.501s2 91.167 2 148.5
v144c0 57.333 -0.666992 106.833 -2 148.5s-5 73.834 -11 96.501h215c114.667 0 202.834 -29.333 264.501 -88s92.5 -137 92.5 -235c0 -92.667 -30.667 -167.667 -92 -225s-155.666 -86 -282.999 -86zM245.998 27.998h41c108.667 0 189.5 25.167 242.5 75.5
s79.5 119.5 79.5 207.5c0 89.333 -25.5 160.833 -76.5 214.5s-132.167 80.5 -243.5 80.5h-43c-23.333 0 -39.833 -5 -49.5 -15s-14.5 -27 -14.5 -51v-446c0 -24 4.83301 -41 14.5 -51s26.167 -15 49.5 -15z" />
    <glyph glyph-name="dcaron" unicode="&#x10f;" horiz-adv-x="719" 
d="M599 668c10 8 19.332 17.166 27.999 27.499s16.334 22.5 23.001 36.5c12.667 -8.66699 22 -20.167 28 -34.5s9 -29.166 9 -44.499c0 -28.667 -9 -57.334 -27 -86.001s-39 -50.667 -63 -66l-7 11c14.667 12.667 25.667 26.334 33 41.001s11 29.667 11 45
c0 13.333 -3.16699 26.333 -9.5 39s-14.833 23 -25.5 31zM280.999 453.999c-30.667 0 -56.8291 -6.16895 -78.4961 -18.502s-39.334 -28.833 -53.001 -49.5s-23.834 -44.334 -30.501 -71.001s-10 -54.334 -10 -83.001c0 -22.667 2.16699 -46.667 6.5 -72
s12.166 -48.666 23.499 -69.999s27 -39.166 47 -53.499s45.333 -21.5 76 -21.5c29.333 0 59.333 8.33301 90 25s53.334 38.334 68.001 65.001v274c-12.667 24.667 -31.834 43.334 -57.501 56.001s-52.834 19 -81.501 19zM483.004 608.997v-481
c0 -32.667 3.33301 -58.334 10 -77.001s20.334 -32.334 41.001 -41.001v-19c-36.667 0 -61.667 5.16699 -75 15.5s-23.333 25.833 -30 46.5c-24.667 -22 -51.334 -38.333 -80.001 -49s-58.334 -16 -89.001 -16c-77.333 0 -134.166 23.333 -170.499 70
s-54.5 104.334 -54.5 173.001c0 79.333 22.833 140.833 68.5 184.5s100.834 65.5 165.501 65.5c24.667 0 50.5 -3 77.5 -9s51.5 -17 73.5 -33v162c0 20.667 -1.16699 40 -3.5 58s-6.83301 32.333 -13.5 43c14.667 2.66699 28 6.5 40 11.5s24.333 11.167 37 18.5
c1.33301 -21.333 2.16602 -42.166 2.49902 -62.499s0.5 -40.5 0.5 -60.5z" />
    <glyph glyph-name="Dcroat" unicode="&#x110;" horiz-adv-x="732" 
d="M246 28h41c108.667 0 189.5 25.167 242.5 75.5s79.5 119.5 79.5 207.5c0 89.333 -25.5 160.833 -76.5 214.5s-132.167 80.5 -243.5 80.5h-43c-23.333 0 -39.833 -5 -49.5 -15s-14.5 -27 -14.5 -51v-198h18c35.333 0 68.5 0.833008 99.5 2.5s61.833 4.16699 92.5 7.5
l-13 -35c-22 -2 -43 -3.16699 -63 -3.5s-48 -0.5 -84 -0.5h-50v-219c0 -24 4.83301 -41 14.5 -51s26.167 -15 49.5 -15zM19 313l-1.00293 30.998c10.667 -0.666992 24.834 -1.16699 42.501 -1.5s34.5 -0.5 50.5 -0.5h12v47c0 57.333 -0.666992 106.833 -2 148.5
s-5 73.834 -11 96.501h215c114.667 0 202.834 -29.333 264.501 -88s92.5 -137 92.5 -235c0 -92.667 -30.667 -167.667 -92 -225s-155.666 -86 -282.999 -86h-197c6 22.667 9.66699 54.834 11 96.501s2 91.167 2 148.5v68h-104z" />
    <glyph glyph-name="dcroat" unicode="&#x111;" horiz-adv-x="579" 
d="M281 454c-30.667 0 -56.8291 -6.16895 -78.4961 -18.502s-39.334 -28.833 -53.001 -49.5s-23.834 -44.334 -30.501 -71.001s-10 -54.334 -10 -83.001c0 -22.667 2.16699 -46.667 6.5 -72s12.166 -48.666 23.499 -69.999s27 -39.166 47 -53.499s45.333 -21.5 76 -21.5
c29.333 0 59.333 8.33301 90 25s53.334 38.334 68.001 65.001v274c-12.667 24.667 -31.834 43.334 -57.501 56.001s-52.834 19 -81.501 19zM420.005 547.998l-164.001 -0.00195312l-1 31c10.667 -0.666992 24.834 -1.16699 42.501 -1.5s34.5 -0.5 50.5 -0.5h72v24
c0 20.667 -1.16699 40 -3.5 58s-6.83301 32.333 -13.5 43c14.667 2.66699 28 6.5 40 11.5s24.333 11.167 37 18.5c1.33301 -21.333 2.16602 -42.166 2.49902 -62.499s0.5 -40.5 0.5 -60.5v-32c24 0.666992 47 1.83398 69 3.50098s44.333 3.83398 67 6.50098l-13 -35
c-18.667 -2 -37.167 -3.16699 -55.5 -3.5s-40.833 -0.5 -67.5 -0.5v-420c0 -32.667 3.33301 -58.334 10 -77.001s20.334 -32.334 41.001 -41.001v-19c-36.667 0 -61.667 5.16699 -75 15.5s-23.333 25.833 -30 46.5c-24.667 -22 -51.334 -38.333 -80.001 -49
s-58.334 -16 -89.001 -16c-77.333 0 -134.166 23.333 -170.499 70s-54.5 104.334 -54.5 173.001c0 79.333 22.833 140.833 68.5 184.5s100.834 65.5 165.501 65.5c24.667 0 50.5 -3 77.5 -9s51.5 -17 73.5 -33v109z" />
    <glyph glyph-name="Emacron" unicode="&#x112;" horiz-adv-x="547" 
d="M156 765h265v-42h-265v42zM411 0l-300.999 -0.00195312c6 22.667 9.66699 54.834 11 96.501s2 91.167 2 148.5v144c0 57.333 -0.666992 106.833 -2 148.5s-5 73.834 -11 96.501h360l10 -74c-20 12.667 -46.5 23 -79.5 31s-66.5 12 -100.5 12h-47c-22.667 0 -40 -3 -52 -9
s-18 -25 -18 -57v-154c0 -12 1.66699 -20 5 -24s8.66602 -5.66699 15.999 -5l239 6v-42l-239 7c-7.33301 0 -12.666 -2.33301 -15.999 -7s-5 -12 -5 -22v-199c0 -32 6 -51 18 -57s29.333 -9 52 -9h56c24.667 0 53.667 3.33301 87 10s63.666 17.667 90.999 33l-11 -78
c-10 1.33301 -20.333 2.33301 -31 3s-22 1 -34 1z" />
    <glyph glyph-name="emacron" unicode="&#x113;" horiz-adv-x="523" 
d="M134 620h265v-42h-265v42zM483 266l-369.998 0.000976562c-0.666992 -6 -1.16699 -11.667 -1.5 -17s-0.5 -11.333 -0.5 -18c0 -27.333 3.16699 -54 9.5 -80s16.166 -49 29.499 -69s30.5 -36.167 51.5 -48.5s46.167 -18.5 75.5 -18.5c37.333 0 68.833 9.66699 94.5 29
s47.167 44 64.5 74c5.33301 -6 11.166 -11.5 17.499 -16.5s13.5 -8.5 21.5 -10.5c-22 -34 -50.5 -59.667 -85.5 -77s-73.5 -26 -115.5 -26c-40 0 -74.833 6.66699 -104.5 20s-54.167 31.333 -73.5 54s-33.833 49.167 -43.5 79.5s-14.5 62.166 -14.5 95.499
c0 71.333 22 129.833 66 175.5s100 68.5 168 68.5c56 0 105.167 -18.333 147.5 -55s63.5 -90 63.5 -160zM272.002 456.001c-46.667 0 -82.5 -15.667 -107.5 -47s-40.833 -69.333 -47.5 -114h292c-3.33301 50 -17 89.333 -41 118s-56 43 -96 43z" />
    <glyph glyph-name="Ebreve" unicode="&#x114;" horiz-adv-x="547" 
d="M292 752c22.667 0 44.833 5.00098 66.5 15.001s39.167 25 52.5 45l20 -9c-13.333 -36 -32 -62.667 -56 -80s-51.667 -26 -83 -26s-59 8.66699 -83 26s-42.667 44 -56 80l20 9c14.667 -20.667 32.5 -35.834 53.5 -45.501s42.833 -14.5 65.5 -14.5zM410.999 0.000976562
l-300.999 -0.00195312c6 22.667 9.66699 54.834 11 96.501s2 91.167 2 148.5v144c0 57.333 -0.666992 106.833 -2 148.5s-5 73.834 -11 96.501h360l10 -74c-20 12.667 -46.5 23 -79.5 31s-66.5 12 -100.5 12h-47c-22.667 0 -40 -3 -52 -9s-18 -25 -18 -57v-154
c0 -12 1.66699 -20 5 -24s8.66602 -5.66699 15.999 -5l239 6v-42l-239 7c-7.33301 0 -12.666 -2.33301 -15.999 -7s-5 -12 -5 -22v-199c0 -32 6 -51 18 -57s29.333 -9 52 -9h56c24.667 0 53.667 3.33301 87 10s63.666 17.667 90.999 33l-11 -78
c-10 1.33301 -20.333 2.33301 -31 3s-22 1 -34 1z" />
    <glyph glyph-name="ebreve" unicode="&#x115;" horiz-adv-x="523" 
d="M259 606c22.667 0 44.833 5.00098 66.5 15.001s39.167 25 52.5 45l20 -9c-13.333 -36 -32 -62.667 -56 -80s-51.667 -26 -83 -26s-59 8.66699 -83 26s-42.667 44 -56 80l20 9c14.667 -20.667 32.5 -35.834 53.5 -45.501s42.833 -14.5 65.5 -14.5zM482.999 266.001
l-369.998 0.000976562c-0.666992 -6 -1.16699 -11.667 -1.5 -17s-0.5 -11.333 -0.5 -18c0 -27.333 3.16699 -54 9.5 -80s16.166 -49 29.499 -69s30.5 -36.167 51.5 -48.5s46.167 -18.5 75.5 -18.5c37.333 0 68.833 9.66699 94.5 29s47.167 44 64.5 74
c5.33301 -6 11.166 -11.5 17.499 -16.5s13.5 -8.5 21.5 -10.5c-22 -34 -50.5 -59.667 -85.5 -77s-73.5 -26 -115.5 -26c-40 0 -74.833 6.66699 -104.5 20s-54.167 31.333 -73.5 54s-33.833 49.167 -43.5 79.5s-14.5 62.166 -14.5 95.499c0 71.333 22 129.833 66 175.5
s100 68.5 168 68.5c56 0 105.167 -18.333 147.5 -55s63.5 -90 63.5 -160zM272.001 456.002c-46.667 0 -82.5 -15.667 -107.5 -47s-40.833 -69.333 -47.5 -114h292c-3.33301 50 -17 89.333 -41 118s-56 43 -96 43z" />
    <glyph glyph-name="Edotaccent" unicode="&#x116;" horiz-adv-x="547" 
d="M292 704c-12.667 0 -23.334 4.16699 -32.001 12.5s-13 18.833 -13 31.5c0 13.333 4.83301 25 14.5 35s19.834 19.333 30.501 28c10.667 -8.66699 20.834 -18 30.501 -28s14.5 -21.667 14.5 -35c0 -12.667 -4.33301 -23.167 -13 -31.5s-19.334 -12.5 -32.001 -12.5zM411 0
l-300.999 -0.00195312c6 22.667 9.66699 54.834 11 96.501s2 91.167 2 148.5v144c0 57.333 -0.666992 106.833 -2 148.5s-5 73.834 -11 96.501h360l10 -74c-20 12.667 -46.5 23 -79.5 31s-66.5 12 -100.5 12h-47c-22.667 0 -40 -3 -52 -9s-18 -25 -18 -57v-154
c0 -12 1.66699 -20 5 -24s8.66602 -5.66699 15.999 -5l239 6v-42l-239 7c-7.33301 0 -12.666 -2.33301 -15.999 -7s-5 -12 -5 -22v-199c0 -32 6 -51 18 -57s29.333 -9 52 -9h56c24.667 0 53.667 3.33301 87 10s63.666 17.667 90.999 33l-11 -78
c-10 1.33301 -20.333 2.33301 -31 3s-22 1 -34 1z" />
    <glyph glyph-name="edotaccent" unicode="&#x117;" horiz-adv-x="523" 
d="M262 547c-12.667 0 -23.334 4.16699 -32.001 12.5s-13 18.833 -13 31.5c0 13.333 4.83301 25 14.5 35s19.834 19.333 30.501 28c10.667 -8.66699 20.834 -18 30.501 -28s14.5 -21.667 14.5 -35c0 -12.667 -4.33301 -23.167 -13 -31.5s-19.334 -12.5 -32.001 -12.5z
M483 266l-369.998 0.000976562c-0.666992 -6 -1.16699 -11.667 -1.5 -17s-0.5 -11.333 -0.5 -18c0 -27.333 3.16699 -54 9.5 -80s16.166 -49 29.499 -69s30.5 -36.167 51.5 -48.5s46.167 -18.5 75.5 -18.5c37.333 0 68.833 9.66699 94.5 29s47.167 44 64.5 74
c5.33301 -6 11.166 -11.5 17.499 -16.5s13.5 -8.5 21.5 -10.5c-22 -34 -50.5 -59.667 -85.5 -77s-73.5 -26 -115.5 -26c-40 0 -74.833 6.66699 -104.5 20s-54.167 31.333 -73.5 54s-33.833 49.167 -43.5 79.5s-14.5 62.166 -14.5 95.499c0 71.333 22 129.833 66 175.5
s100 68.5 168 68.5c56 0 105.167 -18.333 147.5 -55s63.5 -90 63.5 -160zM272.002 456.001c-46.667 0 -82.5 -15.667 -107.5 -47s-40.833 -69.333 -47.5 -114h292c-3.33301 50 -17 89.333 -41 118s-56 43 -96 43z" />
    <glyph glyph-name="Eogonek" unicode="&#x118;" horiz-adv-x="547" 
d="M398 0l-288 -0.000976562c6 22.667 9.66699 54.834 11 96.501s2 91.167 2 148.5v144c0 57.333 -0.666992 106.833 -2 148.5s-5 73.834 -11 96.501h360l10 -74c-20 12.667 -46.5 23 -79.5 31s-66.5 12 -100.5 12h-47c-22.667 0 -40 -3 -52 -9s-18 -25 -18 -57v-154
c0 -12 1.66699 -20 5 -24s8.66602 -5.66699 15.999 -5l239 6v-42l-239 7c-7.33301 0 -12.666 -2.33301 -15.999 -7s-5 -12 -5 -22v-200c0 -32 6 -51 18 -57s29.333 -9 52 -9h56c24.667 0 53.667 2.83301 87 8.5s63.666 17.5 90.999 35.5l-10 -74
c-41.333 0 -76.166 -11.333 -104.499 -34s-42.5 -51 -42.5 -85c0 -20.667 5.33301 -35.334 16 -44.001s22.667 -13 36 -13c10.667 0 21.834 2.33301 33.501 7s22.167 11 31.5 19l12 -12c-13.333 -15.333 -29.5 -27.833 -48.5 -37.5s-38.167 -14.5 -57.5 -14.5
c-26.667 0 -46.834 7.66699 -60.501 23s-20.5 33.333 -20.5 54c0 34 13 63.167 39 87.5s55 40.833 87 49.5z" />
    <glyph glyph-name="eogonek" unicode="&#x119;" horiz-adv-x="523" 
d="M483 266l-369.997 -0.000976562c-0.666992 -6 -1.16699 -11.667 -1.5 -17s-0.5 -11.333 -0.5 -18c0 -27.333 3.16699 -54 9.5 -80s16.166 -49 29.499 -69s30.5 -36.167 51.5 -48.5s46.167 -18.5 75.5 -18.5c37.333 0 68.833 9.66699 94.5 29s47.167 44 64.5 74
c5.33301 -6 11.166 -11.5 17.499 -16.5s13.5 -8.5 21.5 -10.5c-26.667 -36 -51.667 -58.833 -75 -68.5l-89 -37.5c-14.667 -6.66699 -31.334 -18.5 -50.001 -35.5s-28 -39.833 -28 -68.5c0 -20.667 5.33301 -35.334 16 -44.001s22.667 -13 36 -13
c10.667 0 21.834 2.33301 33.501 7s22.167 11 31.5 19l12 -12c-13.333 -15.333 -29.5 -27.833 -48.5 -37.5s-38.167 -14.5 -57.5 -14.5c-26.667 0 -46.834 7.83301 -60.501 23.5s-20.5 33.834 -20.5 54.501c0 30 9.5 55.167 28.5 75.5s40.833 36.5 65.5 48.5
c-39.333 0.666992 -73.5 7.83398 -102.5 21.501s-53 31.667 -72 54s-33.167 48.5 -42.5 78.5s-14 61.667 -14 95c0 71.333 22 129.833 66 175.5s100 68.5 168 68.5c56 0 105.167 -18.333 147.5 -55s63.5 -90 63.5 -160zM117.003 294.999h292c-3.33301 50 -17 89.333 -41 118
s-56 43 -96 43c-46.667 0 -82.5 -15.667 -107.5 -47s-40.833 -69.333 -47.5 -114z" />
    <glyph glyph-name="Ecaron" unicode="&#x11a;" horiz-adv-x="547" 
d="M142 855c26 -10.667 51.167 -21.834 75.5 -33.501s47.833 -24.834 70.5 -39.501c22.667 14.667 46.167 27.834 70.5 39.501s49.5 22.834 75.5 33.501l10 -12l-136 -121h-40l-136 121zM411 0l-300.999 -0.00195312c6 22.667 9.66699 54.834 11 96.501s2 91.167 2 148.5
v144c0 57.333 -0.666992 106.833 -2 148.5s-5 73.834 -11 96.501h360l10 -74c-20 12.667 -46.5 23 -79.5 31s-66.5 12 -100.5 12h-47c-22.667 0 -40 -3 -52 -9s-18 -25 -18 -57v-154c0 -12 1.66699 -20 5 -24s8.66602 -5.66699 15.999 -5l239 6v-42l-239 7
c-7.33301 0 -12.666 -2.33301 -15.999 -7s-5 -12 -5 -22v-199c0 -32 6 -51 18 -57s29.333 -9 52 -9h56c24.667 0 53.667 3.33301 87 10s63.666 17.667 90.999 33l-11 -78c-10 1.33301 -20.333 2.33301 -31 3s-22 1 -34 1z" />
    <glyph glyph-name="ecaron" unicode="&#x11b;" horiz-adv-x="523" 
d="M115 681c26 -10.667 51.167 -21.834 75.5 -33.501s47.833 -24.834 70.5 -39.501c22.667 14.667 46.167 27.834 70.5 39.501s49.5 22.834 75.5 33.501l10 -12l-136 -121h-40l-136 121zM483 266l-369.998 0.000976562c-0.666992 -6 -1.16699 -11.667 -1.5 -17
s-0.5 -11.333 -0.5 -18c0 -27.333 3.16699 -54 9.5 -80s16.166 -49 29.499 -69s30.5 -36.167 51.5 -48.5s46.167 -18.5 75.5 -18.5c37.333 0 68.833 9.66699 94.5 29s47.167 44 64.5 74c5.33301 -6 11.166 -11.5 17.499 -16.5s13.5 -8.5 21.5 -10.5
c-22 -34 -50.5 -59.667 -85.5 -77s-73.5 -26 -115.5 -26c-40 0 -74.833 6.66699 -104.5 20s-54.167 31.333 -73.5 54s-33.833 49.167 -43.5 79.5s-14.5 62.166 -14.5 95.499c0 71.333 22 129.833 66 175.5s100 68.5 168 68.5c56 0 105.167 -18.333 147.5 -55
s63.5 -90 63.5 -160zM272.002 456.001c-46.667 0 -82.5 -15.667 -107.5 -47s-40.833 -69.333 -47.5 -114h292c-3.33301 50 -17 89.333 -41 118s-56 43 -96 43z" />
    <glyph glyph-name="Gcircumflex" unicode="&#x11c;" horiz-adv-x="694" 
d="M508 704c-26 10.667 -51.167 21.834 -75.5 33.501s-47.833 24.834 -70.5 39.501c-22.667 -14.667 -46.167 -27.834 -70.5 -39.501s-49.5 -22.834 -75.5 -33.501l-10 12l136 121h40l136 -121zM50 313c0 97.333 31.0039 176.667 93.0039 238s143.333 92 244 92
c40 0 82 -4.83301 126 -14.5s83.333 -25.5 118 -47.5c-8 -11.333 -14.667 -22.333 -20 -33s-10 -21.334 -14 -32.001c-23.333 27.333 -53.5 51 -90.5 71s-76.833 30 -119.5 30c-44 0 -82.5 -8.5 -115.5 -25.5s-60.5 -39.5 -82.5 -67.5s-38.5 -60.333 -49.5 -97
s-16.5 -74.667 -16.5 -114c0 -40.667 5.66699 -79.167 17 -115.5s28 -68 50 -95s49.667 -48.5 83 -64.5s71.666 -24 114.999 -24c34 0 68.333 5.16699 103 15.5s63.334 29.5 86.001 57.5c-0.666992 45.333 -1.83398 84 -3.50098 116s-4.83398 58 -9.50098 78h80
c-4.66699 -18 -8 -39.667 -10 -65s-3 -56 -3 -92v-74c-38.667 -22 -79.334 -38.667 -122.001 -50s-86.334 -17 -131.001 -17c-98 0 -177.167 29.333 -237.5 88s-90.5 139.334 -90.5 242.001z" />
    <glyph glyph-name="gcircumflex" unicode="&#x11d;" horiz-adv-x="526" 
d="M405 560c-26 10.667 -51.167 21.834 -75.5 33.501s-47.833 24.834 -70.5 39.501c-22.667 -14.667 -46.167 -27.834 -70.5 -39.501s-49.5 -22.834 -75.5 -33.501l-10 12l136 121h40l136 -121zM109 310c0 -40 12.167 -75.167 36.5 -105.5s58.5 -45.833 102.5 -46.5
c48 0 83.333 14.167 106 42.5s34 62.5 34 102.5s-12.333 75.333 -37 106s-59 46 -103 46c-48 0 -83.167 -14.167 -105.5 -42.5s-33.5 -62.5 -33.5 -102.5zM155 32c-9.33301 6.66699 -16.666 14.5049 -21.999 23.5049s-8 19.833 -8 32.5c0 13.333 3.5 25.666 10.5 36.999
s16.833 19.333 29.5 24c-39.333 12.667 -70.333 33.667 -93 63s-34 62.666 -34 99.999c0 26.667 5.83301 50.167 17.5 70.5s27.334 37.5 47.001 51.5s42.167 24.667 67.5 32s51.333 11 78 11c15.333 0 35 0.5 59 1.5s47.167 4.16699 69.5 9.5s41.833 13.833 58.5 25.5
s25.334 28.167 26.001 49.5l7 6c10 -6.66699 17.667 -14.667 23 -24s8 -19 8 -29c0 -23.333 -9.83301 -38.833 -29.5 -46.5s-40.834 -11.5 -63.501 -11.5c-14.667 0 -28.834 1 -42.501 3s-24.167 3.66699 -31.5 5v-2c38.667 -13.333 69.334 -34.833 92.001 -64.5
s34 -62.834 34 -99.501c0 -26.667 -5.83301 -50.167 -17.5 -70.5s-27.334 -37.333 -47.001 -51s-42.167 -24.167 -67.5 -31.5s-51.333 -11 -78 -11c-11.333 0 -22.666 0.666992 -33.999 2s-21.333 3.33301 -30 6c-4.66699 -4 -8.33398 -8.5 -11.001 -13.5
s-4 -9.83301 -4 -14.5c0 -22 17.167 -37 51.5 -45s72.166 -17.333 113.499 -28s79.166 -26.834 113.499 -48.501s51.5 -56.834 51.5 -105.501c0 -50.667 -23.5 -91 -70.5 -121s-103.5 -45 -169.5 -45c-75.333 0 -131.5 16.167 -168.5 48.5s-55.5 70.166 -55.5 113.499
c0 32.667 10.333 61.834 31 87.501s50.334 45.5 89.001 59.5zM174 21.0049c-24.667 -12.667 -43.668 -28.832 -57.001 -48.499s-20 -43.834 -20 -72.501c0 -52 15.833 -90.5 47.5 -115.5s69.834 -37.5 114.501 -37.5c50 0 92 11.833 126 35.5s51 55.5 51 95.5
c0 30.667 -9.5 53.5 -28.5 68.5s-42.167 26.5 -69.5 34.5s-56 14.333 -86 19s-56 11.667 -78 21z" />
    <glyph glyph-name="Gbreve" unicode="&#x11e;" horiz-adv-x="694" 
d="M372 752c22.667 0 44.833 5.00098 66.5 15.001s39.167 25 52.5 45l20 -9c-13.333 -36 -32 -62.667 -56 -80s-51.667 -26 -83 -26s-59 8.66699 -83 26s-42.667 44 -56 80l20 9c14.667 -20.667 32.5 -35.834 53.5 -45.501s42.833 -14.5 65.5 -14.5zM49.999 313.001
c0 97.333 31.0039 176.667 93.0039 238s143.333 92 244 92c40 0 82 -4.83301 126 -14.5s83.333 -25.5 118 -47.5c-8 -11.333 -14.667 -22.333 -20 -33s-10 -21.334 -14 -32.001c-23.333 27.333 -53.5 51 -90.5 71s-76.833 30 -119.5 30c-44 0 -82.5 -8.5 -115.5 -25.5
s-60.5 -39.5 -82.5 -67.5s-38.5 -60.333 -49.5 -97s-16.5 -74.667 -16.5 -114c0 -40.667 5.66699 -79.167 17 -115.5s28 -68 50 -95s49.667 -48.5 83 -64.5s71.666 -24 114.999 -24c34 0 68.333 5.16699 103 15.5s63.334 29.5 86.001 57.5
c-0.666992 45.333 -1.83398 84 -3.50098 116s-4.83398 58 -9.50098 78h80c-4.66699 -18 -8 -39.667 -10 -65s-3 -56 -3 -92v-74c-38.667 -22 -79.334 -38.667 -122.001 -50s-86.334 -17 -131.001 -17c-98 0 -177.167 29.333 -237.5 88s-90.5 139.334 -90.5 242.001z" />
    <glyph glyph-name="gbreve" unicode="&#x11f;" horiz-adv-x="526" 
d="M247 606c22.667 0 44.833 5.00098 66.5 15.001s39.167 25 52.5 45l20 -9c-13.333 -36 -32 -62.667 -56 -80s-51.667 -26 -83 -26s-59 8.66699 -83 26s-42.667 44 -56 80l20 9c14.667 -20.667 32.5 -35.834 53.5 -45.501s42.833 -14.5 65.5 -14.5zM108.999 310.001
c0 -40 12.167 -75.167 36.5 -105.5s58.5 -45.833 102.5 -46.5c48 0 83.333 14.167 106 42.5s34 62.5 34 102.5s-12.333 75.333 -37 106s-59 46 -103 46c-48 0 -83.167 -14.167 -105.5 -42.5s-33.5 -62.5 -33.5 -102.5zM154.999 32.001
c-9.33301 6.66699 -16.666 14.5049 -21.999 23.5049s-8 19.833 -8 32.5c0 13.333 3.5 25.666 10.5 36.999s16.833 19.333 29.5 24c-39.333 12.667 -70.333 33.667 -93 63s-34 62.666 -34 99.999c0 26.667 5.83301 50.167 17.5 70.5s27.334 37.5 47.001 51.5
s42.167 24.667 67.5 32s51.333 11 78 11c15.333 0 35 0.5 59 1.5s47.167 4.16699 69.5 9.5s41.833 13.833 58.5 25.5s25.334 28.167 26.001 49.5l7 6c10 -6.66699 17.667 -14.667 23 -24s8 -19 8 -29c0 -23.333 -9.83301 -38.833 -29.5 -46.5s-40.834 -11.5 -63.501 -11.5
c-14.667 0 -28.834 1 -42.501 3s-24.167 3.66699 -31.5 5v-2c38.667 -13.333 69.334 -34.833 92.001 -64.5s34 -62.834 34 -99.501c0 -26.667 -5.83301 -50.167 -17.5 -70.5s-27.334 -37.333 -47.001 -51s-42.167 -24.167 -67.5 -31.5s-51.333 -11 -78 -11
c-11.333 0 -22.666 0.666992 -33.999 2s-21.333 3.33301 -30 6c-4.66699 -4 -8.33398 -8.5 -11.001 -13.5s-4 -9.83301 -4 -14.5c0 -22 17.167 -37 51.5 -45s72.166 -17.333 113.499 -28s79.166 -26.834 113.499 -48.501s51.5 -56.834 51.5 -105.501
c0 -50.667 -23.5 -91 -70.5 -121s-103.5 -45 -169.5 -45c-75.333 0 -131.5 16.167 -168.5 48.5s-55.5 70.166 -55.5 113.499c0 32.667 10.333 61.834 31 87.501s50.334 45.5 89.001 59.5zM173.999 21.0059c-24.667 -12.667 -43.668 -28.832 -57.001 -48.499
s-20 -43.834 -20 -72.501c0 -52 15.833 -90.5 47.5 -115.5s69.834 -37.5 114.501 -37.5c50 0 92 11.833 126 35.5s51 55.5 51 95.5c0 30.667 -9.5 53.5 -28.5 68.5s-42.167 26.5 -69.5 34.5s-56 14.333 -86 19s-56 11.667 -78 21z" />
    <glyph glyph-name="Gdotaccent" unicode="&#x120;" horiz-adv-x="694" 
d="M383 704c-12.667 0 -23.334 4.16699 -32.001 12.5s-13 18.833 -13 31.5c0 13.333 4.83301 25 14.5 35s19.834 19.333 30.501 28c10.667 -8.66699 20.834 -18 30.501 -28s14.5 -21.667 14.5 -35c0 -12.667 -4.33301 -23.167 -13 -31.5s-19.334 -12.5 -32.001 -12.5z
M50 313c0 97.333 31.0039 176.667 93.0039 238s143.333 92 244 92c40 0 82 -4.83301 126 -14.5s83.333 -25.5 118 -47.5c-8 -11.333 -14.667 -22.333 -20 -33s-10 -21.334 -14 -32.001c-23.333 27.333 -53.5 51 -90.5 71s-76.833 30 -119.5 30
c-44 0 -82.5 -8.5 -115.5 -25.5s-60.5 -39.5 -82.5 -67.5s-38.5 -60.333 -49.5 -97s-16.5 -74.667 -16.5 -114c0 -40.667 5.66699 -79.167 17 -115.5s28 -68 50 -95s49.667 -48.5 83 -64.5s71.666 -24 114.999 -24c34 0 68.333 5.16699 103 15.5s63.334 29.5 86.001 57.5
c-0.666992 45.333 -1.83398 84 -3.50098 116s-4.83398 58 -9.50098 78h80c-4.66699 -18 -8 -39.667 -10 -65s-3 -56 -3 -92v-74c-38.667 -22 -79.334 -38.667 -122.001 -50s-86.334 -17 -131.001 -17c-98 0 -177.167 29.333 -237.5 88s-90.5 139.334 -90.5 242.001z" />
    <glyph glyph-name="gdotaccent" unicode="&#x121;" horiz-adv-x="526" 
d="M248 547c-12.667 0 -23.334 4.16699 -32.001 12.5s-13 18.833 -13 31.5c0 13.333 4.83301 25 14.5 35s19.834 19.333 30.501 28c10.667 -8.66699 20.834 -18 30.501 -28s14.5 -21.667 14.5 -35c0 -12.667 -4.33301 -23.167 -13 -31.5s-19.334 -12.5 -32.001 -12.5z
M109 310c0 -40 12.167 -75.167 36.5 -105.5s58.5 -45.833 102.5 -46.5c48 0 83.333 14.167 106 42.5s34 62.5 34 102.5s-12.333 75.333 -37 106s-59 46 -103 46c-48 0 -83.167 -14.167 -105.5 -42.5s-33.5 -62.5 -33.5 -102.5zM155 32
c-9.33301 6.66699 -16.666 14.5049 -21.999 23.5049s-8 19.833 -8 32.5c0 13.333 3.5 25.666 10.5 36.999s16.833 19.333 29.5 24c-39.333 12.667 -70.333 33.667 -93 63s-34 62.666 -34 99.999c0 26.667 5.83301 50.167 17.5 70.5s27.334 37.5 47.001 51.5
s42.167 24.667 67.5 32s51.333 11 78 11c15.333 0 35 0.5 59 1.5s47.167 4.16699 69.5 9.5s41.833 13.833 58.5 25.5s25.334 28.167 26.001 49.5l7 6c10 -6.66699 17.667 -14.667 23 -24s8 -19 8 -29c0 -23.333 -9.83301 -38.833 -29.5 -46.5s-40.834 -11.5 -63.501 -11.5
c-14.667 0 -28.834 1 -42.501 3s-24.167 3.66699 -31.5 5v-2c38.667 -13.333 69.334 -34.833 92.001 -64.5s34 -62.834 34 -99.501c0 -26.667 -5.83301 -50.167 -17.5 -70.5s-27.334 -37.333 -47.001 -51s-42.167 -24.167 -67.5 -31.5s-51.333 -11 -78 -11
c-11.333 0 -22.666 0.666992 -33.999 2s-21.333 3.33301 -30 6c-4.66699 -4 -8.33398 -8.5 -11.001 -13.5s-4 -9.83301 -4 -14.5c0 -22 17.167 -37 51.5 -45s72.166 -17.333 113.499 -28s79.166 -26.834 113.499 -48.501s51.5 -56.834 51.5 -105.501
c0 -50.667 -23.5 -91 -70.5 -121s-103.5 -45 -169.5 -45c-75.333 0 -131.5 16.167 -168.5 48.5s-55.5 70.166 -55.5 113.499c0 32.667 10.333 61.834 31 87.501s50.334 45.5 89.001 59.5zM174 21.0049c-24.667 -12.667 -43.668 -28.832 -57.001 -48.499
s-20 -43.834 -20 -72.501c0 -52 15.833 -90.5 47.5 -115.5s69.834 -37.5 114.501 -37.5c50 0 92 11.833 126 35.5s51 55.5 51 95.5c0 30.667 -9.5 53.5 -28.5 68.5s-42.167 26.5 -69.5 34.5s-56 14.333 -86 19s-56 11.667 -78 21z" />
    <glyph glyph-name="uni0122" unicode="&#x122;" horiz-adv-x="694" 
d="M50 313c0 97.333 31.0039 176.667 93.0039 238s143.333 92 244 92c40 0 82 -4.83301 126 -14.5s83.333 -25.5 118 -47.5c-8 -11.333 -14.667 -22.333 -20 -33s-10 -21.334 -14 -32.001c-23.333 27.333 -53.5 51 -90.5 71s-76.833 30 -119.5 30
c-44 0 -82.5 -8.5 -115.5 -25.5s-60.5 -39.5 -82.5 -67.5s-38.5 -60.333 -49.5 -97s-16.5 -74.667 -16.5 -114c0 -40.667 5.66699 -79.167 17 -115.5s28 -68 50 -95s49.667 -48.5 83 -64.5s71.666 -24 114.999 -24c34 0 68.333 5.16699 103 15.5s63.334 29.5 86.001 57.5
c-0.666992 45.333 -1.83398 84 -3.50098 116s-4.83398 58 -9.50098 78h80c-4.66699 -18 -8 -39.667 -10 -65s-3 -56 -3 -92v-74c-38.667 -22 -79.334 -38.667 -122.001 -50s-86.334 -17 -131.001 -17c-98 0 -177.167 29.333 -237.5 88s-90.5 139.334 -90.5 242.001z
M332.004 -113.999c10 8 19.332 17.166 27.999 27.499s16.334 22.5 23.001 36.5c12.667 -8.66699 22 -20.167 28 -34.5s9 -29.166 9 -44.499c0 -28.667 -9 -57.334 -27 -86.001s-39 -50.667 -63 -66l-7 11c14.667 12.667 25.667 26.334 33 41.001s11 29.667 11 45
c0 13.333 -3.16699 26.333 -9.5 39s-14.833 23 -25.5 31z" />
    <glyph glyph-name="uni0123" unicode="&#x123;" horiz-adv-x="617" 
d="M343 605c-10 -8 -19.332 -17.166 -27.999 -27.499s-16.334 -22.5 -23.001 -36.5c-12.667 8.66699 -22 20.167 -28 34.5s-9 29.166 -9 44.499c0 28.667 9 57.334 27 86.001s39 50.667 63 66l7 -11c-14.667 -12.667 -25.667 -26.334 -33 -41.001s-11 -29.667 -11 -45
c0 -13.333 3.16699 -26.333 9.5 -39s14.833 -23 25.5 -31zM147.001 310.001c0 -40 12.167 -75.167 36.5 -105.5s58.5 -45.833 102.5 -46.5c48 0 83.333 14.167 106 42.5s34 62.5 34 102.5s-12.333 75.333 -37 106s-59 46 -103 46c-48 0 -83.167 -14.167 -105.5 -42.5
s-33.5 -62.5 -33.5 -102.5zM193.001 32.001c-9.33301 6.66699 -16.666 14.5049 -21.999 23.5049s-8 19.833 -8 32.5c0 13.333 3.5 25.666 10.5 36.999s16.833 19.333 29.5 24c-39.333 12.667 -70.333 33.667 -93 63s-34 62.666 -34 99.999
c0 26.667 5.83301 50.167 17.5 70.5s27.334 37.5 47.001 51.5s42.167 24.667 67.5 32s51.333 11 78 11c15.333 0 35 0.5 59 1.5s47.167 4.16699 69.5 9.5s41.833 13.833 58.5 25.5s25.334 28.167 26.001 49.5l7 6c10 -6.66699 17.667 -14.667 23 -24s8 -19 8 -29
c0 -23.333 -9.83301 -38.833 -29.5 -46.5s-40.834 -11.5 -63.501 -11.5c-14.667 0 -28.834 1 -42.501 3s-24.167 3.66699 -31.5 5v-2c38.667 -13.333 69.334 -34.833 92.001 -64.5s34 -62.834 34 -99.501c0 -26.667 -5.83301 -50.167 -17.5 -70.5
s-27.334 -37.333 -47.001 -51s-42.167 -24.167 -67.5 -31.5s-51.333 -11 -78 -11c-11.333 0 -22.666 0.666992 -33.999 2s-21.333 3.33301 -30 6c-4.66699 -4 -8.33398 -8.5 -11.001 -13.5s-4 -9.83301 -4 -14.5c0 -22 17.167 -37 51.5 -45s72.166 -17.333 113.499 -28
s79.166 -26.834 113.499 -48.501s51.5 -56.834 51.5 -105.501c0 -50.667 -23.5 -91 -70.5 -121s-103.5 -45 -169.5 -45c-75.333 0 -131.5 16.167 -168.5 48.5s-55.5 70.166 -55.5 113.499c0 32.667 10.333 61.834 31 87.501s50.334 45.5 89.001 59.5zM212.001 21.0059
c-24.667 -12.667 -43.668 -28.832 -57.001 -48.499s-20 -43.834 -20 -72.501c0 -52 15.833 -90.5 47.5 -115.5s69.834 -37.5 114.501 -37.5c50 0 92 11.833 126 35.5s51 55.5 51 95.5c0 30.667 -9.5 53.5 -28.5 68.5s-42.167 26.5 -69.5 34.5s-56 14.333 -86 19
s-56 11.667 -78 21z" />
    <glyph glyph-name="Hcircumflex" unicode="&#x124;" horiz-adv-x="752" 
d="M525 704c-26 10.667 -51.167 21.834 -75.5 33.501s-47.833 24.834 -70.5 39.501c-22.667 -14.667 -46.167 -27.834 -70.5 -39.501s-49.5 -22.834 -75.5 -33.501l-10 12l136 121h40l136 -121zM552 308h-352c-6.66699 0 -11.167 -0.833008 -13.5 -2.5
s-3.5 -5.83398 -3.5 -12.501v-55c0 -55.333 0.666992 -103.166 2 -143.499s5 -71.833 11 -94.5h-86c6 22.667 9.66699 54.834 11 96.501s2 91.167 2 148.5v144c0 57.333 -0.666992 106.833 -2 148.5s-5 73.834 -11 96.501h86c-6 -22.667 -9.66699 -54.834 -11 -96.501
s-2 -91.167 -2 -148.5v-32c0 -6.66699 1.16699 -10.834 3.5 -12.501s6.83301 -2.5 13.5 -2.5h352c6.66699 0 11.167 0.833008 13.5 2.5s3.5 5.83398 3.5 12.501v32c0 57.333 -0.666992 106.833 -2 148.5s-5 73.834 -11 96.501h86c-6 -22.667 -9.66699 -54.834 -11 -96.501
s-2 -91.167 -2 -148.5v-144c0 -57.333 0.666992 -106.833 2 -148.5s5 -73.834 11 -96.501h-86c6 22.667 9.66699 54.167 11 94.5s2 88.166 2 143.499v55c0 6.66699 -1.16699 10.834 -3.5 12.501s-6.83301 2.5 -13.5 2.5z" />
    <glyph glyph-name="hcircumflex" unicode="&#x125;" horiz-adv-x="577" 
d="M265 727c-26 10.667 -51.167 21.834 -75.5 33.501s-47.833 24.834 -70.5 39.501c-22.667 -14.667 -46.167 -27.834 -70.5 -39.501s-49.5 -22.834 -75.5 -33.501l-10 12l136 121h40l136 -121zM76 0c3.33301 5.33301 5.83398 15.498 7.50098 30.498s2.66699 32.333 3 52
s0.5 40.834 0.5 63.501v64v391c0 20.667 -1.16699 40 -3.5 58s-6.83301 32.333 -13.5 43c14.667 2.66699 27.834 6.5 39.501 11.5s23.834 11.167 36.501 18.5c1.33301 -21.333 2.16602 -42.166 2.49902 -62.499s0.5 -40.5 0.5 -60.5v-252
c22.667 38.667 49.667 67.834 81 87.501s67.666 29.5 108.999 29.5c36.667 0 70 -11.167 100 -33.5s45 -66.5 45 -132.5v-198c0 -24 2.66699 -44.5 8 -61.5s18.666 -29.5 39.999 -37.5v-19c-42.667 0 -72.167 9.5 -88.5 28.5s-24.5 50.167 -24.5 93.5v168
c-1.33301 58 -11 97.667 -29 119s-42.667 32 -74 32c-46 0 -85 -16.167 -117 -48.5s-48.667 -69.5 -50 -111.5v-63v-64c0 -22.667 0.166992 -43.834 0.5 -63.501s1.33301 -37 3 -52s4.16699 -25.167 7.5 -30.5h-84z" />
    <glyph glyph-name="Hbar" unicode="&#x126;" horiz-adv-x="752" 
d="M552 342c6.66699 0 11.168 0.833008 13.501 2.5s3.5 5.83398 3.5 12.501v111h-386c-0.666992 -12.667 -0.833984 -25.5 -0.500977 -38.5s0.5 -26.5 0.5 -40.5v-32c0 -6.66699 1.16699 -10.834 3.5 -12.501s6.83301 -2.5 13.5 -2.5h352zM196.001 0h-85.9971
c6 22.667 9.66699 54.834 11 96.501s2 91.167 2 148.5v223h-47v34h46c-0.666992 28.667 -2 54.167 -4 76.5s-4.66699 40.833 -8 55.5h86c-4 -14.667 -6.83301 -33.167 -8.5 -55.5s-2.83398 -47.833 -3.50098 -76.5h384c-0.666992 28.667 -2 54.167 -4 76.5
s-4.66699 40.833 -8 55.5h86c-4 -14.667 -6.83301 -33.167 -8.5 -55.5s-2.83398 -47.833 -3.50098 -76.5h46v-34h-47c-0.666992 -12.667 -0.833984 -25.5 -0.500977 -38.5s0.5 -26.5 0.5 -40.5v-144c0 -57.333 0.666992 -106.833 2 -148.5s5 -73.834 11 -96.501h-86
c6 22.667 9.66699 54.167 11 94.5s2 88.166 2 143.499v55c0 6.66699 -1.16699 10.834 -3.5 12.501s-6.83301 2.5 -13.5 2.5h-352c-6.66699 0 -11.167 -0.833008 -13.5 -2.5s-3.5 -5.83398 -3.5 -12.501v-55c0 -55.333 0.666992 -103.166 2 -143.499s5 -71.833 11 -94.5z" />
    <glyph glyph-name="hbar" unicode="&#x127;" horiz-adv-x="577" 
d="M149 604l250.001 -0.00195312v-34h-250v-213c22.667 38.667 49.667 67.834 81 87.501s67.666 29.5 108.999 29.5c36.667 0 70 -11.167 100 -33.5s45 -66.5 45 -132.5v-198c0 -24 2.66699 -44.5 8 -61.5s18.666 -29.5 39.999 -37.5v-19c-42.667 0 -72.167 9.5 -88.5 28.5
s-24.5 50.167 -24.5 93.5v168c-1.33301 58 -11 97.667 -29 119s-42.667 32 -74 32c-46 0 -85 -16.167 -117 -48.5s-48.667 -69.5 -50 -111.5v-63v-64c0 -22.667 0.166992 -43.834 0.5 -63.501s1.33301 -37 3 -52s4.16699 -25.167 7.5 -30.5h-84
c3.33301 5.33301 5.83301 15.5 7.5 30.5s2.66699 32.333 3 52s0.5 40.834 0.5 63.501v64v360h-58v34h58c0 20 -1.33301 38.667 -4 56s-7 31.333 -13 42c14.667 2.66699 27.834 6.5 39.501 11.5s23.834 11.167 36.501 18.5c1.33301 -21.333 2.16602 -42.166 2.49902 -62.499
s0.5 -40.5 0.5 -60.5v-5z" />
    <glyph glyph-name="Itilde" unicode="&#x128;" horiz-adv-x="316" 
d="M222 702c-13.333 0 -27 2.99902 -41 8.99902s-27.333 12.333 -40 19l-37 19c-12 6 -22.667 9 -32 9c-10.667 0 -21.5 -2.66699 -32.5 -8s-21.833 -14.333 -32.5 -27l-15 9c13.333 22 28.666 40.5 45.999 55.5s35.333 22.5 54 22.5c13.333 0 26.833 -2.83301 40.5 -8.5
s27 -12 40 -19s25.333 -13.333 37 -19s22.5 -8.5 32.5 -8.5c10.667 0 21.5 2.5 32.5 7.5s21.833 13.833 32.5 26.5l15 -9c-13.333 -21.333 -28.666 -39.666 -45.999 -54.999s-35.333 -23 -54 -23zM188 388.999v-151.002c0 -55.333 0.666992 -103.166 2 -143.499
s5 -71.833 11 -94.5h-86c6 22.667 9.66699 54.834 11 96.501s2 91.167 2 148.5v144c0 57.333 -0.666992 106.833 -2 148.5s-5 73.834 -11 96.501h86c-6 -22.667 -9.66699 -54.834 -11 -96.501s-2 -91.167 -2 -148.5z" />
    <glyph glyph-name="itilde" unicode="&#x129;" horiz-adv-x="230" 
d="M180 551c-13.333 0 -27 2.99902 -41 8.99902s-27.333 12.333 -40 19l-37 19c-12 6 -22.667 9 -32 9c-10.667 0 -21.5 -2.66699 -32.5 -8s-21.833 -14.333 -32.5 -27l-15 9c13.333 22 28.666 40.5 45.999 55.5s35.333 22.5 54 22.5c13.333 0 26.833 -2.83301 40.5 -8.5
s27 -12 40 -19s25.333 -13.333 37 -19s22.5 -8.5 32.5 -8.5c10.667 0 21.5 2.5 32.5 7.5s21.833 13.833 32.5 26.5l15 -9c-13.333 -21.333 -28.666 -39.666 -45.999 -54.999s-35.333 -23 -54 -23zM158 465.999c-3.33301 -5.33301 -5.83301 -15.5 -7.5 -30.5
s-2.66699 -32.333 -3 -52s-0.5 -40.834 -0.5 -63.501v-64v-46v-64c0 -22.667 0.166992 -43.834 0.5 -63.501s1.33301 -37 3 -52s4.16699 -25.167 7.5 -30.5h-86c3.33301 5.33301 5.83301 15.5 7.5 30.5s2.66699 32.333 3 52s0.5 40.834 0.5 63.501v64v46v64
c0 22.667 -0.166992 43.834 -0.5 63.501s-1.33301 37 -3 52s-4.16699 25.167 -7.5 30.5h86z" />
    <glyph glyph-name="Imacron" unicode="&#x12a;" horiz-adv-x="316" 
d="M26 765h265v-42h-265v42zM188 389v-151.002c0 -55.333 0.666992 -103.166 2 -143.499s5 -71.833 11 -94.5h-86c6 22.667 9.66699 54.834 11 96.501s2 91.167 2 148.5v144c0 57.333 -0.666992 106.833 -2 148.5s-5 73.834 -11 96.501h86
c-6 -22.667 -9.66699 -54.834 -11 -96.501s-2 -91.167 -2 -148.5z" />
    <glyph glyph-name="imacron" unicode="&#x12b;" horiz-adv-x="230" 
d="M-17 610h265v-42h-265v42zM158 466c-3.33301 -5.33301 -5.83301 -15.5 -7.5 -30.5s-2.66699 -32.333 -3 -52s-0.5 -40.834 -0.5 -63.501v-64v-46v-64c0 -22.667 0.166992 -43.834 0.5 -63.501s1.33301 -37 3 -52s4.16699 -25.167 7.5 -30.5h-86
c3.33301 5.33301 5.83301 15.5 7.5 30.5s2.66699 32.333 3 52s0.5 40.834 0.5 63.501v64v46v64c0 22.667 -0.166992 43.834 -0.5 63.501s-1.33301 37 -3 52s-4.16699 25.167 -7.5 30.5h86z" />
    <glyph glyph-name="Iogonek" unicode="&#x12e;" horiz-adv-x="316" 
d="M188 389l-0.000976562 -151c0 -55.333 0.666992 -103.166 2 -143.499s5 -71.833 11 -94.5l-7 -1c-30.667 -5.33301 -54.167 -19.5 -70.5 -42.5s-24.5 -46.833 -24.5 -71.5c0 -22 5.5 -38 16.5 -48s23.833 -15 38.5 -15c10.667 0 21.834 2.5 33.501 7.5
s22.5 11.833 32.5 20.5l12 -12c-13.333 -15.333 -29.833 -27.833 -49.5 -37.5s-39.167 -14.5 -58.5 -14.5c-28 0 -48.5 8.16699 -61.5 24.5s-19.5 35.5 -19.5 57.5c0 26 7.5 49.667 22.5 71s35.833 38.666 62.5 51.999v398c0 57.333 -0.666992 106.833 -2 148.5
s-5 73.834 -11 96.501h86c-6 -22.667 -9.66699 -54.834 -11 -96.501s-2 -91.167 -2 -148.5z" />
    <glyph glyph-name="iogonek" unicode="&#x12f;" horiz-adv-x="230" 
d="M115 554c-12.667 0 -23.334 4.16699 -32.001 12.5s-13 18.833 -13 31.5c0 13.333 4.83301 25 14.5 35s19.834 19.333 30.501 28c10.667 -8.66699 20.834 -18 30.501 -28s14.5 -21.667 14.5 -35c0 -12.667 -4.33301 -23.167 -13 -31.5s-19.334 -12.5 -32.001 -12.5z
M158 466c-3.33301 -5.33301 -5.83301 -15.6621 -7.5 -30.9951s-2.66699 -33 -3 -53s-0.5 -41.167 -0.5 -63.5v-62.5v-120c0 -28.667 0.666992 -55.834 2 -81.501s4.33301 -43.834 9 -54.501c-32.667 -4 -57.834 -18 -75.501 -42s-26.5 -48.333 -26.5 -73
c0 -22 5.5 -38 16.5 -48s23.833 -15 38.5 -15c10.667 0 21.834 2.5 33.501 7.5s22.5 11.833 32.5 20.5l12 -12c-13.333 -15.333 -29.833 -27.833 -49.5 -37.5s-39.167 -14.5 -58.5 -14.5c-28 0 -48.5 8.16699 -61.5 24.5s-19.5 35.5 -19.5 57.5
c-0 25.333 7.33301 48.666 22 69.999s35 38.666 61 51.999v266v62.5c0 22.333 -0.166992 43.5 -0.5 63.5s-1.33301 37.667 -3 53s-4.16699 25.666 -7.5 30.999h86z" />
    <glyph glyph-name="Idotaccent" unicode="&#x130;" horiz-adv-x="316" 
d="M158 704c-12.667 0 -23.334 4.16699 -32.001 12.5s-13 18.833 -13 31.5c0 13.333 4.83301 25 14.5 35s19.834 19.333 30.501 28c10.667 -8.66699 20.834 -18 30.501 -28s14.5 -21.667 14.5 -35c0 -12.667 -4.33301 -23.167 -13 -31.5s-19.334 -12.5 -32.001 -12.5z
M188 389v-151.002c0 -55.333 0.666992 -103.166 2 -143.499s5 -71.833 11 -94.5h-86c6 22.667 9.66699 54.834 11 96.501s2 91.167 2 148.5v144c0 57.333 -0.666992 106.833 -2 148.5s-5 73.834 -11 96.501h86c-6 -22.667 -9.66699 -54.834 -11 -96.501
s-2 -91.167 -2 -148.5z" />
    <glyph glyph-name="dotlessi" unicode="&#x131;" horiz-adv-x="230" 
d="M158 466c-3.33301 -5.33301 -5.83301 -15.5 -7.5 -30.5s-2.66699 -32.333 -3 -52s-0.5 -40.834 -0.5 -63.501v-64v-46v-64c0 -22.667 0.166992 -43.834 0.5 -63.501s1.33301 -37 3 -52s4.16699 -25.167 7.5 -30.5h-86c3.33301 5.33301 5.83301 15.5 7.5 30.5
s2.66699 32.333 3 52s0.5 40.834 0.5 63.501v64v46v64c0 22.667 -0.166992 43.834 -0.5 63.501s-1.33301 37 -3 52s-4.16699 25.167 -7.5 30.5h86z" />
    <glyph glyph-name="Jcircumflex" unicode="&#x134;" horiz-adv-x="274" 
d="M286 704c-26 10.667 -51.167 21.834 -75.5 33.501s-47.833 24.834 -70.5 39.501c-22.667 -14.667 -46.167 -27.834 -70.5 -39.501s-49.5 -22.834 -75.5 -33.501l-10 12l136 121h40l136 -121zM184 634c-6 -22.667 -9.66699 -54.832 -11 -96.499s-2 -91.167 -2 -148.5v-297
c0 -25.333 -1.5 -52 -4.5 -80s-10 -53.5 -21 -76.5s-27.667 -42.167 -50 -57.5s-52.833 -23 -91.5 -23l-2 25c44 5.33301 72.833 26.166 86.5 62.499s21.167 101.166 22.5 194.499v252c0 57.333 -0.666992 106.833 -2 148.5s-5 73.834 -11 96.501h86z" />
    <glyph glyph-name="jcircumflex" unicode="&#x135;" horiz-adv-x="227" 
d="M260 549c-26 10.667 -51.167 21.834 -75.5 33.501s-47.833 24.834 -70.5 39.501c-22.667 -14.667 -46.167 -27.834 -70.5 -39.501s-49.5 -22.834 -75.5 -33.501l-10 12l136 121h40l136 -121zM156 466c-3.33301 -5.33301 -5.83301 -15.498 -7.5 -30.498
s-2.66699 -32.167 -3 -51.5s-0.5 -40.333 -0.5 -63v-64v-295c0 -28.667 -1.5 -57.334 -4.5 -86.001s-9.5 -54.334 -19.5 -77.001s-25 -41 -45 -55s-47 -21 -81 -21v24c32 2 54.333 16.667 67 44s19 82 19 164v305v63c0 22 -0.166992 42.667 -0.5 62s-1.33301 36.333 -3 51
s-4.16699 24.667 -7.5 30h86z" />
    <glyph glyph-name="uni0136" unicode="&#x136;" horiz-adv-x="601" 
d="M183 314v-76.001c0 -55.333 0.666992 -103.166 2 -143.499s5 -71.833 11 -94.5h-86c6 22.667 9.66699 54.834 11 96.501s2 91.167 2 148.5v144c0 57.333 -0.666992 106.833 -2 148.5s-5 73.834 -11 96.501h86c-6 -22.667 -9.66699 -54.834 -11 -96.501
s-2 -91.167 -2 -148.5v-37c0 -6 1.5 -9.83301 4.5 -11.5s6.83301 -2.5 11.5 -2.5c13.333 0 24.5 2.33301 33.5 7s21.833 16 38.5 34l65 77l72.5 85c27.667 32 47.834 63 60.501 93h106c-32 -22.667 -64.333 -49.834 -97 -81.501s-65.334 -65.5 -98.001 -101.5l-98 -108
l213 -231l62.5 -66.5l43.5 -45.5h-97c-7.33301 13.333 -17.166 27.833 -29.499 43.5l-37.5 45.5l-170 188c-14.667 16 -27.334 26.167 -38.001 30.5s-26 6.5 -46 6.5zM280 -70.001c10 8 19.332 17.166 27.999 27.499s16.334 22.5 23.001 36.5
c12.667 -8.66699 22 -20.167 28 -34.5s9 -29.166 9 -44.499c0 -28.667 -9 -57.334 -27 -86.001s-39 -50.667 -63 -66l-7 11c14.667 12.667 25.667 26.334 33 41.001s11 29.667 11 45c0 13.333 -3.16699 26.333 -9.5 39s-14.833 23 -25.5 31z" />
    <glyph glyph-name="uni0137" unicode="&#x137;" horiz-adv-x="511" 
d="M76 0c3.33301 5.33301 5.83594 15.834 7.50293 31.501s2.66699 33.5 3 53.5s0.5 41.167 0.5 63.5v61.5v391c0 20.667 -1.16699 40 -3.5 58s-6.83301 32.333 -13.5 43c14.667 2.66699 27.667 6.5 39 11.5s23.333 11.167 36 18.5
c1.33301 -21.333 2.16602 -42.166 2.49902 -62.499s0.5 -40.5 0.5 -60.5v-343c16.667 57.333 41.834 106.166 75.501 146.499s78.167 60.5 133.5 60.5c31.333 0 57 -9.16699 77 -27.5s30 -43.5 30 -75.5c0 -38 -15 -70 -45 -96s-76.333 -45.333 -139 -58l42 -60
c15.333 -22.667 32.166 -44.167 50.499 -64.5s38.833 -37.833 61.5 -52.5s47.334 -23 74.001 -25v-17c-5.33301 -2.66699 -11.333 -4.5 -18 -5.5s-13.334 -1.5 -20.001 -1.5c-37.333 0 -69.5 8.33301 -96.5 25s-50.5 37.167 -70.5 61.5s-37.833 50.166 -53.5 77.499
s-30.834 51.666 -45.501 72.999c20.667 1.33301 42.667 4.33301 66 9s45 11.834 65 21.501s36.667 22.667 50 39s20 36.5 20 60.5c0 22.667 -5.16699 41.5 -15.5 56.5s-28.833 22.5 -55.5 22.5c-25.333 -0.666992 -49.5 -10.667 -72.5 -30s-42.833 -44 -59.5 -74
s-29.834 -63.667 -39.501 -101s-14.5 -74 -14.5 -110c0 -28 0.666992 -53.5 2 -76.5s4.33301 -37.833 9 -44.5h-83zM220.003 -113.999c10 8 19.332 17.166 27.999 27.499s16.334 22.5 23.001 36.5c12.667 -8.66699 22 -20.167 28 -34.5s9 -29.166 9 -44.499
c0 -28.667 -9 -57.334 -27 -86.001s-39 -50.667 -63 -66l-7 11c14.667 12.667 25.667 26.334 33 41.001s11 29.667 11 45c0 13.333 -3.16699 26.333 -9.5 39s-14.833 23 -25.5 31z" />
    <glyph glyph-name="kgreenlandic" unicode="&#x138;" horiz-adv-x="509" 
d="M155 251l5.99902 0.000976562c10.667 0 20.834 1.66699 30.501 5s22.834 12.666 39.501 27.999l58 57c20.667 20.667 39.667 42 57 64s29.333 42.333 36 61h93c-18.667 -14.667 -39.834 -32.834 -63.501 -54.501l-77.5 -72.5l-87 -79l157 -173
c19.333 -21.333 35.5 -38.5 48.5 -51.5s24.167 -24.833 33.5 -35.5h-95c-6 10.667 -13.833 22 -23.5 34l-28.5 35l-117 132c-7.33301 8.66699 -15 15.5 -23 20.5s-19 7.5 -33 7.5h-22v-19v-64c0 -22.667 0.166992 -43.834 0.5 -63.501s1.33301 -37 3 -52
s4.16699 -25.167 7.5 -30.5h-85c3.33301 5.33301 5.83301 15.5 7.5 30.5s2.66699 32.333 3 52s0.5 40.834 0.5 63.501v64v46v64c0 22.667 -0.166992 43.834 -0.5 63.501s-1.33301 37 -3 52s-4.16699 25.167 -7.5 30.5h85c-6.66699 -10.667 -10.167 -36.167 -10.5 -76.5
s-0.5 -80.166 -0.5 -119.499v-7c0 -2.66699 0.5 -5.33398 1.5 -8.00098s4.16699 -4 9.5 -4z" />
    <glyph glyph-name="Lacute" unicode="&#x139;" 
d="M170 702l-12.001 12l148 179c8 -13.333 16.333 -25.5 25 -36.5s18.334 -20.833 29.001 -29.5c-35.333 -16 -68.5 -34.5 -99.5 -55.5s-61.167 -44.167 -90.5 -69.5zM433.999 0l-323.999 -0.00292969c6 22.667 9.66699 54.834 11 96.501s2 91.167 2 148.5v144
c0 57.333 -0.666992 106.833 -2 148.5s-5 73.834 -11 96.501h86c-6 -22.667 -9.66699 -54.834 -11 -96.501s-2 -91.167 -2 -148.5v-290c0.666992 -31.333 7.5 -50.166 20.5 -56.499s34.833 -9.5 65.5 -9.5h52c40 1.33301 79.833 6.33301 119.5 15s74.5 23.334 104.5 44.001
l-22 -96c-12.667 2 -26.834 3.16699 -42.501 3.5s-31.167 0.5 -46.5 0.5z" />
    <glyph glyph-name="lacute" unicode="&#x13a;" horiz-adv-x="283" 
d="M99 773l-12.001 12l148 179c8 -13.333 16.333 -25.5 25 -36.5s18.334 -20.833 29.001 -29.5c-35.333 -16 -68.5 -34.5 -99.5 -55.5s-61.167 -44.167 -90.5 -69.5zM148.999 609l-0.00195312 -445.001c0 -33.333 4.66699 -65.5 14 -96.5s29 -46.5 59 -46.5
c3.33301 0 7.33301 0.166992 12 0.5s9.33398 0.833008 14.001 1.5v-20c-9.33301 -4.66699 -19 -8 -29 -10s-19.333 -3 -28 -3c-42.667 0 -70.667 16.167 -84 48.5s-20 68.833 -20 109.5v453c0 20.667 -1.16699 40 -3.5 58s-6.83301 32.333 -13.5 43
c14.667 2.66699 27.834 6.5 39.501 11.5s23.834 11.167 36.501 18.5c1.33301 -21.333 2.16602 -42.166 2.49902 -62.499s0.5 -40.5 0.5 -60.5z" />
    <glyph glyph-name="uni013B" unicode="&#x13b;" horiz-adv-x="833" 
d="M434 0l-323.999 -0.00292969c6 22.667 9.66699 54.834 11 96.501s2 91.167 2 148.5v144c0 57.333 -0.666992 106.833 -2 148.5s-5 73.834 -11 96.501h86c-6 -22.667 -9.66699 -54.834 -11 -96.501s-2 -91.167 -2 -148.5v-290c0.666992 -31.333 7.5 -50.166 20.5 -56.499
s34.833 -9.5 65.5 -9.5h52c40 1.33301 79.833 6.33301 119.5 15s74.5 23.334 104.5 44.001l-22 -96c-12.667 2 -26.834 3.16699 -42.501 3.5s-31.167 0.5 -46.5 0.5zM280.001 -114.003c10 8 19.332 17.166 27.999 27.499s16.334 22.5 23.001 36.5
c12.667 -8.66699 22 -20.167 28 -34.5s9 -29.166 9 -44.499c0 -28.667 -9 -57.334 -27 -86.001s-39 -50.667 -63 -66l-7 11c14.667 12.667 25.667 26.334 33 41.001s11 29.667 11 45c0 13.333 -3.16699 26.333 -9.5 39s-14.833 23 -25.5 31z" />
    <glyph glyph-name="uni013C" unicode="&#x13c;" horiz-adv-x="283" 
d="M149 609l-0.00195312 -445.001c0 -33.333 4.66699 -65.5 14 -96.5s29 -46.5 59 -46.5c3.33301 0 7.33301 0.166992 12 0.5s9.33398 0.833008 14.001 1.5v-20c-9.33301 -4.66699 -19 -8 -29 -10s-19.333 -3 -28 -3c-42.667 0 -70.667 16.167 -84 48.5
s-20 68.833 -20 109.5v453c0 20.667 -1.16699 40 -3.5 58s-6.83301 32.333 -13.5 43c14.667 2.66699 27.834 6.5 39.501 11.5s23.834 11.167 36.501 18.5c1.33301 -21.333 2.16602 -42.166 2.49902 -62.499s0.5 -40.5 0.5 -60.5zM129.998 -114.001
c10 8 19.332 17.166 27.999 27.499s16.334 22.5 23.001 36.5c12.667 -8.66699 22 -20.167 28 -34.5s9 -29.166 9 -44.499c0 -28.667 -9 -57.334 -27 -86.001s-39 -50.667 -63 -66l-7 11c14.667 12.667 25.667 26.334 33 41.001s11 29.667 11 45
c0 13.333 -3.16699 26.333 -9.5 39s-14.833 23 -25.5 31z" />
    </font>
</defs>
</svg>
