<svg width="87" height="87" viewBox="0 0 87 87" fill="none" xmlns="http://www.w3.org/2000/svg">
<circle cx="43.5" cy="43.5" r="43" fill="#F8F8F8" stroke="black"/>
<path d="M53.4219 46.8974C53.4219 47.2576 53.1333 47.5496 52.7773 47.5496C52.4213 47.5496 52.1328 47.2576 52.1328 46.8974C52.1328 46.5371 52.4213 46.2451 52.7773 46.2451C53.1333 46.2451 53.4219 46.5371 53.4219 46.8974Z" fill="black"/>
<path d="M23.3563 30.5275L24.883 31.2995L25.6461 32.8441C25.7554 33.0649 25.9784 33.2045 26.2227 33.2045C26.4669 33.2045 26.6899 33.0649 26.7992 32.8441L27.5623 31.2995L29.0891 30.5275C29.3073 30.417 29.4453 30.1913 29.4453 29.9443C29.4453 29.6972 29.3073 29.4715 29.0891 29.361L27.5623 28.589L26.7992 27.0445C26.6899 26.8237 26.4669 26.6841 26.2227 26.6841C25.9784 26.6841 25.7554 26.8237 25.6461 27.0445L24.883 28.589L23.3563 29.361C23.138 29.4715 23 29.6972 23 29.9443C23 30.1913 23.138 30.417 23.3563 30.5275ZM25.6516 29.6582C25.7765 29.5953 25.8777 29.4929 25.9402 29.3666L26.2227 28.7945L26.5054 29.3666C26.5676 29.4929 26.6688 29.5951 26.7937 29.6582L27.3591 29.9443L26.7937 30.2303C26.6688 30.2932 26.5676 30.3956 26.5054 30.5219L26.2227 31.094L25.9399 30.5219C25.8777 30.3956 25.7765 30.2935 25.6516 30.2303L25.0862 29.9443L25.6516 29.6582Z" fill="black"/>
<path d="M29.1875 33.5957C28.8315 33.5957 28.543 33.8876 28.543 34.2477V34.8998H27.8984C27.5424 34.8998 27.2539 35.1917 27.2539 35.5518C27.2539 35.912 27.5424 36.2039 27.8984 36.2039H28.543V36.8559C28.543 37.216 28.8315 37.5079 29.1875 37.5079C29.5435 37.5079 29.832 37.216 29.832 36.8559V36.2039H30.4766C30.8326 36.2039 31.1211 35.912 31.1211 35.5518C31.1211 35.1917 30.8326 34.8998 30.4766 34.8998H29.832V34.2477C29.832 33.8876 29.5435 33.5957 29.1875 33.5957Z" fill="black"/>
<path d="M42.0781 28.3794C41.7221 28.3794 41.4336 28.6713 41.4336 29.0314V29.6835H40.7891C40.4331 29.6835 40.1445 29.9754 40.1445 30.3355C40.1445 30.6957 40.4331 30.9876 40.7891 30.9876H41.4336V31.6396C41.4336 31.9998 41.7221 32.2917 42.0781 32.2917C42.4341 32.2917 42.7227 31.9998 42.7227 31.6396V30.9876H43.3672C43.7232 30.9876 44.0117 30.6957 44.0117 30.3355C44.0117 29.9754 43.7232 29.6835 43.3672 29.6835H42.7227V29.0314C42.7227 28.6713 42.4341 28.3794 42.0781 28.3794Z" fill="black"/>
<path d="M36.9219 32.2915C34.7894 32.2915 33.0547 34.0464 33.0547 36.2037V37.6983C31.822 38.8124 31.1211 40.3888 31.1211 42.0721V59.4163C31.1211 59.7765 31.4096 60.0684 31.7656 60.0684H42.0781C42.4341 60.0684 42.7227 59.7765 42.7227 59.4163V42.0721C42.7227 40.3888 42.0217 38.8124 40.7891 37.6983V36.2037C40.7891 34.0426 39.0586 32.2915 36.9219 32.2915ZM34.3438 36.2037C34.3438 34.7657 35.5004 33.5956 36.9219 33.5956C38.3456 33.5956 39.5 34.7629 39.5 36.2037V41.42C39.5 41.5301 39.4927 41.6393 39.4791 41.7478C38.782 41.1271 37.8743 40.768 36.9219 40.768C35.9694 40.768 35.0618 41.1271 34.3646 41.7478C34.3511 41.6393 34.3438 41.5301 34.3438 41.42V36.2037ZM38.9323 43.0496C38.4471 43.6607 37.7076 44.0282 36.9219 44.0282C36.1364 44.0282 35.3969 43.6607 34.9115 43.0496C35.3967 42.4394 36.1361 42.0721 36.9219 42.0721C37.7076 42.0721 38.4471 42.4394 38.9323 43.0496ZM41.4336 42.0721V58.7643H32.4102V42.0721C32.4102 41.229 32.6375 40.4211 33.0547 39.7204V41.42C33.0547 43.6319 34.8443 45.3323 36.9219 45.3323C39.0443 45.3323 40.7891 43.5855 40.7891 41.42V39.7204C41.2062 40.4211 41.4336 41.229 41.4336 42.0721Z" fill="black"/>
<path d="M38.2109 47.9404H35.6328C35.2768 47.9404 34.9883 48.2324 34.9883 48.5927C34.9883 48.953 35.2768 49.245 35.6328 49.245H38.2109C38.5669 49.245 38.8555 48.953 38.8555 48.5927C38.8555 48.2324 38.5669 47.9404 38.2109 47.9404Z" fill="black"/>
<path d="M38.2109 50.5488H35.6328C35.2768 50.5488 34.9883 50.8408 34.9883 51.2011C34.9883 51.5613 35.2768 51.8533 35.6328 51.8533H38.2109C38.5669 51.8533 38.8555 51.5613 38.8555 51.2011C38.8555 50.8408 38.5669 50.5488 38.2109 50.5488Z" fill="black"/>
<path d="M52.7772 48.8535C52.4212 48.8535 52.1327 49.1454 52.1327 49.5056V54.3279C51.5267 55.027 50.8889 55.6755 50.436 56.0509C50.1605 56.2791 50.12 56.69 50.3456 56.9686C50.5714 57.2475 50.9775 57.2878 51.2525 57.0601C51.8071 56.6006 52.5599 55.8291 53.2664 54.9957C53.3666 54.8775 53.4218 54.727 53.4218 54.5714V49.5056C53.4218 49.1454 53.1332 48.8535 52.7772 48.8535Z" fill="black"/>
<path d="M56 31.2484C56 31.1027 55.9519 30.9613 55.863 30.8464C55.8313 30.8054 55.074 29.8292 54.1183 28.8371C52.2592 26.9072 51.3591 26.6841 50.8438 26.6841C49.2916 26.6841 46.7734 29.6221 45.8245 30.8464C45.7379 30.9583 45.6883 31.1022 45.6878 31.2458C45.6878 31.2466 45.6875 31.2476 45.6875 31.2486V40.3769C45.6875 40.7371 45.976 41.029 46.332 41.029C47.3983 41.029 48.2656 41.9064 48.2656 42.9851C48.2656 44.0638 47.3983 44.9412 46.332 44.9412C45.976 44.9412 45.6875 45.2331 45.6875 45.5932V55.5043C45.6875 55.65 45.7356 55.7913 45.8245 55.9062C45.8562 55.9472 46.6135 56.9235 47.5692 57.9155C49.4283 59.8454 50.3284 60.0685 50.8438 60.0685C51.3591 60.0685 52.2592 59.8454 54.1183 57.9155C55.074 56.9235 55.8313 55.9472 55.863 55.9059C55.9519 55.7913 56 55.65 56 55.5043V45.5932C56 45.2331 55.7115 44.9412 55.3555 44.9412C53.505 44.9412 53.4219 43.0047 53.4219 42.9851C53.4219 42.6736 53.5009 42.3575 53.6505 42.0717C53.6512 42.0702 53.6522 42.0687 53.653 42.0671C53.9954 41.4169 54.6314 41.029 55.3555 41.029C55.7054 41.029 56.0003 40.7401 56 40.3767C56 40.2295 56 31.3146 56 31.2484ZM47.1996 31.2038C47.4141 30.944 47.7105 30.5948 48.0504 30.2204L54.7109 36.9586V38.8029L47.1996 31.2038ZM53.188 29.7398C53.867 30.4443 54.4546 31.1582 54.7109 31.4773V35.1142L48.9514 29.2877C50.2282 28.0572 50.7456 27.9882 50.8438 27.9882C50.953 27.9882 51.5802 28.0727 53.188 29.7398ZM54.7109 46.1898V55.2753C54.4546 55.5944 53.867 56.3084 53.188 57.0126C51.5802 58.6799 50.953 58.7645 50.8438 58.7645C50.7345 58.7645 50.1073 58.6799 48.4995 57.0129C47.8205 56.3086 47.2329 55.5944 46.9766 55.2753V46.1798C48.4456 45.877 49.5547 44.5594 49.5547 42.9851C49.5547 41.4108 48.4456 40.0934 46.9766 39.7903V36.511L52.3171 41.9138C52.1968 42.2602 52.1328 42.6234 52.1328 42.9851C52.1328 43.9486 52.7791 45.8418 54.7109 46.1898ZM53.0002 40.7605L46.9766 34.6667V32.8227L54.0639 39.9926C53.6618 40.1688 53.301 40.4291 53.0002 40.7605Z" fill="black"/>
</svg>
