<svg width="87" height="87" viewBox="0 0 87 87" fill="none" xmlns="http://www.w3.org/2000/svg">
<circle cx="43.5" cy="43.5" r="43" fill="#F8F8F8" stroke="black"/>
<path d="M56.0823 37.3617C55.9671 37.2239 55.7886 37.1534 55.6026 37.1719L40.0599 38.7443C39.9706 38.7533 39.8823 38.7834 39.8036 38.8311L23.562 48.6919L24.1223 49.6624L40.2441 39.8744L54.8455 38.3977L54.0444 41.1942L42.3377 42.7221C42.2554 42.7327 42.1759 42.76 42.104 42.803L33.4219 47.9483L33.971 48.9256L42.5432 43.8451L54.5298 42.2808C54.616 42.2698 54.697 42.2403 54.7696 42.1962C54.9015 42.1161 55.0024 41.988 55.046 41.8357L56.1831 37.8686C56.2347 37.6886 56.1975 37.4995 56.0823 37.3617Z" fill="black"/>
<path d="M50.1163 40.2526L49.6168 38.4085L48.4805 38.7783L49.1002 41.0678C49.1701 41.3286 49.4166 41.4937 49.6916 41.4653L54.9471 40.9267L54.9001 39.7623L50.1163 40.2526Z" fill="black"/>
<path d="M48.8915 46.2643L38.036 45.5446L37.8842 46.7138L48.4234 47.4124L52.5164 55.6171C52.5164 55.6171 51.1353 56.3088 49.4674 55.7142C47.7996 55.1195 46.0587 50.533 46.0587 50.533C45.9588 50.359 45.7711 50.2566 45.5654 50.262L38.7069 50.4411C38.5998 50.4437 38.4942 50.4754 38.4008 50.5324L33.246 53.6771C33.012 53.8199 32.8945 54.0952 32.959 54.3481C33.0231 54.6014 33.2538 54.769 33.5208 54.7564L42.6343 54.3255C42.6343 54.3255 45.3685 57.9135 44.817 59.4354C44.2655 60.9573 39.9558 62.9334 39.9558 62.9334L40.5237 63.9219C40.5237 63.9219 45.1101 62.1217 45.8098 59.9052C46.5095 57.6888 43.5547 53.451 43.5547 53.451C43.4616 53.2488 43.2552 53.1271 43.027 53.1382L35.7547 53.4817L38.8259 51.608L45.1885 51.4417C45.1885 51.4417 46.9695 55.6355 48.9297 56.7973C50.89 57.9591 53.4685 56.6383 53.4685 56.6383C53.5491 56.6258 53.6255 56.5966 53.6946 56.5544C53.789 56.4969 53.8688 56.4141 53.9237 56.3146C54.0181 56.1421 54.024 55.9403 53.941 55.774L49.3455 46.5629C49.2599 46.3893 49.0886 46.2777 48.8915 46.2643Z" fill="black"/>
<path d="M38.7606 58.4807L33.2429 59.834L33.456 60.9753L38.5227 59.7329C38.5227 59.7329 41.6347 64.2685 40.9727 66.0133C40.3107 67.7581 35.8435 69.6123 35.8435 69.6123L36.4142 70.6054C36.4142 70.6054 41.4163 68.0141 41.9861 65.9811C42.556 63.9482 39.4044 58.7721 39.4044 58.7721C39.2906 58.5351 39.026 58.4155 38.7606 58.4807Z" fill="black"/>
<path d="M45.7186 22.2401L42.6099 24.1357C42.3233 24.3105 42.2197 24.6741 42.3772 24.9482L44.9459 29.4176C45.1034 29.6917 45.4628 29.7729 45.7493 29.5983L48.8581 27.7026C49.1446 27.5278 49.2483 27.1642 49.0907 26.8901L46.5221 22.4207C46.3646 22.1465 46.0052 22.0653 45.7186 22.2401ZM47.7692 27.0254L45.6967 28.2891L43.6989 24.813L45.7713 23.5492L47.7692 27.0254Z" fill="black"/>
<path d="M47.6144 27.9022L46.5698 28.5381L47.7196 30.5352L48.7642 29.8993L47.6144 27.9022Z" fill="black"/>
<path d="M48.4572 30.0149C47.4737 30.614 47.0594 31.7725 47.5337 32.5969L49.2544 35.5876C49.7287 36.4121 50.9151 36.5954 51.8985 35.9963C52.8821 35.3972 53.2964 34.2387 52.8221 33.4143L51.1014 30.4236C50.627 29.5991 49.4407 29.4158 48.4572 30.0149ZM51.6329 34.1388C51.7909 34.4134 51.6533 34.7994 51.325 34.9994C50.9968 35.1993 50.6017 35.1378 50.4437 34.8632L48.723 31.8724C48.565 31.5978 48.7026 31.2117 49.0308 31.0118C49.359 30.8118 49.7542 30.8734 49.9122 31.148L51.6329 34.1388Z" fill="black"/>
</svg>
