<svg width="103" height="87" viewBox="0 0 103 87" fill="none" xmlns="http://www.w3.org/2000/svg">
<circle cx="59.5" cy="43.5" r="43" fill="#F8F8F8" stroke="black"/>
<path d="M60.5 60.0685C56.1837 60.0685 52.1158 59.3731 49.0457 58.1108C45.7921 56.7726 44 54.9207 44 52.8961C44 51.5418 44.8127 50.241 46.3503 49.1346C46.6403 48.9258 47.0426 48.9943 47.2491 49.2879C47.4553 49.5814 47.3876 49.9884 47.0975 50.1972C46.2725 50.7909 45.2891 51.741 45.2891 52.8961C45.2891 54.3336 46.8352 55.7941 49.5311 56.9025C52.4507 58.1032 56.346 58.7644 60.5 58.7644C64.654 58.7644 68.5493 58.1032 71.4689 56.9025C74.1648 55.7941 75.7109 54.3336 75.7109 52.8961C75.7109 51.4585 74.1648 49.9981 71.4689 48.8896C68.5493 47.6889 64.654 47.0277 60.5 47.0277C57.1744 47.0277 54.0066 47.4513 51.3393 48.2528C50.9977 48.3555 50.6392 48.1586 50.538 47.8135C50.4365 47.4683 50.6309 47.1051 50.9723 47.0027C53.7571 46.1658 57.0518 45.7236 60.5 45.7236C64.8163 45.7236 68.8842 46.419 71.9543 47.6813C75.2079 49.0195 77 50.8714 77 52.8961C77 54.9207 75.2079 56.7726 71.9543 58.1108C68.8842 59.3731 64.8163 60.0685 60.5 60.0685Z" fill="black"/>
<path d="M48.7486 49.1714C48.5018 49.1714 48.2664 49.0274 48.1594 48.7846C48.0147 48.4557 48.1607 48.0699 48.4857 47.9234L48.5225 47.9068C48.8475 47.7601 49.2284 47.9079 49.3734 48.2368C49.5185 48.566 49.3724 48.9515 49.0472 49.0983L49.0107 49.1148C48.9253 49.1533 48.8362 49.1714 48.7486 49.1714Z" fill="black"/>
<path d="M60.5003 56.2325C58.081 56.2325 55.797 55.8938 54.0696 55.2789C51.5854 54.3946 51.064 53.2528 51.064 52.4507C51.064 51.6487 51.5854 50.5069 54.0696 49.6225C55.7972 49.0077 58.081 48.6689 60.5003 48.6689C62.9196 48.6689 65.2036 49.0077 66.931 49.6225C69.4152 50.5069 69.9366 51.6487 69.9366 52.4507C69.9366 53.2528 69.4152 54.3946 66.931 55.2789C65.2036 55.8938 62.9196 56.2325 60.5003 56.2325ZM60.5003 49.973C55.5268 49.973 52.353 51.4406 52.353 52.4507C52.353 53.4609 55.5268 54.9285 60.5003 54.9285C65.4738 54.9285 68.6476 53.4609 68.6476 52.4507C68.6476 51.4406 65.4738 49.973 60.5003 49.973Z" fill="black"/>
<path d="M60.5004 54.1171C58.9029 54.1171 57.1836 53.5866 57.1836 52.4218C57.1836 51.2571 58.9029 50.7266 60.5004 50.7266C62.0979 50.7266 63.8172 51.2571 63.8172 52.4218C63.8172 53.5866 62.0979 54.1171 60.5004 54.1171ZM58.5681 52.4218C58.8412 52.5927 59.5177 52.8131 60.5004 52.8131C61.4831 52.8131 62.1593 52.5927 62.4327 52.4218C62.1596 52.2509 61.4831 52.0306 60.5004 52.0306C59.5177 52.0306 58.8415 52.2512 58.5681 52.4218Z" fill="black"/>
<path d="M60.4997 44.0403C58.8466 44.0403 57.2924 43.3891 56.1235 42.2065C55.1313 41.2027 54.5006 39.8726 54.3475 38.4616C54.1947 37.0505 54.5255 35.6137 55.2793 34.4164L59.9559 26.9859C60.0742 26.7979 60.2794 26.6841 60.4997 26.6841C60.72 26.6841 60.9252 26.7979 61.0435 26.9859L65.7204 34.4164C66.474 35.6137 66.8048 37.0505 66.652 38.4616C66.4989 39.8726 65.8685 41.2027 64.876 42.2065C63.707 43.3891 62.1528 44.0403 60.4997 44.0403ZM60.4997 28.55L56.3664 35.1168C55.1232 37.092 55.3981 39.6284 57.0349 41.2845C58.9453 43.2171 62.0541 43.2171 63.9646 41.2845C65.6013 39.6284 65.8763 37.092 64.633 35.1168L60.4997 28.55Z" fill="black"/>
<path d="M63.1417 38.296C62.8617 38.296 62.6042 38.11 62.5228 37.8243C62.4181 37.4799 62.609 37.115 62.9491 37.009C63.2892 36.903 63.65 37.0962 63.7548 37.4406L63.7616 37.4631C63.86 37.8091 63.6626 38.1706 63.3205 38.2702C63.261 38.2878 63.2009 38.296 63.1417 38.296Z" fill="black"/>
<path d="M60.4997 41.4105C59.5799 41.4105 58.6605 41.0562 57.9603 40.3482C57.7085 40.0935 57.7085 39.6806 57.9603 39.4259C58.2121 39.1712 58.6199 39.1712 58.8717 39.4259C59.7695 40.3339 61.23 40.3339 62.1276 39.4259C62.3794 39.1712 62.7872 39.1712 63.0393 39.4259C63.2908 39.6806 63.2908 40.0935 63.0393 40.3482C62.3388 41.0562 61.4194 41.4105 60.4997 41.4105Z" fill="black"/>
</svg>
