<svg width="17" height="17" viewBox="0 0 17 17" fill="none" xmlns="http://www.w3.org/2000/svg">
<path d="M11.8564 0H5.03076C2.25679 0 0 2.25679 0 5.03076V11.8564C0 14.6303 2.25679 16.8871 5.03076 16.8871H11.8564C14.6303 16.8871 16.8871 14.6303 16.8871 11.8564V5.03076C16.8871 2.25679 14.6303 0 11.8564 0ZM15.1883 11.8564C15.1883 13.6965 13.6965 15.1883 11.8564 15.1883H5.03076C3.19061 15.1883 1.69884 13.6965 1.69884 11.8564V5.03076C1.69884 3.19058 3.19061 1.69884 5.03076 1.69884H11.8564C13.6965 1.69884 15.1883 3.19058 15.1883 5.03076V11.8564Z" fill="white"/>
<path d="M8.44378 4.07605C6.03548 4.07605 4.07617 6.03536 4.07617 8.44363C4.07617 10.8519 6.03548 12.8112 8.44378 12.8112C10.8521 12.8112 12.8114 10.8519 12.8114 8.44363C12.8114 6.03532 10.8521 4.07605 8.44378 4.07605ZM8.44378 11.1124C6.96985 11.1124 5.77502 9.91759 5.77502 8.44366C5.77502 6.96973 6.96988 5.77489 8.44378 5.77489C9.91771 5.77489 11.1125 6.96973 11.1125 8.44366C11.1125 9.91756 9.91768 11.1124 8.44378 11.1124Z" fill="white"/>
<path d="M12.8195 5.15539C13.3975 5.15539 13.8661 4.68683 13.8661 4.10883C13.8661 3.53082 13.3975 3.06226 12.8195 3.06226C12.2415 3.06226 11.7729 3.53082 11.7729 4.10883C11.7729 4.68683 12.2415 5.15539 12.8195 5.15539Z" fill="white"/>
</svg>
