<svg width="11" height="15" viewBox="0 0 11 15" fill="none" xmlns="http://www.w3.org/2000/svg">
<path d="M3.14453 8.64258V10.0488H8.87695V11.3965H3.14453V15H1.25V11.3965H0.273438V10.0488H1.25V8.64258H0.273438V7.00195H1.25V0.683594H5.73242C7.01497 0.683594 7.98503 0.813802 8.64258 1.07422C9.30664 1.32812 9.83724 1.7806 10.2344 2.43164C10.6315 3.08268 10.8301 3.80208 10.8301 4.58984C10.8301 5.38411 10.6836 6.04167 10.3906 6.5625C10.0977 7.08333 9.70703 7.5 9.21875 7.8125C8.73698 8.11849 8.18034 8.33333 7.54883 8.45703C6.92383 8.58073 6.27604 8.64258 5.60547 8.64258H3.14453ZM5.60547 7.00195C6.04167 7.00195 6.45833 6.9694 6.85547 6.9043C7.2526 6.83268 7.60091 6.70573 7.90039 6.52344C8.19987 6.34115 8.4375 6.09701 8.61328 5.79102C8.78906 5.47852 8.87695 5.07812 8.87695 4.58984C8.87695 4.16667 8.79557 3.80859 8.63281 3.51562C8.47656 3.22266 8.25846 2.98503 7.97852 2.80273C7.70508 2.61393 7.38281 2.47721 7.01172 2.39258C6.64062 2.30794 6.24023 2.26562 5.81055 2.26562H3.14453V7.00195H5.60547Z" fill="#ABABAB"/>
</svg>
