<svg width="58" height="20" viewBox="0 0 58 20" fill="none" xmlns="http://www.w3.org/2000/svg">
<rect y="0.567871" width="58" height="18.7546" rx="9.37729" fill="#DBB972"/>
<path d="M9.86425 14.5679L13.1013 5.33787H14.8693L18.1063 14.5679H16.3903L15.5973 12.2019H12.3603L11.5803 14.5679H9.86425ZM12.7763 10.8369H15.1813L14.3623 8.36687L13.9983 6.93687H13.9723C13.8336 7.54354 13.7123 8.0202 13.6083 8.36687L12.7763 10.8369ZM19.0993 14.5679V7.93787H20.7503V10.4729H21.5563L23.1683 7.93787H25.0013L22.8953 11.0969V11.1229L25.2613 14.5679H23.3503L21.6083 11.8769H20.7503V14.5679H19.0993ZM26.2341 14.5679V7.93787H27.8851V13.1639H30.5371V7.93787H32.1881V13.1639H33.1371V16.1279H31.6421V14.5679H26.2341ZM34.3464 14.5679V7.93787H35.9194V11.4869C35.9194 11.8075 35.9064 12.0719 35.8804 12.2799H35.9064C35.9411 12.2019 36.1057 11.9375 36.4004 11.4869L38.8574 7.93787H40.4564V14.5679H38.8834V11.0319C38.8834 10.8412 38.8964 10.5769 38.9224 10.2389H38.8964C38.8704 10.2995 38.7057 10.5639 38.4024 11.0319L35.9454 14.5679H34.3464ZM41.5802 14.5679L43.0362 12.4489L43.3352 12.0459V12.0329C42.9452 11.8942 42.6245 11.6515 42.3732 11.3049C42.1219 10.9495 41.9962 10.5422 41.9962 10.0829C41.9962 9.40687 42.2085 8.88254 42.6332 8.50987C43.0665 8.12854 43.6472 7.93787 44.3752 7.93787H47.3522V14.5679H45.7012V12.3189H44.8432L43.3612 14.5679H41.5802ZM44.8302 11.1749H45.7012V9.01687H44.8432C44.0459 9.01687 43.6472 9.36787 43.6472 10.0699C43.6472 10.4339 43.7555 10.7112 43.9722 10.9019C44.1889 11.0839 44.4749 11.1749 44.8302 11.1749Z" fill="white"/>
</svg>
