<svg width="35" height="38" viewBox="0 0 35 38" fill="none" xmlns="http://www.w3.org/2000/svg">
<path opacity="0.1" d="M0.184 24.688C0.184 30.16 2.056 34.336 6.088 37.072C8.104 33.04 10.84 29.728 14.296 26.848C10.552 24.4 8.68 20.8 8.68 15.904C8.68 11.008 10.984 6.39999 15.592 2.368L14.872 0.927997C10.84 3.52 7.384 7.11999 4.504 11.44C1.624 15.904 0.184 20.368 0.184 24.688ZM18.904 24.688C18.904 30.16 20.776 34.336 24.808 37.072C26.824 33.04 29.56 29.728 33.016 26.848C29.272 24.4 27.4 20.8 27.4 15.904C27.4 11.008 29.704 6.39999 34.312 2.368L33.592 0.927997C29.56 3.52 26.104 7.11999 23.224 11.44C20.344 15.904 18.904 20.368 18.904 24.688Z" fill="black"/>
</svg>
