<svg width="17" height="15" viewBox="0 0 17 15" fill="none" xmlns="http://www.w3.org/2000/svg">
<path d="M1 13.1665V8.9165H5.25" stroke="#333333" stroke-width="1.5" stroke-linecap="round" stroke-linejoin="round"/>
<path d="M1 8.9165L4.28667 12.0048C5.04795 12.7665 5.98976 13.3229 7.02424 13.6221C8.05872 13.9213 9.15213 13.9536 10.2025 13.716C11.2528 13.4783 12.2258 12.9785 13.0307 12.2631C13.8356 11.5477 14.4462 10.64 14.8054 9.62484" stroke="#333333" stroke-width="1.5" stroke-linecap="round" stroke-linejoin="round"/>
<path d="M16.0972 1.70654L16.0972 5.95654L11.8472 5.95654" stroke="#333333" stroke-width="1.5" stroke-linecap="round" stroke-linejoin="round"/>
<path d="M16.0972 5.95654L12.8105 2.86821C12.0492 2.10655 11.1074 1.55014 10.0729 1.25092C9.03845 0.951697 7.94504 0.919405 6.8947 1.15706C5.84437 1.39471 4.87136 1.89456 4.06646 2.60996C3.26155 3.32537 2.65099 4.23301 2.29175 5.24821" stroke="#333333" stroke-width="1.5" stroke-linecap="round" stroke-linejoin="round"/>
</svg>
