<svg width="14" height="13" viewBox="0 0 14 13" fill="none" xmlns="http://www.w3.org/2000/svg">
<path d="M12.3701 7.1707C12.2266 7.1707 12.0766 7.1249 11.9331 7.09219C11.6424 7.02796 11.3568 6.94269 11.0785 6.83704C10.7759 6.72662 10.4432 6.73235 10.1446 6.85314C9.84588 6.97392 9.60231 7.20121 9.46069 7.49128L9.31718 7.78569C8.6818 7.43121 8.09794 6.99094 7.58195 6.4772C7.06971 5.95971 6.63072 5.37415 6.27727 4.73692L6.55125 4.55373C6.84048 4.41171 7.06711 4.16742 7.18754 3.86788C7.30797 3.56835 7.31369 3.23472 7.20359 2.93121C7.10001 2.65147 7.01502 2.36516 6.94918 2.07415C6.91656 1.93022 6.89047 1.77975 6.8709 1.62927C6.79168 1.16844 6.551 0.751109 6.19221 0.452445C5.83342 0.153782 5.3801 -0.00659073 4.91387 0.000207593H2.95685C2.67571 -0.00243982 2.3973 0.0556961 2.14058 0.170658C1.88385 0.285619 1.65484 0.454707 1.46913 0.66641C1.28343 0.878114 1.14538 1.12746 1.06439 1.39748C0.983408 1.6675 0.961384 1.95185 0.99982 2.23117C1.34735 4.97204 2.59547 7.51868 4.54703 9.46881C6.49859 11.419 9.04235 12.6614 11.7765 13H12.0244C12.5054 13.0007 12.9699 12.8237 13.3291 12.5028C13.5355 12.3177 13.7003 12.0907 13.8128 11.837C13.9252 11.5832 13.9827 11.3084 13.9814 11.0307V9.068C13.9734 8.61356 13.8084 8.17598 13.5146 7.82996C13.2207 7.48394 12.8162 7.25093 12.3701 7.1707Z" fill="#DBB972"/>
</svg>
