<svg width="23" height="23" viewBox="0 0 23 23" fill="none" xmlns="http://www.w3.org/2000/svg">
<path d="M0 22.2981L1.91764 16.5456C0.944594 14.909 0.38445 12.999 0.38445 10.9568C0.38445 4.90559 5.29004 0 11.3413 0C17.3925 0 22.2981 4.90559 22.2981 10.9568C22.2981 17.0081 17.3925 21.9137 11.3413 21.9137C9.50015 21.9137 7.76628 21.4573 6.24347 20.6554L0 22.2981Z" fill="#2CB742"/>
<path d="M16.8445 14.3648C16.4206 13.5638 14.8575 12.6478 14.8575 12.6478C14.5039 12.4462 14.0771 12.4237 13.8755 12.7831C13.8755 12.7831 13.3676 13.3922 13.2384 13.4798C12.6483 13.8795 12.1018 13.864 11.55 13.3123L10.2678 12.0301L8.9856 10.7479C8.43387 10.1962 8.41841 9.64961 8.81811 9.05957C8.90572 8.93041 9.51478 8.42249 9.51478 8.42249C9.87423 8.22055 9.85169 7.79412 9.65006 7.44047C9.65006 7.44047 8.73405 5.87743 7.93303 5.45357C7.59226 5.27321 7.17387 5.33633 6.90139 5.60881L6.33516 6.17503C4.53889 7.97126 5.42334 9.99907 7.21961 11.7953L8.86127 13.4369L10.5029 15.0786C12.2992 16.8748 14.3271 17.7592 16.1233 15.963L16.6895 15.3968C16.962 15.1237 17.0248 14.7053 16.8445 14.3648Z" fill="white"/>
</svg>
